<svg width="116" height="99" fill="none" xmlns="http://www.w3.org/2000/svg"><mask id="a" maskUnits="userSpaceOnUse" x="31" y="15" width="59" height="75" fill="#000"><path fill="#fff" d="M31 15h59v75H31z"/><path d="M55.6828 66.936c2.4746.256 4.3093.384 5.504.384 1.2373 0 3.0933-.1707 5.568-.512.768.256 1.216.576 1.344.96.128.384.1706.7893.128 1.216-.0427.384-.0214.768.064 1.152.0853.384.4906.704 1.216.96.384.128.4906.512.32 1.152-.128.5973-.4694 1.2587-1.024 1.984-1.408 1.8347-3.072 3.1147-4.992 3.84-3.072.768-5.4827 1.216-7.232 1.344-2.9014.2133-6.0587.1067-9.472-.32-3.7547-.6827-5.568-2.24-5.44-4.672 0-8.96 1.9626-17.9627 5.888-27.008 1.28-2.944 2.7306-6.0373 4.352-9.28.3413-.6827.5333-1.4507.576-2.304.0853-.8533.1493-1.6853.192-2.496.0426-.8107.1706-1.536.384-2.176.2133-.64.6613-1.088 1.344-1.344 8.8746-3.5413 15.8933-4.9067 21.056-4.096 1.792.0427 2.9653.6613 3.52 1.856.5973 1.152.6613 2.4533.192 3.904-.4267 1.4507-1.3014 2.816-2.624 4.096-1.28 1.28-2.9014 2.0693-4.864 2.368-2.5174.7253-4.0534 1.216-4.608 1.472-1.0667.512-1.8347 1.1947-2.304 2.048-.5974.9387-1.152 1.8347-1.664 2.688-.512.8533-.8747 1.7707-1.088 2.752l-.256 1.408c.8106.384 1.792.512 2.944.384 1.1946-.1707 2.2826-.32 3.264-.448 1.024-.1707 1.8346-.192 2.432-.064.64.128.768.768.384 1.92-.3414 1.1093-1.0027 2.368-1.984 3.776-.9387 1.408-2.2827 2.432-4.032 3.072-1.1094.2133-1.8774.384-2.304.512-.384.0853-.6827.1493-.896.192-.2987.0427-1.152.1067-2.56.192-2.0054 3.4133-3.2214 6.0587-3.648 7.936-.1707.768-.064 1.152.32 1.152Z"/></mask><path d="M55.6828 66.936c2.4746.256 4.3093.384 5.504.384 1.2373 0 3.0933-.1707 5.568-.512.768.256 1.216.576 1.344.96.128.384.1706.7893.128 1.216-.0427.384-.0214.768.064 1.152.0853.384.4906.704 1.216.96.384.128.4906.512.32 1.152-.128.5973-.4694 1.2587-1.024 1.984-1.408 1.8347-3.072 3.1147-4.992 3.84-3.072.768-5.4827 1.216-7.232 1.344-2.9014.2133-6.0587.1067-9.472-.32-3.7547-.6827-5.568-2.24-5.44-4.672 0-8.96 1.9626-17.9627 5.888-27.008 1.28-2.944 2.7306-6.0373 4.352-9.28.3413-.6827.5333-1.4507.576-2.304.0853-.8533.1493-1.6853.192-2.496.0426-.8107.1706-1.536.384-2.176.2133-.64.6613-1.088 1.344-1.344 8.8746-3.5413 15.8933-4.9067 21.056-4.096 1.792.0427 2.9653.6613 3.52 1.856.5973 1.152.6613 2.4533.192 3.904-.4267 1.4507-1.3014 2.816-2.624 4.096-1.28 1.28-2.9014 2.0693-4.864 2.368-2.5174.7253-4.0534 1.216-4.608 1.472-1.0667.512-1.8347 1.1947-2.304 2.048-.5974.9387-1.152 1.8347-1.664 2.688-.512.8533-.8747 1.7707-1.088 2.752l-.256 1.408c.8106.384 1.792.512 2.944.384 1.1946-.1707 2.2826-.32 3.264-.448 1.024-.1707 1.8346-.192 2.432-.064.64.128.768.768.384 1.92-.3414 1.1093-1.0027 2.368-1.984 3.776-.9387 1.408-2.2827 2.432-4.032 3.072-1.1094.2133-1.8774.384-2.304.512-.384.0853-.6827.1493-.896.192-.2987.0427-1.152.1067-2.56.192-2.0054 3.4133-3.2214 6.0587-3.648 7.936-.1707.768-.064 1.152.32 1.152Z" fill="#F3F3F3"/><path d="m55.6828 66.936 1.0289-9.9469-.5131-.0531h-.5158v10Zm11.072-.128 3.1622-9.4868-2.2153-.7385-2.3133.3191 1.3664 9.9062Zm1.472 2.176 9.9388 1.1043.0061-.0546.0054-.0547-9.9503-.995Zm.064 1.152-9.7619 2.1693 9.7619-2.1693Zm1.216.96-3.3282 9.4299.0827.0292.0832.0277 3.1623-9.4868Zm.32 1.152-9.6624-2.5766-.0638.2392-.0519.2421 9.7781 2.0953Zm-1.024 1.984 7.933 6.0882.0053-.0068.0052-.0069-7.9435-6.0745Zm-4.992 3.84 2.4253 9.7014.5644-.1411.5443-.2056-3.534-9.3547Zm-7.232 1.344-.7298-9.9733-.0036.0002.7334 9.9731Zm-9.472-.32-1.7889 9.8387.2731.0497.2754.0344 1.2404-9.9228Zm-5.44-4.672 9.9861.5256.0139-.2626v-.263h-10Zm5.888-27.008-9.1708-3.9873-.0027.0064 9.1735 3.9809Zm4.352-9.28-8.9443-4.4721 8.9443 4.4721Zm.576-2.304-9.9504-.995-.0248.2473-.0124.2483 9.9876.4994Zm.576-4.672-9.4869-3.1623 9.4869 3.1623Zm1.344-1.344 3.5112 9.3633.0979-.0367.0971-.0388-3.7062-9.2878Zm21.056-4.096-1.5513 9.8789.6527.1025.6605.0158.2381-9.9972Zm3.52 1.856-9.0701 4.2111.092.1981.1005.194 8.8776-4.6032Zm.192 3.904-9.5145-3.0782-.0413.1277-.0379.1288 9.5937 2.8217Zm-2.624 4.096-6.9543-7.186-.0589.057-.0579.0579 7.0711 7.0711Zm-4.864 2.368-1.5045-9.8862-.6411.0976-.6232.1795 2.7688 9.6091Zm-4.608 1.472-4.1906-9.0796-.0686.0317-.0682.0327 4.3274 9.0152Zm-2.304 2.048 8.4366 5.3688.1715-.2696.154-.28-8.7621-4.8192Zm-2.752 5.44-9.7718-2.1243-.0363.1672-.0306.1682 9.8387 1.7889Zm-.256 1.408-9.8387-1.7889-1.3717 7.5439 6.9295 3.2824 4.2809-9.0374Zm2.944.384 1.1043 9.9388.1552-.0172.1547-.0221-1.4142-9.8995Zm3.264-.448 1.2933 9.916.1758-.0229.1748-.0292-1.6439-9.8639Zm2.432-.064-2.0953 9.778.0669.0144.0672.0134 1.9612-9.8058Zm.384 1.92-9.4869-3.1623-.0367.1103-.0342.1111 9.5578 2.9409Zm-1.984 3.776-8.204-5.7179-.0592.0848-.0573.0861 8.3205 5.547Zm-4.032 3.072 1.8884 9.8201.791-.1521.7564-.2768-3.4358-9.3912Zm-2.304.512 2.1693 9.7619.3554-.079.3487-.1046-2.8734-9.5783Zm-.896.192 1.4142 9.8995.2747-.0393.2722-.0544-1.9611-9.8058Zm-2.56.192-.605-9.9817-5.3183.3223-2.6989 4.5939 8.6222 5.0655Zm-3.648 7.936-9.7514-2.2162-.0053.0234-.0052.0235 9.7619 2.1693Zm-.709 11.0989c2.5337.2621 4.7952.4371 6.533.4371v-20c-.6517 0-2.0595-.081-4.4751-.3309l-2.0579 19.8938Zm6.533.4371c1.9517 0 4.3653-.2514 6.9343-.6058l-2.7327-19.8124c-2.3803.3283-3.6787.4182-4.2016.4182v20Zm2.4057-1.0252c-.1608-.0535-.8668-.2951-1.7381-.9175-.8872-.6337-2.4352-2.0251-3.2425-4.447l18.9737-6.3246c-.9353-2.8059-2.7713-4.5493-4.1065-5.503-1.3193-.9424-2.6333-1.472-3.5621-1.7815l-6.3245 18.9736Zm-4.9806-5.3645c-.344-1.0322-.4247-2.0499-.3355-2.9413l19.9007 1.99c.1745-1.7448.0085-3.5731-.5915-5.3733l-18.9737 6.3246Zm-.324-3.0506c-.1664 1.4975-.0786 2.9873.241 4.4256l19.5237-4.3386c.149.6703.194 1.3921.113 2.1216l-19.8777-2.2086Zm.241 4.4256c1.3239 5.9577 6.6153 7.8555 7.6497 8.2206l6.6563-18.8598c.2173.0767 1.0482.3817 2.0203 1.1491 1.0339.8162 2.6031 2.477 3.1974 5.1515l-19.5237 4.3386Zm7.8156 8.2775c-1.225-.4083-2.6088-1.1582-3.8216-2.4237-1.2176-1.2706-1.9234-2.707-2.2833-4.0027-.6425-2.3128-.1788-4.0967-.0752-4.485l19.3247 5.1532c.2742-1.0283.77-3.3242.0208-6.021-.9604-3.4574-3.5521-6.0982-6.8409-7.1944l-6.3245 18.9736Zm-6.2958-10.4301c.1568-.7318.3892-1.2553.5398-1.5471.1517-.2939.2676-.4441.2707-.4481l15.8871 12.149c1.047-1.3691 2.3059-3.3847 2.8585-5.9632l-19.5561-4.1906Zm.821-2.0089c-.2277.2966-.3913.4389-.4681.498-.0705.0542-.1058.0683-.1249.0755l7.0681 18.7094c3.8755-1.4641 6.997-3.987 9.391-7.1065L60.8697 68.1438Zm.5157.2268c-2.8828.7207-4.6418 1.0066-5.5364 1.0721l1.4595 19.9466c2.604-.1905 5.6664-.8006 8.9276-1.6159l-4.8507-19.4028Zm-5.54 1.0723c-2.1372.1572-4.6247.0895-7.4983-.2697l-2.4807 19.8456c3.9531.4941 7.7802.6398 11.4457.3703l-1.4667-19.9462Zm-6.9498-.1856c-1.0722-.1949-.4674-.3017.5504.5724.5954.5114 1.2495 1.2953 1.7005 2.3627.4483 1.0613.544 2.043.5064 2.7572l-19.9723-1.0512c-.2234 4.2433 1.4249 8.2612 4.7349 11.1039 2.8312 2.4315 6.2199 3.4447 8.9024 3.9324l3.5777-19.6774Zm2.7712 5.1667c0-7.4584 1.6262-15.1111 5.0614-23.0271l-18.3469-7.9618c-4.4154 10.1746-6.7145 20.5273-6.7145 30.9889h20Zm5.0587-23.0207c1.2004-2.7611 2.574-5.6921 4.1255-8.7952l-17.8885-8.9442c-1.6912 3.3822-3.2189 6.6379-4.5784 9.7648l18.3414 7.9746Zm4.1255-8.7952c1.0303-2.0605 1.5158-4.2066 1.6193-6.2767l-19.9751-.9988c.0182-.3634.1197-.9736.4673-1.6687l17.8885 8.9442Zm1.5821-5.7811c.1001-1.0008.1765-1.9895.2278-2.9654l-19.9723-1.0512c-.034.6454-.0856 1.3207-.1562 2.0266l19.9007 1.99Zm.2278-2.9654c.0047-.089.0062.0961-.1153.4607l-18.9737-6.3246c-.5482 1.6446-.8027 3.2803-.8833 4.8127l19.9723 1.0512Zm-.1153.4607c-.3517 1.055-.9754 2.1484-1.9198 3.0928-.9267.9267-1.9173 1.4662-2.7118 1.7642l-7.0225-18.7266c-3.2471 1.2177-6.0672 3.7879-7.3196 7.545l18.9737 6.3246Zm-4.4366 4.7815c8.3857-3.3462 13.3435-3.8904 15.7985-3.5049L77.01 15.841c-7.8703-1.2358-16.9498.9507-26.3135 4.6872l7.4125 18.5756Zm17.1117-3.3866c-.1323-.0032-1.0289-.0369-2.202-.6555-1.3349-.7039-2.4585-1.8713-3.11-3.2746l18.1401-8.4222c-2.7352-5.8914-8.3527-7.5468-12.352-7.6421l-.4761 19.9944Zm-5.1195-3.538c-.3652-.7044-.5761-1.4942-.6144-2.272-.0366-.7447.0939-1.2718.1695-1.5054l19.0289 6.1564c1.1366-3.5132 1.213-7.6475-.8289-11.5854l-17.7551 9.2064Zm-.5241-3.5209c.035-.119.0746-.2202.1121-.3013.0372-.0805.0688-.1336.0852-.1593.0321-.05-.0035.0197-.1819.1923L83.501 42.762c2.2964-2.2223 4.2534-5.0262 5.2634-8.4603l-19.1873-5.6434Zm-.1014-.1534c.142-.142.3263-.2747.5178-.368.1828-.089.2687-.0919.1848-.0791l3.0089 19.7724c3.856-.5868 7.4959-2.2484 10.4306-5.1831L69.4757 28.5049Zm-.5617-.17c-2.2081.6363-4.6198 1.3507-6.0298 2.0015l8.3811 18.1592c-.2663.1229-.3945.1616-.2272.1018.1196-.0427.3277-.1134.6476-.2156.6388-.2041 1.55-.4784 2.7658-.8287L68.914 28.3349Zm-6.1666 2.0659c-2.5347 1.2166-5.0651 3.201-6.7388 6.244l17.5243 9.6384c-.735 1.3364-1.7294 1.9553-2.1308 2.148l-8.6547-18.0304Zm-6.4133 5.6944c-.639 1.0042-1.2403 1.9752-1.8023 2.9118l17.1499 10.29c.462-.77.97-1.5911 1.5257-2.4642L56.3341 36.0952Zm-1.8023 2.9118c-1.0781 1.797-1.842 3.7359-2.2848 5.7727l19.5435 4.2486c-.0063.0291-.0187.0741-.0401.1283-.0215.0543-.0459.1024-.0687.1404l-17.1499-10.29Zm-2.3517 6.1081-.256 1.408 19.6773 3.5778.256-1.408-19.6773-3.5778Zm5.3018 12.2343c2.9113 1.379 5.8629 1.5595 8.3292 1.2854l-2.2087-19.8776c.1623-.0181 1.1513-.0936 2.4412.5174l-8.5617 18.0748Zm8.6391 1.2461c1.1627-.1661 2.2097-.3097 3.1431-.4315l-2.5867-19.832c-1.0293.1342-2.1583.2893-3.3849.4645l2.8285 19.799Zm3.4937-.4836c.1749-.0291.1597-.0157-.0049-.0114-.1456.0039-.6215.0074-1.3023-.1385l4.1905-19.556c-2.3964-.5135-4.6514-.2752-6.1712-.0219l3.2879 19.7278Zm-1.1731-.1221c-1.3795-.2759-3.1651-.9819-4.7259-2.5427-1.5608-1.5608-2.2669-3.3464-2.5428-4.7259-.2579-1.29-.1646-2.3028-.0936-2.7994.0759-.5315.1867-.8782.2206-.9801l18.9737 6.3246c.3427-1.0282 1.0994-3.5255.511-6.4675-.3399-1.6995-1.174-3.7411-2.9268-5.4939-1.7528-1.7528-3.7944-2.5868-5.4939-2.9267l-3.9223 19.6116ZM61.229 47.1631c.0462-.1502.058-.1336-.0467.0656-.1022.1945-.2841.5038-.5835.9334l16.4079 11.4358c1.3184-1.8915 2.5836-4.1018 3.3378-6.5531L61.229 47.1631Zm-.7467 1.1699c.1444-.2167.3371-.4226.548-.5833.203-.1547.333-.1993.3046-.1889l6.8717 18.7824c3.533-1.2925 6.6804-3.5618 8.9167-6.9162l-16.641-11.094Zm2.4-1.2011c-1.0897.2096-2.3176.4624-3.289.7538l5.7469 19.1566c-.0855.0256-.1152.0319-.0641.0191.0448-.0112.1274-.031.256-.0595.2602-.0579.6297-.1342 1.1271-.2298l-3.7769-19.6402Zm-2.5849.5702c-.3603.0801-.5783.1262-.6878.1481l3.9223 19.6116c.3171-.0634.6965-.1453 1.1042-.2359l-4.3387-19.5238Zm-.1409.0544c.1757-.0251.2635-.0311.1643-.0219-.0658.0061-.1821.0159-.362.0294-.3585.0269-.8705.0609-1.553.1023l1.2099 19.9634c1.2141-.0736 2.5667-.1595 3.3693-.2742l-2.8285-19.799Zm-9.7679 5.026c-2.0969 3.5693-3.9903 7.3232-4.7772 10.7853l19.5027 4.4324c-.0051.0222.0193-.0885.1159-.3543.0944-.26.2387-.6159.4508-1.0773.4289-.933 1.0631-2.142 1.9521-3.6551l-17.2443-10.131Zm-4.7877 10.8322c-.1583.7123-.6646 3.034.0787 5.7097.4381 1.5772 1.4415 3.7222 3.6041 5.4146 2.1986 1.7207 4.6017 2.197 6.3991 2.197v-20c1.6053 0 3.8511.4283 5.927 2.053 2.04 1.5964 2.9554 3.5974 3.3401 4.9826.3642 1.3108.3493 2.3694.3215 2.8711-.0309.5545-.1107.9483-.1468 1.1106l-19.5237-4.3386Z" fill="#000" mask="url(#a)"/></svg>