<svg width="304" height="99" fill="none" xmlns="http://www.w3.org/2000/svg"><mask id="a" maskUnits="userSpaceOnUse" x="24" y="13" width="260" height="77" fill="#000"><path fill="#fff" d="M24 13h260v77H24z"/><path d="M60.7393 26.68c6.144-1.2373 10.9226-.4693 14.336 2.304 1.6213 1.3227 2.688 3.2427 3.2 5.76.5546 2.5173.2773 5.3333-.832 8.448-.4694 1.4507-1.28 2.5387-2.432 3.264-1.152.7253-2.3467 1.152-3.584 1.28-1.1947.0853-2.2827-.064-3.264-.448-.9814-.4267-1.5147-1.024-1.6-1.792l-.576-1.28c-1.024-1.536-2.7947-1.728-5.312-.576-2.176.9813-4.352 2.688-6.528 5.12-2.304 2.6027-3.7974 4.9493-4.48 7.04-.768 2.304-1.152 3.8187-1.152 4.544-.0854 1.6213.4906 3.072 1.728 4.352 1.792 1.152 3.584 1.6853 5.376 1.6 1.792-.128 3.392-.5333 4.8-1.216 1.408-.7253 2.56-1.536 3.456-2.432.896-.896 1.344-1.536 1.344-1.92l.384-.768c.128-.256.2346-.512.32-.768h.128c.256-.0427.32-.0427.192 0-.128 0-.064.0213.192.064l.384.128c-2.0907 1.8773-4.1174 2.2613-6.08 1.152-.768-.4693-1.4507-.96-2.048-1.472-.5974-.5547-1.152-.8107-1.664-.768-.9387-.512-1.152-1.5147-.64-3.008.2133-.5973.5973-1.152 1.152-1.664.5973-.5547 1.344-.9387 2.24-1.152 4.2666-1.8347 8.2133-2.2613 11.84-1.28 1.6213.4267 2.7306 1.3013 3.328 2.624.64 1.28.9173 2.7307.832 4.352-.0854 1.6213-.448 3.264-1.088 4.928-.5974 1.664-1.2587 3.008-1.984 4.032-.7254.9813-1.7494 2.1547-3.072 3.52-1.28 1.3653-2.9014 2.688-4.864 3.968-4.8214 3.1147-9.984 4.608-15.488 4.48-7.9787-.128-12.6934-3.392-14.144-9.792-.4694-2.048-.6827-4.352-.64-6.912.4266-7.424 2.6453-14.3573 6.656-20.8 1.92-3.072 4.5013-6.1013 7.744-9.088 2.048-1.8347 4.352-3.2427 6.912-4.224 1.3653-.5547 3.008-1.088 4.928-1.6Zm29.739 5.952c2.688-3.072 5.6746-4.992 8.96-5.76 2.2617-.5547 4.3947-.4693 6.3997.256 1.579-1.664 3.627-2.2613 6.144-1.792 2.304.4267 4.267 1.728 5.888 3.904.086.2987.256.7467.512 1.344.299.5973.576 1.2587.832 1.984 1.878 4.352 2.027 10.0693.448 17.152-1.962 8.7893-5.44 16.2347-10.432 22.336-1.536 1.8773-3.264 3.4347-5.184 4.672-3.072 2.3467-6.7411 3.392-11.0077 3.136-2.6454-.128-4.864-.7893-6.656-1.984-7.1254-3.5413-9.4507-10.9227-6.976-22.144 2.048-9.216 5.7386-16.9173 11.072-23.104Zm.768 33.984-.064.384.128.704c.256 1.3227.6826 2.3467 1.28 3.072.5973.6827 1.088 1.1093 1.472 1.28.4266-.3413.8533-.6613 1.28-.96.4266-.2987.8106-.6613 1.152-1.088 2.9013-3.584 5.1627-8.2773 6.7837-14.08 1.622-5.8027 2.219-11.1787 1.792-16.128-1.664 2.1333-3.413 4.5867-5.2477 7.36-1.8347 2.7733-3.2854 5.1413-4.352 7.104-2.432 4.5653-3.84 8.6827-4.224 12.352Zm41.3867-33.984c2.688-3.072 5.675-4.992 8.96-5.76 2.262-.5547 4.395-.4693 6.4.256 1.579-1.664 3.627-2.2613 6.144-1.792 2.304.4267 4.267 1.728 5.888 3.904.086.2987.256.7467.512 1.344.299.5973.576 1.2587.832 1.984 1.878 4.352 2.027 10.0693.448 17.152-1.962 8.7893-5.44 16.2347-10.432 22.336-1.536 1.8773-3.264 3.4347-5.184 4.672-3.072 2.3467-6.741 3.392-11.008 3.136-2.645-.128-4.864-.7893-6.656-1.984-7.125-3.5413-9.45-10.9227-6.976-22.144 2.048-9.216 5.739-16.9173 11.072-23.104Zm.768 33.984-.064.384.128.704c.256 1.3227.683 2.3467 1.28 3.072.598.6827 1.088 1.1093 1.472 1.28.427-.3413.854-.6613 1.28-.96.427-.2987.811-.6613 1.152-1.088 2.902-3.584 5.163-8.2773 6.784-14.08 1.622-5.8027 2.219-11.1787 1.792-16.128-1.664 2.1333-3.413 4.5867-5.248 7.36-1.834 2.7733-3.285 5.1413-4.352 7.104-2.432 4.5653-3.84 8.6827-4.224 12.352Zm53.803-39.936c6.144-1.2373 10.923-.4693 14.336 2.304 1.622 1.3227 2.688 3.2427 3.2 5.76.555 2.5173.278 5.3333-.832 8.448-.469 1.4507-1.28 2.5387-2.432 3.264-1.152.7253-2.346 1.152-3.584 1.28-1.194.0853-2.282-.064-3.264-.448-.981-.4267-1.514-1.024-1.6-1.792l-.576-1.28c-1.024-1.536-2.794-1.728-5.312-.576-2.176.9813-4.352 2.688-6.528 5.12-2.304 2.6027-3.797 4.9493-4.48 7.04-.768 2.304-1.152 3.8187-1.152 4.544-.085 1.6213.491 3.072 1.728 4.352 1.792 1.152 3.584 1.6853 5.376 1.6 1.792-.128 3.392-.5333 4.8-1.216 1.408-.7253 2.56-1.536 3.456-2.432.896-.896 1.344-1.536 1.344-1.92l.384-.768c.128-.256.235-.512.32-.768h.128c.256-.0427.32-.0427.192 0-.128 0-.064.0213.192.064l.384.128c-2.09 1.8773-4.117 2.2613-6.08 1.152-.768-.4693-1.45-.96-2.048-1.472-.597-.5547-1.152-.8107-1.664-.768-.938-.512-1.152-1.5147-.64-3.008.214-.5973.598-1.152 1.152-1.664.598-.5547 1.344-.9387 2.24-1.152 4.267-1.8347 8.214-2.2613 11.84-1.28 1.622.4267 2.731 1.3013 3.328 2.624.64 1.28.918 2.7307.832 4.352-.085 1.6213-.448 3.264-1.088 4.928-.597 1.664-1.258 3.008-1.984 4.032-.725.9813-1.749 2.1547-3.072 3.52-1.28 1.3653-2.901 2.688-4.864 3.968-4.821 3.1147-9.984 4.608-15.488 4.48-7.978-.128-12.693-3.392-14.144-9.792-.469-2.048-.682-4.352-.64-6.912.427-7.424 2.646-14.3573 6.656-20.8 1.92-3.072 4.502-6.1013 7.744-9.088 2.048-1.8347 4.352-3.2427 6.912-4.224 1.366-.5547 3.008-1.088 4.928-1.6Zm38.955 51.392c-.896.256-1.749.384-2.56.384-.81.0427-1.642.0853-2.496.128-.81.0427-1.941.064-3.392.064-1.45 0-3.626-.0427-6.528-.128-.682.0427-1.365.064-2.048.064-.682 0-1.322-.128-1.92-.384-1.322-.5547-2.218-1.8347-2.688-3.84-.213-.9387-.448-1.6-.704-1.984-.298-.384-.533-.7467-.704-1.088-.426-.6827-.384-1.8133.128-3.392.47-1.5787 1.088-3.52 1.856-5.824.768-2.3467 1.643-4.8213 2.624-7.424 2.304-6.1867 4.374-11.0933 6.208-14.72.726-1.6213 1.344-3.0293 1.856-4.224.555-1.1947 1.046-2.2187 1.472-3.072.427-.896.64-1.3653.64-1.408.427-1.6213 2.07-2.9867 4.928-4.096 2.774-1.152 5.291-1.4507 7.552-.896 2.518.64 3.627 2.304 3.328 4.992-.597 2.6453-1.493 5.2907-2.688 7.936-1.152 2.6453-2.474 5.4187-3.968 8.32-1.493 2.9013-3.114 5.9733-4.864 9.216-1.749 3.2427-3.477 6.7627-5.184 10.56-.042.1707.043.32.256.448.555-.0427 1.323-.2133 2.304-.512 1.024-.2987 2.07-.5547 3.136-.768 1.11-.256 2.198-.384 3.264-.384 1.067 0 1.963.2773 2.688.832-.042.768.15 1.3867.576 1.856.427.4267.854.8533 1.28 1.28 1.067 1.1093 1.152 2.5813.256 4.416-.853 1.792-2.389 3.008-4.608 3.648Zm23.411-11.136c2.475.256 4.31.384 5.504.384 1.238 0 3.094-.1707 5.568-.512.768.256 1.216.576 1.344.96.128.384.171.7893.128 1.216-.042.384-.021.768.064 1.152.086.384.491.704 1.216.96.384.128.491.512.32 1.152-.128.5973-.469 1.2587-1.024 1.984-1.408 1.8347-3.072 3.1147-4.992 3.84-3.072.768-5.482 1.216-7.232 1.344-2.901.2133-6.058.1067-9.472-.32-3.754-.6827-5.568-2.24-5.44-4.672 0-8.96 1.963-17.9627 5.888-27.008 1.28-2.944 2.731-6.0373 4.352-9.28.342-.6827.534-1.4507.576-2.304.086-.8533.15-1.6853.192-2.496.043-.8107.171-1.536.384-2.176.214-.64.662-1.088 1.344-1.344 8.875-3.5413 15.894-4.9067 21.056-4.096 1.792.0427 2.966.6613 3.52 1.856.598 1.152.662 2.4533.192 3.904-.426 1.4507-1.301 2.816-2.624 4.096-1.28 1.28-2.901 2.0693-4.864 2.368-2.517.7253-4.053 1.216-4.608 1.472-1.066.512-1.834 1.1947-2.304 2.048-.597.9387-1.152 1.8347-1.664 2.688-.512.8533-.874 1.7707-1.088 2.752l-.256 1.408c.811.384 1.792.512 2.944.384 1.195-.1707 2.283-.32 3.264-.448 1.024-.1707 1.835-.192 2.432-.064.64.128.768.768.384 1.92-.341 1.1093-1.002 2.368-1.984 3.776-.938 1.408-2.282 2.432-4.032 3.072-1.109.2133-1.877.384-2.304.512-.384.0853-.682.1493-.896.192-.298.0427-1.152.1067-2.56.192-2.005 3.4133-3.221 6.0587-3.648 7.936-.17.768-.064 1.152.32 1.152Z"/></mask><path d="M60.7393 26.68c6.144-1.2373 10.9226-.4693 14.336 2.304 1.6213 1.3227 2.688 3.2427 3.2 5.76.5546 2.5173.2773 5.3333-.832 8.448-.4694 1.4507-1.28 2.5387-2.432 3.264-1.152.7253-2.3467 1.152-3.584 1.28-1.1947.0853-2.2827-.064-3.264-.448-.9814-.4267-1.5147-1.024-1.6-1.792l-.576-1.28c-1.024-1.536-2.7947-1.728-5.312-.576-2.176.9813-4.352 2.688-6.528 5.12-2.304 2.6027-3.7974 4.9493-4.48 7.04-.768 2.304-1.152 3.8187-1.152 4.544-.0854 1.6213.4906 3.072 1.728 4.352 1.792 1.152 3.584 1.6853 5.376 1.6 1.792-.128 3.392-.5333 4.8-1.216 1.408-.7253 2.56-1.536 3.456-2.432.896-.896 1.344-1.536 1.344-1.92l.384-.768c.128-.256.2346-.512.32-.768h.128c.256-.0427.32-.0427.192 0-.128 0-.064.0213.192.064l.384.128c-2.0907 1.8773-4.1174 2.2613-6.08 1.152-.768-.4693-1.4507-.96-2.048-1.472-.5974-.5547-1.152-.8107-1.664-.768-.9387-.512-1.152-1.5147-.64-3.008.2133-.5973.5973-1.152 1.152-1.664.5973-.5547 1.344-.9387 2.24-1.152 4.2666-1.8347 8.2133-2.2613 11.84-1.28 1.6213.4267 2.7306 1.3013 3.328 2.624.64 1.28.9173 2.7307.832 4.352-.0854 1.6213-.448 3.264-1.088 4.928-.5974 1.664-1.2587 3.008-1.984 4.032-.7254.9813-1.7494 2.1547-3.072 3.52-1.28 1.3653-2.9014 2.688-4.864 3.968-4.8214 3.1147-9.984 4.608-15.488 4.48-7.9787-.128-12.6934-3.392-14.144-9.792-.4694-2.048-.6827-4.352-.64-6.912.4266-7.424 2.6453-14.3573 6.656-20.8 1.92-3.072 4.5013-6.1013 7.744-9.088 2.048-1.8347 4.352-3.2427 6.912-4.224 1.3653-.5547 3.008-1.088 4.928-1.6Zm29.739 5.952c2.688-3.072 5.6746-4.992 8.96-5.76 2.2617-.5547 4.3947-.4693 6.3997.256 1.579-1.664 3.627-2.2613 6.144-1.792 2.304.4267 4.267 1.728 5.888 3.904.086.2987.256.7467.512 1.344.299.5973.576 1.2587.832 1.984 1.878 4.352 2.027 10.0693.448 17.152-1.962 8.7893-5.44 16.2347-10.432 22.336-1.536 1.8773-3.264 3.4347-5.184 4.672-3.072 2.3467-6.7411 3.392-11.0077 3.136-2.6454-.128-4.864-.7893-6.656-1.984-7.1254-3.5413-9.4507-10.9227-6.976-22.144 2.048-9.216 5.7386-16.9173 11.072-23.104Zm.768 33.984-.064.384.128.704c.256 1.3227.6826 2.3467 1.28 3.072.5973.6827 1.088 1.1093 1.472 1.28.4266-.3413.8533-.6613 1.28-.96.4266-.2987.8106-.6613 1.152-1.088 2.9013-3.584 5.1627-8.2773 6.7837-14.08 1.622-5.8027 2.219-11.1787 1.792-16.128-1.664 2.1333-3.413 4.5867-5.2477 7.36-1.8347 2.7733-3.2854 5.1413-4.352 7.104-2.432 4.5653-3.84 8.6827-4.224 12.352Zm41.3867-33.984c2.688-3.072 5.675-4.992 8.96-5.76 2.262-.5547 4.395-.4693 6.4.256 1.579-1.664 3.627-2.2613 6.144-1.792 2.304.4267 4.267 1.728 5.888 3.904.086.2987.256.7467.512 1.344.299.5973.576 1.2587.832 1.984 1.878 4.352 2.027 10.0693.448 17.152-1.962 8.7893-5.44 16.2347-10.432 22.336-1.536 1.8773-3.264 3.4347-5.184 4.672-3.072 2.3467-6.741 3.392-11.008 3.136-2.645-.128-4.864-.7893-6.656-1.984-7.125-3.5413-9.45-10.9227-6.976-22.144 2.048-9.216 5.739-16.9173 11.072-23.104Zm.768 33.984-.064.384.128.704c.256 1.3227.683 2.3467 1.28 3.072.598.6827 1.088 1.1093 1.472 1.28.427-.3413.854-.6613 1.28-.96.427-.2987.811-.6613 1.152-1.088 2.902-3.584 5.163-8.2773 6.784-14.08 1.622-5.8027 2.219-11.1787 1.792-16.128-1.664 2.1333-3.413 4.5867-5.248 7.36-1.834 2.7733-3.285 5.1413-4.352 7.104-2.432 4.5653-3.84 8.6827-4.224 12.352Zm53.803-39.936c6.144-1.2373 10.923-.4693 14.336 2.304 1.622 1.3227 2.688 3.2427 3.2 5.76.555 2.5173.278 5.3333-.832 8.448-.469 1.4507-1.28 2.5387-2.432 3.264-1.152.7253-2.346 1.152-3.584 1.28-1.194.0853-2.282-.064-3.264-.448-.981-.4267-1.514-1.024-1.6-1.792l-.576-1.28c-1.024-1.536-2.794-1.728-5.312-.576-2.176.9813-4.352 2.688-6.528 5.12-2.304 2.6027-3.797 4.9493-4.48 7.04-.768 2.304-1.152 3.8187-1.152 4.544-.085 1.6213.491 3.072 1.728 4.352 1.792 1.152 3.584 1.6853 5.376 1.6 1.792-.128 3.392-.5333 4.8-1.216 1.408-.7253 2.56-1.536 3.456-2.432.896-.896 1.344-1.536 1.344-1.92l.384-.768c.128-.256.235-.512.32-.768h.128c.256-.0427.32-.0427.192 0-.128 0-.064.0213.192.064l.384.128c-2.09 1.8773-4.117 2.2613-6.08 1.152-.768-.4693-1.45-.96-2.048-1.472-.597-.5547-1.152-.8107-1.664-.768-.938-.512-1.152-1.5147-.64-3.008.214-.5973.598-1.152 1.152-1.664.598-.5547 1.344-.9387 2.24-1.152 4.267-1.8347 8.214-2.2613 11.84-1.28 1.622.4267 2.731 1.3013 3.328 2.624.64 1.28.918 2.7307.832 4.352-.085 1.6213-.448 3.264-1.088 4.928-.597 1.664-1.258 3.008-1.984 4.032-.725.9813-1.749 2.1547-3.072 3.52-1.28 1.3653-2.901 2.688-4.864 3.968-4.821 3.1147-9.984 4.608-15.488 4.48-7.978-.128-12.693-3.392-14.144-9.792-.469-2.048-.682-4.352-.64-6.912.427-7.424 2.646-14.3573 6.656-20.8 1.92-3.072 4.502-6.1013 7.744-9.088 2.048-1.8347 4.352-3.2427 6.912-4.224 1.366-.5547 3.008-1.088 4.928-1.6Zm38.955 51.392c-.896.256-1.749.384-2.56.384-.81.0427-1.642.0853-2.496.128-.81.0427-1.941.064-3.392.064-1.45 0-3.626-.0427-6.528-.128-.682.0427-1.365.064-2.048.064-.682 0-1.322-.128-1.92-.384-1.322-.5547-2.218-1.8347-2.688-3.84-.213-.9387-.448-1.6-.704-1.984-.298-.384-.533-.7467-.704-1.088-.426-.6827-.384-1.8133.128-3.392.47-1.5787 1.088-3.52 1.856-5.824.768-2.3467 1.643-4.8213 2.624-7.424 2.304-6.1867 4.374-11.0933 6.208-14.72.726-1.6213 1.344-3.0293 1.856-4.224.555-1.1947 1.046-2.2187 1.472-3.072.427-.896.64-1.3653.64-1.408.427-1.6213 2.07-2.9867 4.928-4.096 2.774-1.152 5.291-1.4507 7.552-.896 2.518.64 3.627 2.304 3.328 4.992-.597 2.6453-1.493 5.2907-2.688 7.936-1.152 2.6453-2.474 5.4187-3.968 8.32-1.493 2.9013-3.114 5.9733-4.864 9.216-1.749 3.2427-3.477 6.7627-5.184 10.56-.042.1707.043.32.256.448.555-.0427 1.323-.2133 2.304-.512 1.024-.2987 2.07-.5547 3.136-.768 1.11-.256 2.198-.384 3.264-.384 1.067 0 1.963.2773 2.688.832-.042.768.15 1.3867.576 1.856.427.4267.854.8533 1.28 1.28 1.067 1.1093 1.152 2.5813.256 4.416-.853 1.792-2.389 3.008-4.608 3.648Zm23.411-11.136c2.475.256 4.31.384 5.504.384 1.238 0 3.094-.1707 5.568-.512.768.256 1.216.576 1.344.96.128.384.171.7893.128 1.216-.042.384-.021.768.064 1.152.086.384.491.704 1.216.96.384.128.491.512.32 1.152-.128.5973-.469 1.2587-1.024 1.984-1.408 1.8347-3.072 3.1147-4.992 3.84-3.072.768-5.482 1.216-7.232 1.344-2.901.2133-6.058.1067-9.472-.32-3.754-.6827-5.568-2.24-5.44-4.672 0-8.96 1.963-17.9627 5.888-27.008 1.28-2.944 2.731-6.0373 4.352-9.28.342-.6827.534-1.4507.576-2.304.086-.8533.15-1.6853.192-2.496.043-.8107.171-1.536.384-2.176.214-.64.662-1.088 1.344-1.344 8.875-3.5413 15.894-4.9067 21.056-4.096 1.792.0427 2.966.6613 3.52 1.856.598 1.152.662 2.4533.192 3.904-.426 1.4507-1.301 2.816-2.624 4.096-1.28 1.28-2.901 2.0693-4.864 2.368-2.517.7253-4.053 1.216-4.608 1.472-1.066.512-1.834 1.1947-2.304 2.048-.597.9387-1.152 1.8347-1.664 2.688-.512.8533-.874 1.7707-1.088 2.752l-.256 1.408c.811.384 1.792.512 2.944.384 1.195-.1707 2.283-.32 3.264-.448 1.024-.1707 1.835-.192 2.432-.064.64.128.768.768.384 1.92-.341 1.1093-1.002 2.368-1.984 3.776-.938 1.408-2.282 2.432-4.032 3.072-1.109.2133-1.877.384-2.304.512-.384.0853-.682.1493-.896.192-.298.0427-1.152.1067-2.56.192-2.005 3.4133-3.221 6.0587-3.648 7.936-.17.768-.064 1.152.32 1.152Z" fill="#F3F3F3"/><path d="m60.7393 26.68-1.9743-9.8032-.3034.0611-.299.0797 2.5767 9.6624Zm14.336 2.304 6.3212-7.7487-.0076-.0062-.0077-.0062-6.3059 7.7611Zm3.2 5.76-9.7994 1.9931.0162.0795.0174.0792 9.7658-2.1518Zm-.832 8.448-9.4204-3.3552-.0491.1378-.045.1392 9.5145 3.0782Zm-2.432 3.264-5.3282-8.4623 5.3282 8.4623Zm-3.584 1.28.7124 9.9746.1585-.0113.158-.0164-1.0289-9.9469Zm-3.264-.448-3.9873 9.1707.1703.0741.173.0676 3.644-9.3124Zm-1.6-1.792 9.9388-1.1043-.1738-1.5642-.6458-1.4351-9.1192 4.1036Zm-.576-1.28 9.1192-4.1036-.3397-.7548-.459-.6886-8.3205 5.547Zm-5.312-.576 4.111 9.1159.0251-.0114.0251-.0114-4.1612-9.0931Zm-6.528 5.12-7.4525-6.668-.0176.0198-.0176.0198 7.4877 6.6284Zm-4.48 7.04 9.4868 3.1623.0097-.0291.0095-.0292-9.506-3.104Zm-1.152 4.544 9.9861.5256.0139-.2626v-.263h-10Zm1.728 4.352-7.1899 6.9502.8063.8342.976.6274 5.4076-8.4118Zm5.376 1.6.4756 9.9887.1185-.0057.1183-.0084-.7124-9.9746Zm4.8-1.216 4.3627 8.9981.1091-.0528.1077-.0556-4.5795-8.8897Zm3.456-2.432 7.071 7.0711-7.071-7.0711Zm1.344-1.92-8.9443-4.4722-1.0557 2.1115v2.3607h10Zm.704-1.536 9.4868 3.1623 4.3874-13.1623H65.9233v10Zm.128 0v10h.8276l.8163-.1361-1.6439-9.8639Zm.192 0v10h1.6227l1.5395-.5132-3.1622-9.4868Zm.192.064 3.1622-9.4868-.7443-.2482-.774-.1289-1.6439 9.8639Zm.384.128 6.6812 7.4405 12.795-11.4894-16.314-5.4379-3.1622 9.4868Zm-6.08 1.152-5.2145 8.5328.1454.0889.1485.0839 4.9206-8.7056Zm-2.048-1.472-6.8046 7.3279.1457.1353.1509.1294 6.508-7.5926Zm-1.664-.768-4.7886 8.779 2.6317 1.4354 2.9873-.2489-.8304-9.9655Zm-.64-3.008-9.4175-3.3634-.0214.06-.0206.0602 9.4595 3.2432Zm1.152-1.664 6.7828 7.348.0108-.01.0109-.0101-6.8045-7.3279Zm2.24-1.152 2.3162 9.7281.8404-.2001.7936-.3413-3.9502-9.1867Zm11.84-1.28-2.612 9.6529.0335.009.0335.0088 2.545-9.6707Zm3.328 2.624-9.1138 4.1159.0813.1798.0882.1764 8.9443-4.4721Zm.832 4.352 9.9861.5256-9.9861-.5256Zm-1.088 4.928-9.3335-3.5898-.0404.1051-.0381.1061 9.412 3.3786Zm-1.984 4.032 8.0417 5.9439.0601-.0813.0584-.0824-8.1602-5.7802Zm-3.072 3.52-7.1824-6.958-.057.0589-.056.0597 7.2954 6.8394Zm-4.864 3.968 5.4263 8.3997.0182-.0118.0181-.0118-5.4626-8.3761Zm-15.488 4.48.2324-9.9973-.036-.0008-.036-.0006-.1604 9.9987Zm-14.144-9.792 9.7526-2.2106-.0027-.0116-.0026-.0116-9.7473 2.2338Zm-.64-6.912-9.9836-.5738-.0117.2034-.0034.2038 9.9987.1666Zm6.656-20.8-8.48-5.3-.0048.0076-.0047.0076 8.4895 5.2848Zm7.744-9.088-6.6725-7.4484-.0515.0461-.0508.0468 6.7748 7.3555Zm6.912-4.224 3.5793 9.3375.0926-.0355.0918-.0373-3.7637-9.2647Zm6.9022 8.2032c4.5116-.9086 5.8191.0696 6.0558.2619l12.6119-15.5222c-6.5899-5.3543-14.8398-5.9122-22.6162-4.3461l3.9485 19.6064Zm6.0405.2494c-.1003-.0818-.1905-.1721-.2655-.2627-.0745-.0898-.1185-.161-.1388-.1975-.0397-.0715.0405.0432.1262.4647l19.5987-3.9862c-.864-4.248-2.8881-8.4237-6.6781-11.5156L68.754 36.7326Zm-.2445.1632c.0516.2342.169 1.1004-.4866 2.941l18.8407 6.7104c1.5631-4.3887 2.2351-9.1545 1.1774-13.955l-19.5315 4.3036Zm-.5807 3.218c.0609-.1882.2119-.5581.5356-.9926.3332-.4472.7558-.8361 1.2187-1.1275l10.6563 16.9246c3.3747-2.1248 5.5197-5.2525 6.6183-8.6481l-19.0289-6.1564Zm1.7543-2.1201c-.0027.0017.0662-.0416.2048-.0911.1418-.0507.3168-.0935.5104-.1135l2.0579 19.8938c2.9055-.3005 5.5559-1.2992 7.8832-2.7646L69.6831 37.9937Zm1.0317-.2323c.0855-.0061.511-.0133 1.0924.2142l-7.2879 18.6248c2.544.9955 5.1456 1.287 7.6204 1.1102l-1.4249-19.9492Zm1.4357.3559c.4111.1787 1.3742.6652 2.3361 1.7425 1.0633 1.1909 1.8201 2.7729 2.0155 4.5319l-19.8777 2.2086c.6266 5.6392 4.7055 8.621 7.5516 9.8584l7.9745-18.3414Zm3.532 3.2751-.576-1.28-18.2385 8.2072.576 1.28 18.2385-8.2072Zm-1.3747-2.7234c-2.0868-3.1301-5.3856-5.2621-9.3385-5.6907-3.4073-.3695-6.3897.6233-8.4553 1.5686l8.3225 18.1862c.4517-.2067-.3867.3061-2.0233.1286-.9139-.0991-1.9691-.4072-2.993-1.0403-1.0146-.6273-1.712-1.3962-2.1534-2.0584l16.641-11.094Zm-17.7436-4.1449c-3.8245 1.7248-7.0839 4.4548-9.8694 7.5679l14.9049 13.336c1.5666-1.7509 2.6591-2.4342 3.1866-2.6721l-8.2221-18.2318Zm-9.9046 7.6075c-2.7429 3.0985-5.2162 6.6378-6.4984 10.5644l19.0121 6.208c.0832-.2547.5965-1.4087 2.4616-3.5156L46.6596 42.1316Zm-6.4792 10.5061c-.4241 1.2725-.795 2.4822-1.0705 3.5688-.2175.8578-.5946 2.4453-.5946 4.1375h20c0 .3346-.0213.5869-.0357.7259-.0152.1459-.0308.2407-.0361.2717-.0091.0531-.0005-.0086.0531-.2201.1085-.428.3136-1.1277.6575-2.1592l-18.9737-6.3246Zm-1.6513 7.1807c-.2462 4.6776 1.5648 8.7663 4.5243 11.8278l14.3797-13.9004c.1622.1677.4874.5649.7443 1.2119.2652.6678.354 1.3431.324 1.9119l-19.9723-1.0512Zm6.3066 13.2894c3.205 2.0604 7.0233 3.3786 11.2592 3.1769l-.9513-19.9774c.1286-.0061.2547-.0007.372.0139.1166.0146.2075.0362.2682.0543.1222.0363.079.045-.133-.0913L44.8357 73.1078Zm11.496 3.1628c2.8739-.2053 5.7421-.8794 8.4503-2.1925l-8.7255-17.9962c-.1078.0523-.4396.1888-1.1497.2395l1.4249 19.9492Zm8.6671-2.3009c2.108-1.0859 4.1638-2.4669 5.9475-4.2506L56.8042 55.5769c.0001-.0001-.0623.0621-.2199.173-.1582.1114-.399.2623-.7446.4404l9.1591 17.7794Zm5.9475-4.2506c.6401-.6402 1.4307-1.4905 2.1293-2.4885.3984-.5692 2.1437-3.0191 2.1437-6.5026h-20c0-1.7627.4887-3.0649.7544-3.6722.2905-.6639.5872-1.1086.7172-1.2944.2506-.358.3692-.4403.1133-.1845l14.1421 14.1422Zm3.2172-4.5189c.128-.2561.256-.5121.384-.7681L56.659 55.4879c-.128.256-.256.512-.384.7679l17.8885 8.9444Zm.384-.7681c.327-.6538.6189-1.3468.8626-2.0778l-18.9737-6.3246c.073-.219.1517-.4.2226-.5418l17.8885 8.9442ZM65.9233 49.192H65.8209v20H66.0513v-20H65.8209v20H65.9233v-20Zm1.7719 19.8639s-.013.0022-.0364.0058c-.0216.0033-.0671.0102-.1299.0186-.0559.0074-.1712.0222-.3226.0367-.1038.0098-.4562.043-.915.043-.2143 0-.6997-.0056-1.3119-.0872-.2014-.0269-2.185-.2335-4.2202-1.5904-1.203-.802-3.146-2.4978-4.0304-5.4461-.9227-3.0761-.1682-5.7397.634-7.3441 1.2647-2.5293 3.2569-3.7536 3.3935-3.8447.9312-.6208 1.7698-.9374 1.8121-.9543.2432-.0973.4338-.1618.5126-.188l6.3245 18.9736c.1108-.0369.3274-.1107.5906-.216.0623-.0249.9149-.3481 1.8541-.9743.1406-.0937 2.1353-1.3204 3.401-3.8517.8027-1.6054 1.5573-4.27.6343-7.3469-.8846-2.9491-2.8282-4.6457-4.0321-5.4483-2.0373-1.3582-4.0244-1.5659-4.2307-1.5934-.6173-.0823-1.1092-.0882-1.3314-.0882-.7584 0-1.3894.0935-1.4057.0957-.1921.0256-.363.0531-.4783.0724l3.2879 19.7278ZM66.2433 49.192c-.1242 0-.3827.0017-.7042.0231-.0165.0011-1.1756.0466-2.5182.4941-.4152.1384-1.1496.4116-1.9851.913-.7608.4565-2.2688 1.4936-3.4313 3.4313-1.3667 2.2778-1.8084 5.0803-1.0728 7.7775.6285 2.3042 1.9041 3.7677 2.5776 4.4412 1.2803 1.2803 2.5959 1.8766 2.8474 1.9939.4798.2239.8771.3623 1.0763.4287.6688.223 1.247.3314 1.2851.339.188.0376.357.0668.4732.0861l3.2879-19.7278c.0002 0 .0129.0021.0357.0062.0212.0038.0652.0118.1255.0239.0543.0108.163.0332.3041.0667.1027.0245.4161.1.813.2323.1913.0637.582.1996 1.0568.4212.2465.115 1.5586.7091 2.8369 1.9874.6725.6725 1.9475 2.1351 2.5757 4.4383.7354 2.6963.2938 5.4979-1.0723 7.7749-1.1621 1.9369-2.6692 2.9732-3.4287 3.4289-.8343.5006-1.5671.7732-1.9803.9109-.8201.2734-1.4898.3752-1.7399.4109-.3236.0463-.5848.0671-.7363.0772-.3015.0201-.534.0211-.6261.0211v-20ZM63.273 68.7428l.384.128 6.3245-18.9736-.384-.128-6.3245 18.9736Zm-3.135-16.7993c-.1609.1445.4138-.439 1.7316-.6887 1.5304-.29 2.9195.0834 3.7902.5756l-9.8411 17.4112c2.8334 1.6015 6.2171 2.3376 9.7742 1.6636 3.3445-.6337 5.9778-2.3478 7.9076-4.0807L60.138 51.9435Zm5.8158.0597c-.3761-.2298-.6155-.4125-.7546-.5318L52.1833 66.6566c1.0556.9047 2.1815 1.7033 3.3415 2.4122l10.429-17.0656Zm-.458-.2671c-1.4739-1.3686-4.701-3.7887-9.299-3.4056l1.6609 19.931c-3.574.2978-5.6918-1.6103-5.971-1.8696l13.6091-14.6558Zm-3.68-2.2191c.8491.4632 1.794 1.1857 2.6029 2.2493.8164 1.0734 1.2962 2.2345 1.5256 3.3126.4213 1.9801-.0578 3.3363-.0976 3.4523l-18.9189-6.4864c-.5518 1.6093-1.1802 4.2135-.5456 7.1963.7432 3.4929 2.9516 6.2493 5.8565 7.8339l9.5771-17.558Zm3.9889 9.1344c-.4244 1.1882-1.0748 1.9441-1.4826 2.3206L50.7564 46.276c-1.5171 1.4005-2.9355 3.2657-3.7866 5.6486l18.8349 6.7268Zm-1.4609 2.3005c-.824.7651-1.6881 1.1148-2.2483 1.2482L57.463 42.7439c-2.3522.5601-4.7097 1.6778-6.7282 3.5522l13.609 14.6558Zm-.6143.7068c2.6965-1.1595 4.3031-1.0776 5.2778-.8138l5.2239-19.3058c-6.2786-1.6989-12.5653-.7637-18.4022 1.7462l7.9005 18.3734Zm5.3448-.796c-.2727-.0717-.8934-.286-1.5986-.842-.7402-.5837-1.2993-1.3297-1.6422-2.0888l18.2275-8.2318c-2.0389-4.5145-5.868-7.1186-9.8968-8.1788l-5.0899 19.3414Zm-3.0713-2.5746c-.1033-.2064-.1618-.3998-.1899-.5463-.0268-.1402-.0156-.184-.02-.0994l19.9723 1.0512c.1639-3.1131-.3607-6.3233-1.8739-9.3497L66.003 58.2881Zm-.2099-.6457c-.025.4744-.1357 1.085-.4353 1.8638l18.6669 7.1796c.9805-2.5492 1.595-5.2239 1.7407-7.9922l-19.9723-1.0512Zm-.5138 2.075c-.1937.5395-.3661.938-.5046 1.2195-.0683.1387-.124.2403-.1648.3099-.0408.0698-.0629.101-.0629.101l16.3205 11.5604c1.4146-1.9971 2.4464-4.2347 3.2357-6.4336l-18.8239-6.7572Zm-.6138 1.4667c-.3589.4856-1.0488 1.3046-2.2126 2.5059l14.3648 13.916c1.4815-1.5294 2.8396-3.057 3.9313-4.5341L64.6655 61.1841Zm-2.3256 2.6245c-.6159.657-1.5787 1.484-3.0313 2.4313l10.9253 16.7522c2.4728-1.6127 4.7526-3.431 6.6967-5.5047L62.3399 63.8086Zm-2.995 2.4077c-3.2137 2.0761-6.4174 2.9617-9.8292 2.8824l-.4649 19.9946c7.5962.1767 14.7178-1.9244 21.1468-6.0776L59.3449 66.2163Zm-9.9012 2.881c-2.7586-.0443-3.7807-.6235-3.9883-.7672-.0866-.0599-.1301-.1054-.1857-.1925-.0678-.1064-.2336-.4078-.3778-1.0442l-19.5053 4.4212c1.1931 5.2634 3.9712 9.9962 8.6846 13.2593 4.507 3.1203 9.8315 4.2371 15.0516 4.3208l.3209-19.9974Zm-4.5571-2.0271c-.2548-1.1118-.4208-2.5901-.3887-4.5116l-19.9973-.3332c-.0533 3.1985.2075 6.3282.8913 9.3124l19.4947-4.4676Zm-.4038-4.1044c.3286-5.718 2.0166-11.0365 5.1619-16.089L32.6658 36.3072c-4.8761 7.8328-7.6254 16.381-8.1501 25.511l19.9671 1.1476Zm5.1524-16.0738c1.3567-2.1706 3.3171-4.5257 6.0388-7.0326L42.1245 25.1485c-3.7636 3.4665-6.9659 7.1701-9.4492 11.1435l16.9599 10.6Zm5.9365-6.9396c1.1434-1.0243 2.3998-1.7909 3.8189-2.3349l-7.1587-18.675c-3.7009 1.4187-7.0525 3.468-10.0051 6.1131l13.3449 14.8968Zm4.0033-2.4077c.8717-.3542 2.0955-.7636 3.7409-1.2024l-5.1533-19.3247c-2.1946.5853-4.2561 1.2425-6.1151 1.9977l7.5275 18.5294Zm30.9033-4.9127-7.5258-6.5851-.0243.0278-.024.0279 7.5741 6.5294Zm8.96-5.76 2.2767 9.7375.053-.0124.052-.013-2.3817-9.7121Zm6.3997.256-3.401 9.4038 6.153 2.2254 4.503-4.7466-7.255-6.8826Zm6.144-1.792-1.833 9.8306.012.0022 1.821-9.8328Zm5.888 3.904 9.616-2.7472-.503-1.7599-1.094-1.4677-8.019 5.9748Zm.512 1.344-9.191 3.9392.116.2701.131.2628 8.944-4.4721Zm.832 1.984-9.43 3.3282.113.3206.135.3121 9.182-3.9609Zm.448 17.152 9.76 2.1793.001-.0038-9.761-2.1755ZM109.23 72.056l7.74 6.3324-7.74-6.3324Zm-5.184 4.672-5.4168-8.4057-.3358.2164-.3176.2426 6.0702 7.9467Zm-11.0077 3.136.5989-9.982-.0578-.0035-.0578-.0028-.4833 9.9883Zm-6.656-1.984 5.547-8.3205-.5281-.352-.5683-.2825-4.4506 8.955Zm-6.976-22.144-9.7619-2.1693-.0018.0079-.0017.0078 9.7654 2.1536Zm11.84 10.88 9.8637 1.644.05-.3004.032-.3028-9.9457-1.0408Zm-.064.384-9.864-1.644-.2864 1.7186.3117 1.7142L91.1823 67Zm.128.704-9.8387 1.7888.0101.0558.0108.0556 9.8178-1.9002Zm1.28 3.072-7.7194 6.3571.0951.1154.0985.1125 7.5258-6.585Zm1.472 1.28-4.0614 9.1381 5.5585 2.4705 4.7496-3.7999-6.2467-7.8087Zm1.28-.96-5.7347-8.1923 5.7347 8.1923Zm1.152-1.088-7.7725-6.292-.0182.0225-.018.0225 7.8087 6.247Zm6.7837-14.08 9.631 2.691-9.631-2.691ZM105.07 39.8l9.963-.8589-2.187-25.3697-15.6608 20.0783L105.07 39.8Zm-5.2477 7.36-8.3402-5.5174 8.3402 5.5174Zm-4.352 7.104-8.7863-4.7751-.0199.0366-.0197.0369 8.8259 4.7016Zm2.5337-15.047c1.6058-1.8351 2.858-2.4083 3.711-2.6075l-4.553-19.475c-5.7184 1.3368-10.4393 4.6036-14.2095 8.9124L98.004 39.217Zm3.816-2.6329c.303-.0743.464-.0741.515-.0721.043.0017.065.0064.102.0198l6.803-18.8076c-4.031-1.4579-8.19-1.5439-12.184-.5643l4.764 19.4242Zm11.273-2.5735c-.334.3522-.932.7873-1.735 1.0214-.753.2198-1.232.1302-1.209.1346l3.666-19.6612c-5.392-1.0053-11.016.2962-15.2314 4.74l14.5094 13.7652Zm-2.932 1.1582c-.073-.0136-.167-.039-.269-.0801-.101-.0411-.181-.0862-.236-.1223-.113-.0752-.03-.0538.195.2484l16.038-11.9496c-2.873-3.8554-6.914-6.8043-12.086-7.762l-3.642 19.6656Zm-1.906-3.1816c.269.9413.652 1.8741.936 2.536l18.383-7.8784c-.045-.1039-.081-.19-.109-.2598-.029-.0703-.048-.1178-.058-.145-.011-.0284-.008-.0237.003.0088.006.0171.015.0457.028.0844.012.0384.028.0923.048.1596l-19.231 5.4944Zm1.183 3.0689c.088.1759.208.4485.346.8401l18.86-6.6564c-.374-1.0591-.808-2.1091-1.317-3.1279l-17.889 8.9442Zm.594 1.4728c.706 1.6372 1.219 4.9634-.13 11.0156l19.521 4.351c1.808-8.1132 2.022-16.2216-1.027-23.2884l-18.364 7.9218Zm-.129 11.0118c-1.672 7.4842-4.541 13.4511-8.412 18.1829l15.479 12.6648c6.112-7.4708 10.198-16.3947 12.452-26.4891l-19.519-4.3586Zm-8.412 18.1829c-.916 1.1194-1.8723 1.9611-2.8618 2.5987l10.8338 16.8114c2.851-1.837 5.351-4.1101 7.507-6.7453l-15.479-12.6648Zm-3.5152 3.0577c-.9593.7328-2.1955 1.2292-4.3386 1.1007l-1.1979 19.964c6.3902.3835 12.4927-1.2108 17.6777-5.1713L97.9758 68.7813Zm-4.4542 1.0944c-.6311-.0305-1.0386-.1166-1.2748-.187-.226-.0674-.3102-.1243-.3175-.1292l-11.0941 16.641c3.6089 2.4059 7.6805 3.4564 11.7197 3.6518l.9667-19.9766Zm-2.6887-.9507c-1.2059-.5993-1.6803-1.2244-2.0007-2.2417-.4418-1.4022-.6907-4.1226.3394-8.7937l-19.5307-4.3072c-1.4445 6.5502-1.7682 13.1312.1154 19.1103 2.0049 6.3641 6.2559 11.2003 12.1753 14.1423l8.9013-17.91Zm-1.6648-11.0197c1.746-7.857 4.7862-13.9901 8.8843-18.7439L82.9042 26.1026c-6.5686 7.6196-10.9098 16.8891-13.2598 27.4641l19.5237 4.3386Zm-7.7858 7.0667-.064.384 19.7277 3.288.064-.384-19.7277-3.288Zm-.0387 3.8168.128.704 19.6774-3.5776-.128-.704-19.6774 3.5776Zm.1489.8154c.444 2.2945 1.3604 5.0784 3.3784 7.5289L100.31 64.4189c.426.5179.645.9632.743 1.1989.096.2315.1.3169.075.186l-19.6355 3.8004Zm3.572 7.7568c.6962.7957 2.4049 2.708 4.9364 3.8331l8.1227-18.2762c.576.256 1.0033.5218 1.2703.7041.274.1872.4667.3465.5741.4399.202.1753.255.251.148.1291l-15.0515 13.17Zm15.2445 2.5037c.268-.2145.524-.4059.768-.5764L89.6076 62.9037c-.6098.4268-1.2071.8754-1.7923 1.3436l12.4937 15.6174Zm.768-.5764c1.245-.8713 2.319-1.8994 3.226-3.0333L88.6856 63.761c.2245-.2806.5307-.5834.922-.8573l11.4694 16.3846Zm3.19-2.9883c3.98-4.9165 6.761-10.9482 8.642-17.681l-19.2619-5.382c-1.3614 4.8725-3.1026 8.2275-4.9253 10.479L104.267 76.3Zm8.642-17.681c1.878-6.7182 2.673-13.311 2.124-19.6779l-19.9258 1.7178c.3045 3.5318-.0945 7.691-1.4601 12.5781l19.2619 5.382ZM97.1852 33.6497c-1.8551 2.3783-3.7561 5.0497-5.7031 7.9929l16.6799 11.0348c1.723-2.6035 3.32-4.8387 4.793-6.7271L97.1852 33.6497Zm-5.7031 7.9929c-1.9252 2.9102-3.5446 5.5399-4.7981 7.8463l17.572 9.5502c.88-1.6189 2.162-3.7253 3.906-6.3617L91.4821 41.6426Zm-4.8377 7.9198c-2.8117 5.2782-4.7835 10.6585-5.3438 16.0128l19.8914 2.0816c.208-1.9844 1.052-4.8387 3.104-8.6912l-17.6516-9.4032ZM132.633 32.632l-7.526-6.5851-.024.0278-.024.0279 7.574 6.5294Zm8.96-5.76 2.277 9.7375.053-.0124.052-.013-2.382-9.7121Zm6.4.256-3.401 9.4038 6.153 2.2254 4.503-4.7466-7.255-6.8826Zm6.144-1.792-1.833 9.8306.012.0022 1.821-9.8328Zm5.888 3.904 9.616-2.7472-.503-1.7599-1.094-1.4677-8.019 5.9748Zm.512 1.344-9.191 3.9392.116.2701.131.2628 8.944-4.4721Zm.832 1.984-9.43 3.3282.113.3206.135.3121 9.182-3.9609Zm.448 17.152 9.76 2.1793.001-.0038-9.761-2.1755Zm-10.432 22.336 7.74 6.3324-7.74-6.3324Zm-5.184 4.672-5.417-8.4057-.336.2164-.317.2426 6.07 7.9467Zm-11.008 3.136.599-9.982-.058-.0035-.057-.0028-.484 9.9883Zm-6.656-1.984 5.547-8.3205-.528-.352-.568-.2825-4.451 8.955Zm-6.976-22.144-9.762-2.1693-.001.0079-.002.0078 9.765 2.1536Zm11.84 10.88 9.864 1.644.05-.3004.032-.3028-9.946-1.0408Zm-.064.384-9.864-1.644-.286 1.7186.312 1.7142L133.337 67Zm.128.704-9.838 1.7888.01.0558.01.0556 9.818-1.9002Zm1.28 3.072-7.719 6.3571.095.1154.098.1125 7.526-6.585Zm1.472 1.28-4.061 9.1381 5.558 2.4705 4.75-3.7999-6.247-7.8087Zm1.28-.96-5.734-8.1923 5.734 8.1923Zm1.152-1.088-7.772-6.292-.018.0225-.018.0225 7.808 6.247Zm6.784-14.08 9.631 2.691-9.631-2.691Zm1.792-16.128 9.963-.8589-2.187-25.3697-15.661 20.0783 7.885 6.1503Zm-5.248 7.36-8.34-5.5174 8.34 5.5174Zm-4.352 7.104-8.786-4.7751-.02.0366-.02.0369 8.826 4.7016Zm2.534-15.047c1.606-1.8351 2.858-2.4083 3.711-2.6075l-4.553-19.475c-5.718 1.3368-10.439 4.6036-14.21 8.9124l15.052 13.1701Zm3.816-2.6329c.303-.0743.464-.0741.515-.0721.043.0017.065.0064.102.0198l6.803-18.8076c-4.031-1.4579-8.19-1.5439-12.184-.5643l4.764 19.4242Zm11.273-2.5735c-.334.3522-.932.7873-1.735 1.0214-.753.2198-1.232.1302-1.209.1346l3.666-19.6612c-5.392-1.0053-11.016.2962-15.231 4.74l14.509 13.7652Zm-2.932 1.1582c-.073-.0136-.167-.039-.269-.0801-.101-.0411-.181-.0862-.236-.1223-.113-.0752-.03-.0538.195.2484l16.038-11.9496c-2.873-3.8554-6.914-6.8043-12.086-7.762l-3.642 19.6656Zm-1.906-3.1816c.269.9413.652 1.8741.936 2.536l18.383-7.8784c-.045-.1039-.081-.19-.109-.2598-.029-.0703-.048-.1178-.058-.145-.011-.0284-.008-.0237.003.0088.006.0171.015.0457.028.0844.012.0384.028.0923.048.1596l-19.231 5.4944Zm1.183 3.0689c.088.1759.208.4485.346.8401l18.86-6.6564c-.374-1.0591-.808-2.1091-1.317-3.1279l-17.889 8.9442Zm.594 1.4728c.706 1.6372 1.219 4.9634-.13 11.0156l19.521 4.351c1.808-8.1132 2.022-16.2216-1.027-23.2884l-18.364 7.9218Zm-.129 11.0118c-1.672 7.4842-4.541 13.4511-8.412 18.1829l15.479 12.6648c6.112-7.4708 10.198-16.3947 12.452-26.4891l-19.519-4.3586Zm-8.412 18.1829c-.916 1.1194-1.872 1.9611-2.862 2.5987l10.834 16.8114c2.851-1.837 5.351-4.1101 7.507-6.7453l-15.479-12.6648Zm-3.515 3.0577c-.959.7328-2.196 1.2292-4.339 1.1007l-1.198 19.964c6.391.3835 12.493-1.2108 17.678-5.1713l-12.141-15.8934Zm-4.454 1.0944c-.631-.0305-1.039-.1166-1.275-.187-.226-.0674-.31-.1243-.318-.1292l-11.094 16.641c3.609 2.4059 7.681 3.4564 11.72 3.6518l.967-19.9766Zm-2.689-.9507c-1.206-.5993-1.68-1.2244-2.001-2.2417-.442-1.4022-.691-4.1226.34-8.7937l-19.531-4.3072c-1.445 6.5502-1.768 13.1312.115 19.1103 2.005 6.3641 6.256 11.2003 12.176 14.1423l8.901-17.91Zm-1.665-11.0197c1.746-7.857 4.786-13.9901 8.884-18.7439l-15.148-13.0588c-6.568 7.6196-10.91 16.8891-13.26 27.4641l19.524 4.3386Zm-7.786 7.0667-.064.384 19.728 3.288.064-.384-19.728-3.288Zm-.038 3.8168.128.704 19.677-3.5776-.128-.704-19.677 3.5776Zm.148.8154c.445 2.2945 1.361 5.0784 3.379 7.5289l15.439-12.7142c.426.5179.645.9632.743 1.1989.096.2315.1.3169.075.186l-19.636 3.8004Zm3.572 7.7568c.697.7957 2.405 2.708 4.937 3.8331l8.123-18.2762c.576.256 1.003.5218 1.27.7041.274.1872.467.3465.574.4399.202.1753.255.251.148.1291l-15.052 13.17Zm15.245 2.5037c.268-.2145.524-.4059.768-.5764l-11.469-16.3846c-.61.4268-1.207.8754-1.793 1.3436l12.494 15.6174Zm.768-.5764c1.245-.8713 2.319-1.8994 3.226-3.0333l-15.617-12.494c.224-.2806.53-.5834.922-.8573l11.469 16.3846Zm3.19-2.9883c3.98-4.9165 6.761-10.9482 8.642-17.681l-19.262-5.382c-1.361 4.8725-3.103 8.2275-4.925 10.479L146.422 76.3Zm8.642-17.681c1.878-6.7182 2.673-13.311 2.124-19.6779l-19.926 1.7178c.305 3.5318-.094 7.691-1.46 12.5781l19.262 5.382ZM139.34 33.6497c-1.855 2.3783-3.756 5.0497-5.703 7.9929l16.68 11.0348c1.723-2.6035 3.32-4.8387 4.793-6.7271l-15.77-12.3006Zm-5.703 7.9929c-1.925 2.9102-3.545 5.5399-4.798 7.8463l17.572 9.5502c.88-1.6189 2.162-3.7253 3.906-6.3617l-16.68-11.0348Zm-4.838 7.9198c-2.811 5.2782-4.783 10.6585-5.343 16.0128l19.891 2.0816c.208-1.9844 1.052-4.8387 3.104-8.6912l-17.652-9.4032ZM187.204 26.68l-1.974-9.8032-.303.0611-.299.0797 2.576 9.6624Zm14.336 2.304 6.322-7.7487-.008-.0062-.008-.0062-6.306 7.7611Zm3.2 5.76-9.799 1.9931.016.0795.018.0792 9.765-2.1518Zm-.832 8.448-9.42-3.3552-.049.1378-.045.1392 9.514 3.0782Zm-2.432 3.264-5.328-8.4623 5.328 8.4623Zm-3.584 1.28.713 9.9746.158-.0113.158-.0164-1.029-9.9469Zm-3.264-.448-3.987 9.1707.17.0741.173.0676 3.644-9.3124Zm-1.6-1.792 9.939-1.1043-.174-1.5642-.646-1.4351-9.119 4.1036Zm-.576-1.28 9.119-4.1036-.339-.7548-.459-.6886-8.321 5.547Zm-5.312-.576 4.111 9.1159.025-.0114.025-.0114-4.161-9.0931Zm-6.528 5.12-7.452-6.668-.018.0198-.017.0198 7.487 6.6284Zm-4.48 7.04 9.487 3.1623.01-.0291.009-.0292-9.506-3.104Zm-1.152 4.544 9.986.5256.014-.2626v-.263h-10Zm1.728 4.352-7.19 6.9502.807.8342.976.6274 5.407-8.4118Zm5.376 1.6.476 9.9887.118-.0057.119-.0084-.713-9.9746Zm4.8-1.216 4.363 8.9981.109-.0528.108-.0556-4.58-8.8897Zm3.456-2.432 7.071 7.0711-7.071-7.0711Zm1.344-1.92-8.944-4.4722-1.056 2.1115v2.3607h10Zm.704-1.536 9.487 3.1623 4.388-13.1623h-13.875v10Zm.128 0v10h.828l.816-.1361-1.644-9.8639Zm.192 0v10h1.623l1.54-.5132-3.163-9.4868Zm.192.064 3.163-9.4868-.745-.2482-.774-.1289-1.644 9.8639Zm.384.128 6.682 7.4405 12.794-11.4894-16.313-5.4379-3.163 9.4868Zm-6.08 1.152-5.214 8.5328.145.0889.149.0839 4.92-8.7056Zm-2.048-1.472-6.804 7.3279.145.1353.151.1294 6.508-7.5926Zm-1.664-.768-4.788 8.779 2.631 1.4354 2.988-.2489-.831-9.9655Zm-.64-3.008-9.417-3.3634-.022.06-.02.0602 9.459 3.2432Zm1.152-1.664 6.783 7.348.011-.01.011-.0101-6.805-7.3279Zm2.24-1.152 2.316 9.7281.841-.2001.794-.3413-3.951-9.1867Zm11.84-1.28-2.612 9.6529.034.009.033.0088 2.545-9.6707Zm3.328 2.624-9.113 4.1159.081.1798.088.1764 8.944-4.4721Zm.832 4.352 9.986.5256-9.986-.5256Zm-1.088 4.928-9.333-3.5898-.041.1051-.038.1061 9.412 3.3786Zm-1.984 4.032 8.042 5.9439.06-.0813.059-.0824-8.161-5.7802Zm-3.072 3.52-7.182-6.958-.057.0589-.056.0597 7.295 6.8394Zm-4.864 3.968 5.427 8.3997.018-.0118.018-.0118-5.463-8.3761Zm-15.488 4.48.233-9.9973-.036-.0008-.036-.0006-.161 9.9987Zm-14.144-9.792 9.753-2.2106-.003-.0116-.002-.0116-9.748 2.2338Zm-.64-6.912-9.983-.5738-.012.2034-.003.2038 9.998.1666Zm6.656-20.8-8.48-5.3-.004.0076-.005.0076 8.489 5.2848Zm7.744-9.088-6.672-7.4484-.052.0461-.051.0468 6.775 7.3555Zm6.912-4.224 3.58 9.3375.092-.0355.092-.0373-3.764-9.2647Zm6.903 8.2032c4.511-.9086 5.819.0696 6.055.2619l12.612-15.5222c-6.59-5.3543-14.84-5.9122-22.616-4.3461l3.949 19.6064Zm6.04.2494c-.1-.0818-.19-.1721-.266-.2627-.074-.0898-.118-.161-.138-.1975-.04-.0715.04.0432.126.4647l19.599-3.9862c-.864-4.248-2.888-8.4237-6.678-11.5156l-12.643 15.4973Zm-.244.1632c.051.2342.168 1.1004-.487 2.941l18.841 6.7104c1.563-4.3887 2.235-9.1545 1.177-13.955l-19.531 4.3036Zm-.581 3.218c.061-.1882.212-.5581.535-.9926.334-.4472.756-.8361 1.219-1.1275l10.656 16.9246c3.375-2.1248 5.52-5.2525 6.619-8.6481l-19.029-6.1564Zm1.754-2.1201c-.003.0017.066-.0416.205-.0911.142-.0507.317-.0935.51-.1135l2.058 19.8938c2.906-.3005 5.556-1.2992 7.883-2.7646l-10.656-16.9246Zm1.032-.2323c.085-.0061.511-.0133 1.092.2142l-7.288 18.6248c2.544.9955 5.146 1.287 7.621 1.1102l-1.425-19.9492Zm1.436.3559c.411.1787 1.374.6652 2.336 1.7425 1.063 1.1909 1.82 2.7729 2.015 4.5319l-19.878 2.2086c.627 5.6392 4.706 8.621 7.552 9.8584l7.975-18.3414Zm3.531 3.2751-.576-1.28-18.238 8.2072.576 1.28 18.238-8.2072Zm-1.374-2.7234c-2.087-3.1301-5.386-5.2621-9.339-5.6907-3.407-.3695-6.389.6233-8.455 1.5686l8.322 18.1862c.452-.2067-.386.3061-2.023.1286-.914-.0991-1.969-.4072-2.993-1.0403-1.014-.6273-1.712-1.3962-2.153-2.0584l16.641-11.094Zm-17.744-4.1449c-3.824 1.7248-7.084 4.4548-9.869 7.5679l14.905 13.336c1.566-1.7509 2.659-2.4342 3.186-2.6721l-8.222-18.2318Zm-9.904 7.6075c-2.743 3.0985-5.217 6.6378-6.499 10.5644l19.012 6.208c.083-.2547.597-1.4087 2.462-3.5156l-14.975-13.2568Zm-6.48 10.5061c-.424 1.2725-.795 2.4822-1.07 3.5688-.218.8578-.595 2.4453-.595 4.1375h20c0 .3346-.021.5869-.035.7259-.016.1459-.031.2407-.037.2717-.009.0531 0-.0086.054-.2201.108-.428.313-1.1277.657-2.1592l-18.974-6.3246Zm-1.651 7.1807c-.246 4.6776 1.565 8.7663 4.524 11.8278l14.38-13.9004c.162.1677.488.5649.744 1.2119.266.6678.354 1.3431.324 1.9119l-19.972-1.0512Zm6.307 13.2894c3.205 2.0604 7.023 3.3786 11.259 3.1769l-.951-19.9774c.128-.0061.254-.0007.372.0139.116.0146.207.0362.268.0543.122.0363.079.045-.133-.0913l-10.815 16.8236Zm11.496 3.1628c2.874-.2053 5.742-.8794 8.45-2.1925l-8.725-17.9962c-.108.0523-.44.1888-1.15.2395l1.425 19.9492Zm8.667-2.3009c2.108-1.0859 4.164-2.4669 5.947-4.2506l-14.142-14.1422c0-.0001-.062.0621-.22.173-.158.1114-.399.2623-.744.4404l9.159 17.7794Zm5.947-4.2506c.64-.6402 1.431-1.4905 2.13-2.4885.398-.5692 2.143-3.0191 2.143-6.5026h-20c0-1.7627.489-3.0649.755-3.6722.29-.6639.587-1.1086.717-1.2944.251-.358.369-.4403.113-.1845l14.142 14.1422Zm3.218-4.5189c.128-.2561.256-.5121.384-.7681l-17.889-8.9442c-.128.256-.256.512-.384.7679l17.889 8.9444Zm.384-.7681c.326-.6538.618-1.3468.862-2.0778l-18.974-6.3246c.073-.219.152-.4.223-.5418l17.889 8.9442Zm-8.625-15.2401H192.286v20H192.516v-20H192.286v20H192.388v-20Zm1.772 19.8639s-.013.0022-.036.0058c-.022.0033-.067.0102-.13.0186-.056.0074-.171.0222-.323.0367-.103.0098-.456.043-.915.043-.214 0-.699-.0056-1.312-.0872-.201-.0269-2.185-.2335-4.22-1.5904-1.203-.802-3.146-2.4978-4.03-5.4461-.923-3.0761-.168-5.7397.634-7.3441 1.265-2.5293 3.257-3.7536 3.393-3.8447.932-.6208 1.77-.9374 1.812-.9543.244-.0973.434-.1618.513-.188l6.325 18.9736c.11-.0369.327-.1107.59-.216.062-.0249.915-.3481 1.854-.9743.141-.0937 2.135-1.3204 3.401-3.8517.803-1.6054 1.558-4.27.635-7.3469-.885-2.9491-2.829-4.6457-4.033-5.4483-2.037-1.3582-4.024-1.5659-4.23-1.5934-.618-.0823-1.109-.0882-1.332-.0882-.758 0-1.389.0935-1.405.0957-.192.0256-.363.0531-.479.0724l3.288 19.7278Zm-1.452-19.8639c-.124 0-.382.0017-.704.0231-.016.0011-1.176.0466-2.518.4941-.415.1384-1.15.4116-1.985.913-.761.4565-2.269 1.4936-3.432 3.4313-1.366 2.2778-1.808 5.0803-1.072 7.7775.628 2.3042 1.904 3.7677 2.577 4.4412 1.281 1.2803 2.596 1.8766 2.848 1.9939.479.2239.877.3623 1.076.4287.669.223 1.247.3314 1.285.339.188.0376.357.0668.473.0861l3.288-19.7278s.013.0021.036.0062c.021.0038.065.0118.125.0239.055.0108.163.0332.304.0667.103.0245.417.1.814.2323.191.0637.582.1996 1.056.4212.247.115 1.559.7091 2.837 1.9874.673.6725 1.948 2.1351 2.576 4.4383.735 2.6963.294 5.4979-1.072 7.7749-1.163 1.9369-2.67 2.9732-3.429 3.4289-.834.5006-1.567.7732-1.98.9109-.821.2734-1.49.3752-1.74.4109-.324.0463-.585.0671-.737.0772-.301.0201-.534.0211-.626.0211v-20Zm-2.97 19.5508.384.128 6.325-18.9736-.384-.128-6.325 18.9736Zm-3.135-16.7993c-.161.1445.414-.439 1.732-.6887 1.53-.29 2.919.0834 3.79.5756l-9.841 17.4112c2.833 1.6015 6.217 2.3376 9.774 1.6636 3.344-.6337 5.978-2.3478 7.908-4.0807l-13.363-14.881Zm5.816.0597c-.376-.2298-.616-.4125-.755-.5318l-13.016 15.1852c1.056.9047 2.182 1.7033 3.342 2.4122l10.429-17.0656Zm-.458-.2671c-1.474-1.3686-4.701-3.7887-9.299-3.4056l1.661 19.931c-3.574.2978-5.692-1.6103-5.971-1.8696l13.609-14.6558Zm-3.68-2.2191c.849.4632 1.794 1.1857 2.603 2.2493.816 1.0734 1.296 2.2345 1.525 3.3126.422 1.9801-.057 3.3363-.097 3.4523l-18.919-6.4864c-.552 1.6093-1.18 4.2135-.546 7.1963.743 3.4929 2.952 6.2493 5.857 7.8339l9.577-17.558Zm3.989 9.1344c-.425 1.1882-1.075 1.9441-1.483 2.3206l-13.566-14.696c-1.517 1.4005-2.935 3.2657-3.786 5.6486l18.835 6.7268Zm-1.461 2.3005c-.824.7651-1.688 1.1148-2.249 1.2482l-4.632-19.4562c-2.352.5601-4.71 1.6778-6.728 3.5522l13.609 14.6558Zm-.614.7068c2.696-1.1595 4.303-1.0776 5.277-.8138l5.224-19.3058c-6.278-1.6989-12.565-.7637-18.402 1.7462l7.901 18.3734Zm5.344-.796c-.272-.0717-.893-.286-1.598-.842-.741-.5837-1.3-1.3297-1.642-2.0888l18.227-8.2318c-2.039-4.5145-5.868-7.1186-9.897-8.1788l-5.09 19.3414Zm-3.071-2.5746c-.103-.2064-.162-.3998-.19-.5463-.027-.1402-.015-.184-.02-.0994l19.972 1.0512c.164-3.1131-.36-6.3233-1.873-9.3497l-17.889 8.9442Zm-.21-.6457c-.025.4744-.136 1.085-.435 1.8638l18.667 7.1796c.98-2.5492 1.595-5.2239 1.74-7.9922l-19.972-1.0512Zm-.514 2.075c-.193.5395-.366.938-.504 1.2195-.069.1387-.124.2403-.165.3099-.041.0698-.063.101-.063.101l16.321 11.5604c1.414-1.9971 2.446-4.2347 3.235-6.4336l-18.824-6.7572Zm-.614 1.4667c-.358.4856-1.048 1.3046-2.212 2.5059l14.365 13.916c1.481-1.5294 2.839-3.057 3.931-4.5341L191.13 61.1841Zm-2.325 2.6245c-.616.657-1.579 1.484-3.031 2.4313l10.925 16.7522c2.473-1.6127 4.753-3.431 6.697-5.5047l-14.591-13.6788Zm-2.995 2.4077c-3.214 2.0761-6.418 2.9617-9.829 2.8824l-.465 19.9946c7.596.1767 14.718-1.9244 21.147-6.0776L185.81 66.2163Zm-9.901 2.881c-2.759-.0443-3.781-.6235-3.989-.7672-.086-.0599-.13-.1054-.185-.1925-.068-.1064-.234-.4078-.378-1.0442l-19.505 4.4212c1.193 5.2634 3.971 9.9962 8.684 13.2593 4.507 3.1203 9.832 4.2371 15.052 4.3208l.321-19.9974Zm-4.557-2.0271c-.255-1.1118-.421-2.5901-.389-4.5116l-19.997-.3332c-.054 3.1985.207 6.3282.891 9.3124l19.495-4.4676Zm-.404-4.1044c.328-5.718 2.016-11.0365 5.162-16.089l-16.979-10.5696c-4.876 7.8328-7.626 16.381-8.15 25.511l19.967 1.1476ZM176.1 46.892c1.357-2.1706 3.317-4.5257 6.039-7.0326l-13.55-14.7109c-3.763 3.4665-6.965 7.1701-9.449 11.1435l16.96 10.6Zm5.937-6.9396c1.143-1.0243 2.399-1.7909 3.819-2.3349l-7.159-18.675c-3.701 1.4187-7.053 3.468-10.005 6.1131l13.345 14.8968Zm4.003-2.4077c.872-.3542 2.096-.7636 3.741-1.2024l-5.153-19.3247c-2.195.5853-4.257 1.2425-6.116 1.9977l7.528 18.5294Zm40.119 40.5273 2.747 9.6152.013-.0034.012-.0036-2.772-9.6082Zm-2.56.384v-10h-.263l-.262.0138.525 9.9862Zm-2.496.128-.499-9.9875-.013.0006-.013.0007.525 9.9862Zm-9.92-.064.294-9.9957-.459-.0135-.459.0287.624 9.9805Zm-3.968-.32 3.939-9.1915-.035-.0153-.036-.0151-3.868 9.2219Zm-2.688-3.84-9.751 2.2162.007.0314.007.0312 9.737-2.2788Zm-.704-1.984 8.321-5.547-.203-.304-.224-.2884-7.894 6.1394Zm-.704-1.088 8.945-4.4721-.213-.425-.252-.4029-8.48 5.3Zm.128-3.392 9.512 3.085.038-.1172.036-.1181-9.586-2.8497Zm1.856-5.824 9.487 3.1623.009-.0259.008-.026-9.504-3.1104Zm2.624-7.424 9.357 3.528.007-.019.007-.019-9.371-3.49Zm6.208-14.72 8.923 4.5141.108-.2128.097-.2176-9.128-4.0837Zm1.856-4.224-9.07-4.2111-.063.135-.058.1369 9.191 3.9392Zm1.472-3.072 8.945 4.4721.043-.086.041-.0868-9.029-4.2993Zm.64-1.408-9.67-2.5449-.33 1.2511v1.2938h10Zm4.928-4.096 3.618 9.3227.11-.0426.108-.0451-3.836-9.235Zm7.552-.896 2.464-9.6917-.041-.0104-.041-.01-2.382 9.7121Zm3.328 4.992 9.755 2.2026.122-.544.062-.5543-9.939-1.1043Zm-2.688 7.936-9.113-4.1159-.028.0614-.027.0618 9.168 3.9927Zm-3.968 8.32 8.892 4.5764-8.892-4.5764Zm-4.864 9.216 8.801 4.7479-8.801-4.7479Zm-5.184 10.56-9.121-4.0994-.364.8112-.216.8628 9.701 2.4254Zm.256.448-5.145 8.5749 2.734 1.6401 3.178-.2445-.767-9.9705Zm2.304-.512-2.8-9.6-.056.0163-.055.017 2.911 9.5667Zm3.136-.768 1.961 9.8058.145-.0288.143-.0331-2.249-9.7439Zm5.952.448 9.985.5547.293-5.2837-4.203-3.2146-6.075 7.9436Zm.576 1.856-7.399 6.7267.16.1761.168.1683 7.071-7.0711Zm1.28 1.28 7.209-6.9311-.068-.0706-.07-.0694-7.071 7.0711Zm.256 4.416-8.985-4.3884-.022.0444-.021.0447 9.028 4.2993Zm-7.355-5.9672c-.133.038-.058-.0008.187-.0008v20c1.867 0 3.649-.2948 5.307-.7688l-5.494-19.2304Zm-.338.013c-.802.0422-1.625.0844-2.47.1267l.999 19.975c.861-.0431 1.702-.0862 2.522-.1293l-1.051-19.9724Zm-2.496.128c-.551.029-1.478.0502-2.867.0502v20c1.513 0 2.847-.0215 3.918-.0778l-1.051-19.9724Zm-2.867.0502c-1.298 0-3.354-.039-6.234-.1237l-.588 19.9914c2.923.0859 5.219.1323 6.822.1323v-20Zm-7.152-.1085c-.475.0297-.95.0445-1.424.0445v20c.891 0 1.782-.0279 2.672-.0835l-1.248-19.961Zm-1.424.0445c.602 0 1.31.1203 2.019.4245l-7.878 18.383c1.905.8162 3.892 1.1925 5.859 1.1925v-20Zm1.948.3941c1.235.5182 2.126 1.3473 2.661 2.1113.474.677.552 1.1283.52.9918l-19.474 4.5576c.862 3.6826 3.135 8.5092 8.558 10.7831l7.735-18.4438Zm3.196 3.1657c-.255-1.1209-.802-3.3152-2.135-5.3148l-16.641 11.094c-.271-.4054-.444-.7448-.544-.9579-.103-.2195-.164-.3816-.192-.461-.052-.1455-.04-.1447.009.0721l19.503-4.4324Zm-2.562-5.9072c.001.0017.155.1969.347.5793l-17.889 8.9442c.532 1.065 1.156 1.9856 1.755 2.7553l15.787-12.2788Zm-.118-.2486c1.199 1.9173 1.25 3.6631 1.225 4.3171-.025.675-.156.9572-.065.6759l-19.024-6.17c-.421 1.2974-.829 2.9342-.897 4.7399-.067 1.7846.176 4.4372 1.801 7.0371l16.96-10.6Zm1.234 4.7577c.427-1.4376 1.009-3.2675 1.757-5.5114l-18.974-6.3246c-.788 2.3641-1.443 4.4169-1.954 6.1366l19.171 5.6994Zm1.774-5.5633c.717-2.1902 1.542-4.5249 2.477-7.0064L198.37 51.12c-1.027 2.7238-1.952 5.3385-2.771 7.8416l19.008 6.2208Zm2.491-7.0444c2.244-6.0237 4.165-10.5418 5.76-13.6959l-17.846-9.0282c-2.074 4.0992-4.291 9.3945-6.656 15.7441l18.742 6.98Zm5.965-14.1263c.74-1.6533 1.381-3.1117 1.92-4.3685L206.6 31.7648c-.486 1.1325-1.082 2.4902-1.793 4.0795l18.256 8.1674Zm1.798-4.0966c.528-1.1373.976-2.0695 1.347-2.811l-17.889-8.9442c-.483.9651-1.017 2.081-1.598 3.333l18.14 8.4222Zm1.431-2.9838c.22-.4623.411-.8679.555-1.1853.067-.1471.159-.3518.247-.5638.039-.0927.125-.3011.217-.5588.043-.1204.133-.3787.225-.7099.008-.0298.367-1.1957.367-2.6895h-20c0-.9083.127-1.6101.18-1.8832.066-.3457.138-.6196.183-.7803.088-.3192.173-.5621.21-.6639.079-.2204.145-.3781.156-.4068.035-.084.047-.1073.008-.0198-.069.1519-.199.429-.405.8627l18.057 8.5986Zm1.282-3.1624c-.446 1.695-1.386 2.6225-1.727 2.9055-.285.2369-.22.0954.602-.2237l-7.235-18.6454c-3.483 1.3514-9.258 4.3261-10.981 10.8738l19.341 5.0898Zm-.907 2.5941c.689-.2861 1.116-.3695 1.31-.3926.175-.0207.157.0062.024-.0263l4.764-19.4242c-4.861-1.1925-9.599-.3592-13.77 1.3731l7.672 18.47Zm1.252-.4393c-.403-.1026-1.949-.6358-3.136-2.4167-1.147-1.7208-1.029-3.2188-1.011-3.3873l19.878 2.2086c.317-2.8565.03-6.5305-2.226-9.9153-2.297-3.4449-5.656-5.1301-8.577-5.8727l-4.928 19.3834Zm-3.962-6.9023c-.439 1.9434-1.111 3.9491-2.047 6.0227l18.227 8.2318c1.453-3.2171 2.573-6.502 3.329-9.8493l-19.509-4.4052Zm-2.102 6.1459c-1.056 2.4243-2.284 5.0022-3.691 7.7363l17.783 9.1528c1.579-3.0686 2.996-6.0373 4.245-8.9037l-18.337-7.9854Zm-3.691 7.7363c-1.46 2.8371-3.051 5.8516-4.774 9.0445l17.602 9.4958c1.776-3.2924 3.428-6.4219 4.955-9.3875l-17.783-9.1528Zm-4.774 9.0445c-1.877 3.48-3.711 7.2189-5.504 11.2085l18.242 8.1988c1.621-3.6051 3.243-6.9062 4.864-9.9115l-17.602-9.4958Zm-6.084 12.8825c-.631 2.5234-.303 5.2571 1.051 7.6268 1.189 2.0804 2.8 3.2445 3.761 3.8215l10.29-17.1498c.749.449 2.21 1.4745 3.314 3.4055 1.268 2.2204 1.575 4.7941.987 7.1468l-19.403-4.8508Zm10.724 12.8439c1.653-.1271 3.249-.5507 4.449-.9158l-5.823-19.1334c-.153.0464-.278.0819-.376.1083-.099.0266-.163.0415-.194.0485-.033.0073-.017.0028.041-.0065.055-.0089.183-.0278.369-.0421l1.534 19.941Zm4.337-.8825c.742-.2164 1.508-.4042 2.297-.5622l-3.922-19.6116c-1.343.2687-2.669.5929-3.975.9738l5.6 19.2Zm2.585-.6241c.421-.0972.754-.1279 1.015-.1279v-20c-1.872 0-3.715.2253-5.512.6401l4.497 19.4878Zm1.015-.1279c-.745 0-2.085-.2296-3.386-1.2244l12.149-15.8872c-2.752-2.1042-5.884-2.8884-8.763-2.8884v20Zm-7.296-9.7227c-.158 2.835.559 6.2757 3.161 9.1374l14.799-13.4534c.791.8707 1.359 1.8902 1.687 2.9467.316 1.0195.355 1.891.322 2.4787l-19.969-1.1094Zm3.489 9.4818c.427.4266.854.8533 1.28 1.28l14.142-14.1422c-.426-.4266-.853-.8533-1.28-1.28L222.16 75.7991Zm1.143 1.14c-1.041-1.0823-1.809-2.6608-1.911-4.4164-.088-1.5118.36-2.4267.39-2.4871l17.971 8.7768c.925-1.8951 1.778-4.4633 1.605-7.4471-.187-3.2276-1.531-6.0967-3.638-8.2884l-14.417 13.8622Zm-1.564-6.8144c.221-.4658.582-.9312 1.029-1.2852.417-.3295.699-.3987.62-.3757l5.543 19.2164c4.473-1.2902 8.576-4.1502 10.865-8.9569l-18.057-8.5986Zm27.831-3.1887 1.029-9.9469-.513-.0531h-.516v10Zm11.072-.128 3.163-9.4868-2.216-.7385-2.313.3191 1.366 9.9062Zm1.472 2.176 9.939 1.1043.006-.0546.006-.0547-9.951-.995Zm.064 1.152-9.762 2.1693 9.762-2.1693Zm1.216.96-3.328 9.4299.083.0292.083.0277 3.162-9.4868Zm.32 1.152-9.662-2.5766-.064.2392-.052.2421 9.778 2.0953Zm-1.024 1.984 7.933 6.0882.006-.0068.005-.0069-7.944-6.0745Zm-4.992 3.84 2.426 9.7014.564-.1411.544-.2056-3.534-9.3547Zm-7.232 1.344-.73-9.9733-.003.0002.733 9.9731Zm-9.472-.32-1.789 9.8387.273.0497.276.0344 1.24-9.9228Zm-5.44-4.672 9.986.5256.014-.2626v-.263h-10Zm5.888-27.008-9.17-3.9873-.003.0064 9.173 3.9809Zm4.352-9.28-8.944-4.4721 8.944 4.4721Zm.576-2.304-9.95-.995-.025.2473-.012.2483 9.987.4994Zm.576-4.672-9.487-3.1623 9.487 3.1623Zm1.344-1.344 3.511 9.3633.098-.0367.097-.0388-3.706-9.2878Zm21.056-4.096-1.551 9.8789.653.1025.66.0158.238-9.9972Zm3.52 1.856-9.07 4.2111.092.1981.101.194 8.877-4.6032Zm.192 3.904-9.514-3.0782-.042.1277-.037.1288 9.593 2.8217Zm-2.624 4.096-6.954-7.186-.059.057-.058.0579 7.071 7.0711Zm-4.864 2.368-1.504-9.8862-.641.0976-.623.1795 2.768 9.6091Zm-4.608 1.472-4.19-9.0796-.069.0317-.068.0327 4.327 9.0152Zm-2.304 2.048 8.437 5.3688.171-.2696.154-.28-8.762-4.8192Zm-2.752 5.44-9.772-2.1243-.036.1672-.03.1682 9.838 1.7889Zm-.256 1.408-9.838-1.7889-1.372 7.5439 6.929 3.2824 4.281-9.0374Zm2.944.384 1.105 9.9388.155-.0172.154-.0221-1.414-9.8995Zm3.264-.448 1.294 9.916.175-.0229.175-.0292-1.644-9.8639Zm2.432-.064-2.095 9.778.067.0144.067.0134 1.961-9.8058Zm.384 1.92-9.487-3.1623-.036.1103-.035.1111 9.558 2.9409Zm-1.984 3.776-8.204-5.7179-.059.0848-.057.0861 8.32 5.547Zm-4.032 3.072 1.889 9.8201.791-.1521.756-.2768-3.436-9.3912Zm-2.304.512 2.17 9.7619.355-.079.349-.1046-2.874-9.5783Zm-.896.192 1.414 9.8995.275-.0393.272-.0544-1.961-9.8058Zm-2.56.192-.605-9.9817-5.318.3223-2.699 4.5939 8.622 5.0655Zm-3.648 7.936-9.751-2.2162-.005.0234-.006.0235 9.762 2.1693Zm-.709 11.0989c2.534.2621 4.796.4371 6.533.4371v-20c-.651 0-2.059-.081-4.475-.3309l-2.058 19.8938Zm6.533.4371c1.952 0 4.366-.2514 6.935-.6058l-2.733-19.8124c-2.38.3283-3.679.4182-4.202.4182v20Zm2.406-1.0252c-.161-.0535-.867-.2951-1.738-.9175-.887-.6337-2.435-2.0251-3.243-4.447l18.974-6.3246c-.935-2.8059-2.771-4.5493-4.106-5.503-1.32-.9424-2.634-1.472-3.562-1.7815l-6.325 18.9736Zm-4.981-5.3645c-.344-1.0322-.424-2.0499-.335-2.9413l19.901 1.99c.174-1.7448.008-3.5731-.592-5.3733l-18.974 6.3246Zm-.324-3.0506c-.166 1.4975-.078 2.9873.241 4.4256l19.524-4.3386c.149.6703.194 1.3921.113 2.1216l-19.878-2.2086Zm.241 4.4256c1.324 5.9577 6.616 7.8555 7.65 8.2206l6.656-18.8598c.218.0767 1.049.3817 2.021 1.1491 1.034.8162 2.603 2.477 3.197 5.1515l-19.524 4.3386Zm7.816 8.2775c-1.225-.4083-2.609-1.1582-3.822-2.4237-1.217-1.2706-1.923-2.707-2.283-4.0027-.642-2.3128-.179-4.0967-.075-4.485l19.325 5.1532c.274-1.0283.77-3.3242.02-6.021-.96-3.4574-3.552-6.0982-6.84-7.1944l-6.325 18.9736Zm-6.296-10.4301c.157-.7318.389-1.2553.54-1.5471.152-.2939.268-.4441.271-.4481l15.887 12.149c1.047-1.3691 2.306-3.3847 2.858-5.9632l-19.556-4.1906Zm.821-2.0089c-.227.2966-.391.4389-.468.498-.07.0542-.106.0683-.125.0755l7.068 18.7094c3.876-1.4641 6.997-3.987 9.391-7.1065l-15.866-12.1764Zm.516.2268c-2.883.7207-4.642 1.0066-5.537 1.0721l1.46 19.9466c2.604-.1905 5.666-.8006 8.928-1.6159l-4.851-19.4028Zm-5.54 1.0723c-2.137.1572-4.625.0895-7.498-.2697l-2.481 19.8456c3.953.4941 7.78.6398 11.446.3703l-1.467-19.9462Zm-6.95-.1856c-1.072-.1949-.467-.3017.551.5724.595.5114 1.249 1.2953 1.7 2.3627.448 1.0613.544 2.043.506 2.7572l-19.972-1.0512c-.223 4.2433 1.425 8.2612 4.735 11.1039 2.831 2.4315 6.22 3.4447 8.902 3.9324l3.578-19.6774Zm2.771 5.1667c0-7.4584 1.626-15.1111 5.062-23.0271l-18.347-7.9618c-4.416 10.1746-6.715 20.5273-6.715 30.9889h20Zm5.059-23.0207c1.2-2.7611 2.574-5.6921 4.126-8.7952l-17.889-8.9442c-1.691 3.3822-3.219 6.6379-4.578 9.7648l18.341 7.9746Zm4.126-8.7952c1.03-2.0605 1.515-4.2066 1.619-6.2767l-19.975-.9988c.018-.3634.119-.9736.467-1.6687l17.889 8.9442Zm1.582-5.7811c.1-1.0008.176-1.9895.227-2.9654l-19.972-1.0512c-.034.6454-.086 1.3207-.156 2.0266l19.901 1.99Zm.227-2.9654c.005-.089.007.0961-.115.4607l-18.974-6.3246c-.548 1.6446-.802 3.2803-.883 4.8127l19.972 1.0512Zm-.115.4607c-.352 1.055-.975 2.1484-1.92 3.0928-.926.9267-1.917 1.4662-2.712 1.7642l-7.022-18.7266c-3.247 1.2177-6.067 3.7879-7.32 7.545l18.974 6.3246Zm-4.437 4.7815c8.386-3.3462 13.344-3.8904 15.799-3.5049l3.102-19.7579c-7.87-1.2358-16.949.9507-26.313 4.6872l7.412 18.5756Zm17.112-3.3866c-.132-.0032-1.029-.0369-2.202-.6555-1.335-.7039-2.458-1.8713-3.11-3.2746l18.14-8.4222c-2.735-5.8914-8.352-7.5468-12.352-7.6421l-.476 19.9944Zm-5.119-3.538c-.366-.7044-.576-1.4942-.615-2.272-.036-.7447.094-1.2718.17-1.5054l19.029 6.1564c1.136-3.5132 1.213-7.6475-.829-11.5854l-17.755 9.2064Zm-.524-3.5209c.035-.119.074-.2202.112-.3013.037-.0805.068-.1336.085-.1593.032-.05-.004.0197-.182.1923l13.908 14.372c2.297-2.2223 4.254-5.0262 5.264-8.4603l-19.187-5.6434Zm-.102-.1534c.142-.142.326-.2747.518-.368.183-.089.269-.0919.185-.0791l3.009 19.7724c3.856-.5868 7.496-2.2484 10.43-5.1831l-14.142-14.1422Zm-.561-.17c-2.209.6363-4.62 1.3507-6.03 2.0015l8.381 18.1592c-.266.1229-.395.1616-.227.1018.119-.0427.327-.1134.647-.2156.639-.2041 1.55-.4784 2.766-.8287l-5.537-19.2182Zm-6.167 2.0659c-2.535 1.2166-5.065 3.201-6.739 6.244l17.524 9.6384c-.735 1.3364-1.729 1.9553-2.13 2.148l-8.655-18.0304Zm-6.413 5.6944c-.639 1.0042-1.241 1.9752-1.803 2.9118l17.15 10.29c.462-.77.97-1.5911 1.526-2.4642l-16.873-10.7376Zm-1.803 2.9118c-1.078 1.797-1.842 3.7359-2.285 5.7727l19.544 4.2486c-.006.0291-.019.0741-.04.1283-.022.0543-.046.1024-.069.1404l-17.15-10.29Zm-2.351 6.1081-.256 1.408 19.677 3.5778.256-1.408-19.677-3.5778Zm5.301 12.2343c2.912 1.379 5.863 1.5595 8.33 1.2854l-2.209-19.8776c.162-.0181 1.151-.0936 2.441.5174l-8.562 18.0748Zm8.639 1.2461c1.163-.1661 2.21-.3097 3.144-.4315l-2.587-19.832c-1.029.1342-2.158.2893-3.385.4645l2.828 19.799Zm3.494-.4836c.175-.0291.16-.0157-.005-.0114-.145.0039-.621.0074-1.302-.1385l4.191-19.556c-2.397-.5135-4.652-.2752-6.172-.0219l3.288 19.7278Zm-1.173-.1221c-1.379-.2759-3.165-.9819-4.726-2.5427s-2.267-3.3464-2.543-4.7259c-.258-1.29-.164-2.3028-.093-2.7994.076-.5315.186-.8782.22-.9801l18.974 6.3246c.343-1.0282 1.099-3.5255.511-6.4675-.34-1.6995-1.174-3.7411-2.927-5.4939-1.752-1.7528-3.794-2.5868-5.494-2.9267l-3.922 19.6116Zm-7.213-10.8267c.047-.1502.058-.1336-.046.0656-.102.1945-.284.5038-.584.9334l16.408 11.4358c1.319-1.8915 2.584-4.1018 3.338-6.5531l-19.116-5.8817Zm-.746 1.1699c.144-.2167.337-.4226.548-.5833.203-.1547.333-.1993.304-.1889l6.872 18.7824c3.533-1.2925 6.68-3.5618 8.917-6.9162L254.37 48.333Zm2.4-1.2011c-1.09.2096-2.318.4624-3.289.7538l5.747 19.1566c-.086.0256-.116.0319-.064.0191.044-.0112.127-.031.256-.0595.26-.0579.629-.1342 1.127-.2298l-3.777-19.6402Zm-2.585.5702c-.36.0801-.578.1262-.688.1481l3.922 19.6116c.318-.0634.697-.1453 1.105-.2359l-4.339-19.5238Zm-.141.0544c.176-.0251.264-.0311.164-.0219-.066.0061-.182.0159-.362.0294-.358.0269-.87.0609-1.553.1023l1.21 19.9634c1.214-.0736 2.567-.1595 3.369-.2742l-2.828-19.799Zm-9.768 5.026c-2.097 3.5693-3.99 7.3232-4.777 10.7853l19.503 4.4324c-.005.0222.019-.0885.115-.3543.095-.26.239-.6159.451-1.0773.429-.933 1.063-2.142 1.952-3.6551l-17.244-10.131Zm-4.788 10.8322c-.158.7123-.664 3.034.079 5.7097.438 1.5772 1.442 3.7222 3.604 5.4146 2.199 1.7207 4.602 2.197 6.399 2.197v-20c1.606 0 3.851.4283 5.927 2.053 2.04 1.5964 2.956 3.5974 3.34 4.9826.365 1.3108.35 2.3694.322 2.8711-.031.5545-.111.9483-.147 1.1106l-19.524-4.3386Z" fill="#000" mask="url(#a)"/></svg>