<svg width="116" height="99" fill="none" xmlns="http://www.w3.org/2000/svg"><mask id="a" maskUnits="userSpaceOnUse" x="26" y="16" width="65" height="74" fill="#000"><path fill="#fff" d="M26 16h65v74H26z"/><path d="M62.9705 26.68c6.144-1.2373 10.9227-.4693 14.336 2.304 1.6213 1.3227 2.688 3.2427 3.2 5.76.5547 2.5173.2773 5.3333-.832 8.448-.4693 1.4507-1.28 2.5387-2.432 3.264-1.152.7253-2.3467 1.152-3.584 1.28-1.1947.0853-2.2827-.064-3.264-.448-.9813-.4267-1.5147-1.024-1.6-1.792l-.576-1.28c-1.024-1.536-2.7947-1.728-5.312-.576-2.176.9813-4.352 2.688-6.528 5.12-2.304 2.6027-3.7973 4.9493-4.48 7.04-.768 2.304-1.152 3.8187-1.152 4.544-.0853 1.6213.4907 3.072 1.728 4.352 1.792 1.152 3.584 1.6853 5.376 1.6 1.792-.128 3.392-.5333 4.8-1.216 1.408-.7253 2.56-1.536 3.456-2.432.896-.896 1.344-1.536 1.344-1.92l.384-.768c.128-.256.2347-.512.32-.768h.128c.256-.0427.32-.0427.192 0-.128 0-.064.0213.192.064l.384.128c-2.0907 1.8773-4.1173 2.2613-6.08 1.152-.768-.4693-1.4507-.96-2.048-1.472-.5973-.5547-1.152-.8107-1.664-.768-.9387-.512-1.152-1.5147-.64-3.008.2133-.5973.5973-1.152 1.152-1.664.5973-.5547 1.344-.9387 2.24-1.152 4.2667-1.8347 8.2133-2.2613 11.84-1.28 1.6213.4267 2.7307 1.3013 3.328 2.624.64 1.28.9173 2.7307.832 4.352-.0853 1.6213-.448 3.264-1.088 4.928-.5973 1.664-1.2587 3.008-1.984 4.032-.7253.9813-1.7493 2.1547-3.072 3.52-1.28 1.3653-2.9013 2.688-4.864 3.968-4.8213 3.1147-9.984 4.608-15.488 4.48-7.9787-.128-12.6933-3.392-14.144-9.792-.4693-2.048-.6827-4.352-.64-6.912.4267-7.424 2.6453-14.3573 6.656-20.8 1.92-3.072 4.5013-6.1013 7.744-9.088 2.048-1.8347 4.352-3.2427 6.912-4.224 1.3653-.5547 3.008-1.088 4.928-1.6Z"/></mask><path d="M62.9705 26.68c6.144-1.2373 10.9227-.4693 14.336 2.304 1.6213 1.3227 2.688 3.2427 3.2 5.76.5547 2.5173.2773 5.3333-.832 8.448-.4693 1.4507-1.28 2.5387-2.432 3.264-1.152.7253-2.3467 1.152-3.584 1.28-1.1947.0853-2.2827-.064-3.264-.448-.9813-.4267-1.5147-1.024-1.6-1.792l-.576-1.28c-1.024-1.536-2.7947-1.728-5.312-.576-2.176.9813-4.352 2.688-6.528 5.12-2.304 2.6027-3.7973 4.9493-4.48 7.04-.768 2.304-1.152 3.8187-1.152 4.544-.0853 1.6213.4907 3.072 1.728 4.352 1.792 1.152 3.584 1.6853 5.376 1.6 1.792-.128 3.392-.5333 4.8-1.216 1.408-.7253 2.56-1.536 3.456-2.432.896-.896 1.344-1.536 1.344-1.92l.384-.768c.128-.256.2347-.512.32-.768h.128c.256-.0427.32-.0427.192 0-.128 0-.064.0213.192.064l.384.128c-2.0907 1.8773-4.1173 2.2613-6.08 1.152-.768-.4693-1.4507-.96-2.048-1.472-.5973-.5547-1.152-.8107-1.664-.768-.9387-.512-1.152-1.5147-.64-3.008.2133-.5973.5973-1.152 1.152-1.664.5973-.5547 1.344-.9387 2.24-1.152 4.2667-1.8347 8.2133-2.2613 11.84-1.28 1.6213.4267 2.7307 1.3013 3.328 2.624.64 1.28.9173 2.7307.832 4.352-.0853 1.6213-.448 3.264-1.088 4.928-.5973 1.664-1.2587 3.008-1.984 4.032-.7253.9813-1.7493 2.1547-3.072 3.52-1.28 1.3653-2.9013 2.688-4.864 3.968-4.8213 3.1147-9.984 4.608-15.488 4.48-7.9787-.128-12.6933-3.392-14.144-9.792-.4693-2.048-.6827-4.352-.64-6.912.4267-7.424 2.6453-14.3573 6.656-20.8 1.92-3.072 4.5013-6.1013 7.744-9.088 2.048-1.8347 4.352-3.2427 6.912-4.224 1.3653-.5547 3.008-1.088 4.928-1.6Z" fill="#F3F3F3"/><path d="m62.9705 26.68-1.9742-9.8032-.3034.0611-.299.0797 2.5766 9.6624Zm14.336 2.304 6.3213-7.7487-.0077-.0062-.0077-.0062-6.3059 7.7611Zm3.2 5.76-9.7994 1.9931.0162.0795.0175.0792 9.7657-2.1518Zm-.832 8.448-9.4203-3.3552-.0491.1378-.045.1392 9.5144 3.0782Zm-2.432 3.264-5.3281-8.4623 5.3281 8.4623Zm-3.584 1.28.7125 9.9746.1584-.0113.1581-.0164-1.029-9.9469Zm-3.264-.448-3.9873 9.1707.1704.0741.1729.0676 3.644-9.3124Zm-1.6-1.792 9.9388-1.1043-.1738-1.5642-.6458-1.4351-9.1192 4.1036Zm-.576-1.28 9.1192-4.1036-.3396-.7548-.4591-.6886-8.3205 5.547Zm-5.312-.576 4.1111 9.1159.0251-.0114.025-.0114-4.1612-9.0931Zm-6.528 5.12-7.4524-6.668-.0177.0198-.0175.0198 7.4876 6.6284Zm-4.48 7.04 9.4868 3.1623.0097-.0291.0096-.0292-9.5061-3.104Zm-1.152 4.544 9.9862.5256.0138-.2626v-.263h-10Zm1.728 4.352-7.1899 6.9502.8064.8342.9759.6274 5.4076-8.4118Zm5.376 1.6.4757 9.9887.1184-.0057.1184-.0084-.7125-9.9746Zm4.8-1.216 4.3627 8.9981.1091-.0528.1078-.0556-4.5796-8.8897Zm3.456-2.432 7.0711 7.0711-7.0711-7.0711Zm1.344-1.92-8.9443-4.4722-1.0557 2.1115v2.3607h10Zm.704-1.536 9.4868 3.1623 4.3875-13.1623H68.1545v10Zm.128 0v10h.8276l.8164-.1361-1.644-9.8639Zm.192 0v10h1.6228l1.5395-.5132-3.1623-9.4868Zm.192.064 3.1623-9.4868-.7444-.2482-.7739-.1289-1.644 9.8639Zm.384.128 6.6813 7.4405 12.7949-11.4894-16.3139-5.4379-3.1623 9.4868Zm-6.08 1.152-5.2145 8.5328.1455.0889.1484.0839 4.9206-8.7056Zm-2.048-1.472-6.8045 7.3279.1457.1353.1509.1294 6.5079-7.5926Zm-1.664-.768L54.47 67.075l2.6316 1.4354 2.9874-.2489-.8305-9.9655Zm-.64-3.008-9.4174-3.3634-.0214.06-.0207.0602 9.4595 3.2432Zm1.152-1.664 6.7828 7.348.0109-.01.0108-.0101-6.8045-7.3279Zm2.24-1.152 2.3162 9.7281.8404-.2001.7937-.3413-3.9503-9.1867Zm11.84-1.28-2.6119 9.6529.0334.009.0336.0088 2.5449-9.6707Zm3.328 2.624-9.1137 4.1159.0812.1798.0882.1764 8.9443-4.4721Zm.832 4.352 9.9862.5256-9.9862-.5256Zm-1.088 4.928-9.3335-3.5898-.0404.1051-.038.1061 9.4119 3.3786Zm-1.984 4.032 8.0418 5.9439.06-.0813.0585-.0824-8.1603-5.7802Zm-3.072 3.52-7.1824-6.958-.057.0589-.056.0597 7.2954 6.8394Zm-4.864 3.968 5.4263 8.3997.0182-.0118.0182-.0118-5.4627-8.3761Zm-15.488 4.48.2325-9.9973-.036-.0008-.0361-.0006-.1604 9.9987Zm-14.144-9.792 9.7526-2.2106-.0026-.0116-.0027-.0116-9.7473 2.2338Zm-.64-6.912-9.9835-.5738-.0117.2034-.0034.2038 9.9986.1666Zm6.656-20.8-8.48-5.3-.0047.0076-.0047.0076 8.4894 5.2848Zm7.744-9.088-6.6725-7.4484-.0514.0461-.0509.0468 6.7748 7.3555Zm6.912-4.224 3.5794 9.3375.0925-.0355.0919-.0373-3.7638-9.2647Zm6.9023 8.2032c4.5115-.9086 5.819.0696 6.0558.2619l12.6118-15.5222c-6.5899-5.3543-14.8397-5.9122-22.6161-4.3461l3.9485 19.6064Zm6.0404.2494c-.1003-.0818-.1904-.1721-.2655-.2627-.0744-.0898-.1185-.161-.1388-.1975-.0397-.0715.0405.0432.1262.4647l19.5988-3.9862c-.864-4.248-2.8881-8.4237-6.6781-11.5156L70.9852 36.7326Zm-.2444.1632c.0516.2342.1689 1.1004-.4866 2.941l18.8406 6.7104c1.5631-4.3887 2.2352-9.1545 1.1774-13.955l-19.5314 4.3036Zm-.5807 3.218c.0608-.1882.2118-.5581.5356-.9926.3332-.4472.7558-.8361 1.2187-1.1275l10.6562 16.9246c3.3747-2.1248 5.5198-5.2525 6.6183-8.6481l-19.0288-6.1564Zm1.7543-2.1201c-.0027.0017.0661-.0416.2047-.0911.1418-.0507.3169-.0935.5104-.1135l2.058 19.8938c2.9055-.3005 5.5558-1.2992 7.8831-2.7646L71.9144 37.9937Zm1.0316-.2323c.0856-.0061.5111-.0133 1.0925.2142l-7.288 18.6248c2.5441.9955 5.1456 1.287 7.6205 1.1102l-1.425-19.9492Zm1.4358.3559c.411.1787 1.3741.6652 2.3361 1.7425 1.0632 1.1909 1.82 2.7729 2.0154 4.5319l-19.8776 2.2086c.6265 5.6392 4.7054 8.621 7.5515 9.8584l7.9746-18.3414Zm3.5319 3.2751-.576-1.28-18.2384 8.2072.576 1.28 18.2384-8.2072ZM76.539 38.669c-2.0867-3.1301-5.3856-5.2621-9.3385-5.6907-3.4072-.3695-6.3896.6233-8.4552 1.5686l8.3224 18.1862c.4518-.2067-.3866.3061-2.0232.1286-.9139-.0991-1.9691-.4072-2.9931-1.0403-1.0146-.6273-1.7119-1.3962-2.1534-2.0584l16.641-11.094Zm-17.7436-4.1449c-3.8245 1.7248-7.0839 4.4548-9.8693 7.5679l14.9048 13.336c1.5666-1.7509 2.6592-2.4342 3.1867-2.6721l-8.2222-18.2318Zm-9.9045 7.6075c-2.7429 3.0985-5.2163 6.6378-6.4985 10.5644l19.0122 6.208c.0831-.2547.5964-1.4087 2.4615-3.5156L48.8909 42.1316Zm-6.4792 10.5061c-.4242 1.2725-.7951 2.4822-1.0705 3.5688-.2175.8578-.5947 2.4453-.5947 4.1375h20c0 .3346-.0212.5869-.0357.7259-.0152.1459-.0308.2407-.0361.2717-.0091.0531-.0005-.0086.0531-.2201.1086-.428.3137-1.1277.6575-2.1592l-18.9736-6.3246Zm-1.6514 7.1807c-.2462 4.6776 1.5648 8.7663 4.5243 11.8278l14.3798-13.9004c.1621.1677.4874.5649.7443 1.2119.2651.6678.3539 1.3431.324 1.9119l-19.9724-1.0512Zm6.3066 13.2894c3.2051 2.0604 7.0233 3.3786 11.2593 3.1769l-.9514-19.9774c.1287-.0061.2548-.0007.372.0139.1167.0146.2076.0362.2682.0543.1222.0363.0791.045-.1329-.0913L47.0669 73.1078Zm11.4961 3.1628c2.8739-.2053 5.7421-.8794 8.4502-2.1925l-8.7254-17.9962c-.1079.0523-.4397.1888-1.1498.2395l1.425 19.9492Zm8.6671-2.3009c2.108-1.0859 4.1638-2.4669 5.9475-4.2506L59.0354 55.5769c.0002-.0001-.0622.0621-.2198.173-.1582.1114-.399.2623-.7447.4404l9.1592 17.7794Zm5.9475-4.2506c.6401-.6402 1.4306-1.4905 2.1292-2.4885.3985-.5692 2.1437-3.0191 2.1437-6.5026h-20c0-1.7627.4887-3.0649.7544-3.6722.2905-.6639.5872-1.1086.7173-1.2944.2506-.358.3691-.4403.1132-.1845l14.1422 14.1422Zm3.2172-4.5189c.128-.2561.256-.5121.384-.7681l-17.8886-8.9442c-.128.256-.256.512-.384.7679l17.8886 8.9444Zm.384-.7681c.3269-.6538.6189-1.3468.8625-2.0778l-18.9736-6.3246c.073-.219.1516-.4.2225-.5418l17.8886 8.9442ZM68.1545 49.192H68.0521v20H68.2825v-20H68.0521v20H68.1545v-20Zm1.772 19.8639c-.0001 0-.0131.0022-.0364.0058-.0216.0033-.0672.0102-.13.0186-.0559.0074-.1711.0222-.3225.0367-.1038.0098-.4562.043-.9151.043-.2143 0-.6996-.0056-1.3119-.0872-.2014-.0269-2.185-.2335-4.2202-1.5904-1.203-.802-3.1459-2.4978-4.0303-5.4461-.9227-3.0761-.1683-5.7397.634-7.3441 1.2647-2.5293 3.2568-3.7536 3.3935-3.8447.9312-.6208 1.7698-.9374 1.812-.9543.2433-.0973.4339-.1618.5126-.188l6.3246 18.9736c.1107-.0369.3273-.1107.5906-.216.0622-.0249.9148-.3481 1.854-.9743.1407-.0937 2.1353-1.3204 3.401-3.8517.8028-1.6054 1.5574-4.27.6344-7.3469-.8846-2.9491-2.8282-4.6457-4.0322-5.4483-2.0372-1.3582-4.0243-1.5659-4.2307-1.5934-.6172-.0823-1.1091-.0882-1.3314-.0882-.7584 0-1.3893.0935-1.4056.0957-.1921.0256-.363.0531-.4784.0724l3.288 19.7278Zm-1.452-19.8639c-.1242 0-.3827.0017-.7042.0231-.0164.0011-1.1756.0466-2.5181.4941-.4152.1384-1.1496.4116-1.9852.913-.7608.4565-2.2687 1.4936-3.4313 3.4313-1.3666 2.2778-1.8084 5.0803-1.0727 7.7775.6285 2.3042 1.9041 3.7677 2.5775 4.4412 1.2804 1.2803 2.596 1.8766 2.8474 1.9939.4798.2239.8771.3623 1.0763.4287.6688.223 1.2471.3314 1.2851.339.188.0376.357.0668.4732.0861l3.288-19.7278c.0001 0 .0129.0021.0356.0062.0212.0038.0653.0118.1256.0239.0542.0108.1629.0332.304.0667.1027.0245.4162.1.8131.2323.1912.0637.582.1996 1.0568.4212.2464.115 1.5585.7091 2.8369 1.9874.6724.6725 1.9474 2.1351 2.5756 4.4383.7355 2.6963.2938 5.4979-1.0723 7.7749-1.1621 1.9369-2.6691 2.9732-3.4287 3.4289-.8343.5006-1.5671.7732-1.9803.9109-.8201.2734-1.4898.3752-1.7398.4109-.3236.0463-.5848.0671-.7363.0772-.3015.0201-.534.0211-.6262.0211v-20Zm-2.9703 19.5508.384.128 6.3246-18.9736-.384-.128-6.3246 18.9736Zm-3.135-16.7993c-.1608.1445.4138-.439 1.7317-.6887 1.5304-.29 2.9195.0834 3.7902.5756l-9.8412 17.4112c2.8334 1.6015 6.2172 2.3376 9.7742 1.6636 3.3445-.6337 5.9779-2.3478 7.9077-4.0807l-13.3626-14.881Zm5.8158.0597c-.376-.2298-.6155-.4125-.7546-.5318L54.4146 66.6566c1.0556.9047 2.1814 1.7033 3.3414 2.4122l10.429-17.0656Zm-.458-.2671c-1.4738-1.3686-4.701-3.7887-9.299-3.4056l1.661 19.931c-3.574.2978-5.6918-1.6103-5.971-1.8696l13.609-14.6558Zm-3.68-2.2191c.8491.4632 1.794 1.1857 2.603 2.2493.8163 1.0734 1.2962 2.2345 1.5256 3.3126.4213 1.9801-.0578 3.3363-.0976 3.4523l-18.919-6.4864c-.5517 1.6093-1.1802 4.2135-.5456 7.1963.7432 3.4929 2.9516 6.2493 5.8566 7.8339l9.577-17.558Zm3.9889 9.1344c-.4243 1.1882-1.0747 1.9441-1.4826 2.3206L52.9877 46.276c-1.5172 1.4005-2.9356 3.2657-3.7866 5.6486l18.8348 6.7268Zm-1.4609 2.3005c-.8239.7651-1.688 1.1148-2.2483 1.2482l-4.6324-19.4562c-2.3523.5601-4.7097 1.6778-6.7283 3.5522l13.609 14.6558Zm-.6142.7068c2.6964-1.1595 4.303-1.0776 5.2778-.8138l5.2239-19.3058c-6.2787-1.6989-12.5654-.7637-18.4023 1.7462l7.9006 18.3734Zm5.3448-.796c-.2727-.0717-.8935-.286-1.5986-.842-.7403-.5837-1.2994-1.3297-1.6422-2.0888l18.2274-8.2318c-2.0388-4.5145-5.868-7.1186-9.8968-8.1788l-5.0898 19.3414Zm-3.0714-2.5746c-.1032-.2064-.1618-.3998-.1898-.5463-.0268-.1402-.0156-.184-.0201-.0994l19.9724 1.0512c.1638-3.1131-.3607-6.3233-1.8739-9.3497l-17.8886 8.9442Zm-.2099-.6457c-.0249.4744-.1357 1.085-.4353 1.8638l18.667 7.1796c.9804-2.5492 1.595-5.2239 1.7407-7.9922l-19.9724-1.0512Zm-.5137 2.075c-.1937.5395-.3662.938-.5047 1.2195-.0682.1387-.124.2403-.1647.3099-.0409.0698-.063.101-.0629.101l16.3205 11.5604c1.4146-1.9971 2.4463-4.2347 3.2356-6.4336l-18.8238-6.7572Zm-.6139 1.4667c-.3589.4856-1.0488 1.3046-2.2126 2.5059l14.3648 13.916c1.4815-1.5294 2.8396-3.057 3.9314-4.5341L66.8967 61.1841Zm-2.3256 2.6245c-.6159.657-1.5787 1.484-3.0313 2.4313l10.9254 16.7522c2.4727-1.6127 4.7526-3.431 6.6967-5.5047L64.5711 63.8086Zm-2.9949 2.4077c-3.2137 2.0761-6.4175 2.9617-9.8292 2.8824l-.465 19.9946c7.5963.1767 14.7179-1.9244 21.1468-6.0776L61.5762 66.2163Zm-9.9013 2.881c-2.7585-.0443-3.7806-.6235-3.9883-.7672-.0865-.0599-.1301-.1054-.1856-.1925-.0679-.1064-.2336-.4078-.3779-1.0442l-19.5052 4.4212c1.193 5.2634 3.9711 9.9962 8.6845 13.2593 4.507 3.1203 9.8316 4.2371 15.0517 4.3208l.3208-19.9974Zm-4.5571-2.0271c-.2548-1.1118-.4207-2.5901-.3887-4.5116l-19.9972-.3332c-.0533 3.1985.2074 6.3282.8913 9.3124l19.4946-4.4676Zm-.4038-4.1044c.3286-5.718 2.0167-11.0365 5.1619-16.089L34.8971 36.3072c-4.8761 7.8328-7.6254 16.381-8.1501 25.511l19.967 1.1476Zm5.1525-16.0738c1.3566-2.1706 3.317-4.5257 6.0388-7.0326L44.3557 25.1485c-3.7635 3.4665-6.9658 7.1701-9.4492 11.1435l16.96 10.6Zm5.9365-6.9396c1.1433-1.0243 2.3997-1.7909 3.8189-2.3349l-7.1588-18.675c-3.7008 1.4187-7.0524 3.468-10.0051 6.1131l13.345 14.8968Zm4.0033-2.4077c.8717-.3542 2.0955-.7636 3.7408-1.2024l-5.1532-19.3247c-2.1947.5853-4.2562 1.2425-6.1152 1.9977l7.5276 18.5294Z" fill="#000" mask="url(#a)"/></svg>