<svg width="116" height="99" fill="none" xmlns="http://www.w3.org/2000/svg"><mask id="b" maskUnits="userSpaceOnUse" x="31" y="15" width="52" height="74" fill="#000"><path fill="#fff" d="M31 15h52v74H31z"/><path d="M65.2705 78.072c-.896.256-1.7493.384-2.56.384-.8107.0427-1.6427.0853-2.496.128-.8107.0427-1.9413.064-3.392.064-1.4507 0-3.6267-.0427-6.528-.128-.6827.0427-1.3653.064-2.048.064-.6827 0-1.3227-.128-1.92-.384-1.3227-.5547-2.2187-1.8347-2.688-3.84-.2133-.9387-.448-1.6-.704-1.984-.2987-.384-.5333-.7467-.704-1.088-.4267-.6827-.384-1.8133.128-3.392.4693-1.5787 1.088-3.52 1.856-5.824.768-2.3467 1.6427-4.8213 2.624-7.424 2.304-6.1867 4.3733-11.0933 6.208-14.72.7253-1.6213 1.344-3.0293 1.856-4.224.5547-1.1947 1.0453-2.2187 1.472-3.072.4267-.896.64-1.3653.64-1.408.4267-1.6213 2.0693-2.9867 4.928-4.096 2.7733-1.152 5.2907-1.4507 7.552-.896 2.5173.64 3.6267 2.304 3.328 4.992-.5973 2.6453-1.4933 5.2907-2.688 7.936-1.152 2.6453-2.4747 5.4187-3.968 8.32s-3.1147 5.9733-4.864 9.216c-1.7493 3.2427-3.4773 6.7627-5.184 10.56-.0427.1707.0427.32.256.448.5547-.0427 1.3227-.2133 2.304-.512 1.024-.2987 2.0693-.5547 3.136-.768 1.1093-.256 2.1973-.384 3.264-.384s1.9627.2773 2.688.832c-.0427.768.1493 1.3867.576 1.856l1.28 1.28c1.0667 1.1093 1.152 2.5813.256 4.416-.8533 1.792-2.3893 3.008-4.608 3.648Z"/></mask><path d="M65.2705 78.072c-.896.256-1.7493.384-2.56.384-.8107.0427-1.6427.0853-2.496.128-.8107.0427-1.9413.064-3.392.064-1.4507 0-3.6267-.0427-6.528-.128-.6827.0427-1.3653.064-2.048.064-.6827 0-1.3227-.128-1.92-.384-1.3227-.5547-2.2187-1.8347-2.688-3.84-.2133-.9387-.448-1.6-.704-1.984-.2987-.384-.5333-.7467-.704-1.088-.4267-.6827-.384-1.8133.128-3.392.4693-1.5787 1.088-3.52 1.856-5.824.768-2.3467 1.6427-4.8213 2.624-7.424 2.304-6.1867 4.3733-11.0933 6.208-14.72.7253-1.6213 1.344-3.0293 1.856-4.224.5547-1.1947 1.0453-2.2187 1.472-3.072.4267-.896.64-1.3653.64-1.408.4267-1.6213 2.0693-2.9867 4.928-4.096 2.7733-1.152 5.2907-1.4507 7.552-.896 2.5173.64 3.6267 2.304 3.328 4.992-.5973 2.6453-1.4933 5.2907-2.688 7.936-1.152 2.6453-2.4747 5.4187-3.968 8.32s-3.1147 5.9733-4.864 9.216c-1.7493 3.2427-3.4773 6.7627-5.184 10.56-.0427.1707.0427.32.256.448.5547-.0427 1.3227-.2133 2.304-.512 1.024-.2987 2.0693-.5547 3.136-.768 1.1093-.256 2.1973-.384 3.264-.384s1.9627.2773 2.688.832c-.0427.768.1493 1.3867.576 1.856l1.28 1.28c1.0667 1.1093 1.152 2.5813.256 4.416-.8533 1.792-2.3893 3.008-4.608 3.648Z" fill="url(#a)"/><path d="m65.2705 78.072 2.7472 9.6152.0122-.0034.0122-.0036-2.7716-9.6082Zm-2.56.384v-10h-.263l-.2626.0138.5256 9.9862Zm-2.496.128-.4994-9.9875-.0131.0006-.0131.0007.5256 9.9862Zm-9.92-.064.294-9.9957-.4592-.0135-.4586.0287.6238 9.9805Zm-3.968-.32 3.9392-9.1915-.0359-.0153-.036-.0151L46.3265 78.2Zm-2.688-3.84-9.7513 2.2162.0071.0314.0073.0312 9.7369-2.2788Zm-.704-1.984 8.3205-5.547-.2027-.304-.2243-.2884-7.8935 6.1394Zm-.704-1.088 8.9443-4.4721-.2125-.425-.2518-.4029-8.48 5.3Zm.128-3.392 9.5122 3.085.038-.1172.0352-.1181-9.5854-2.8497Zm1.856-5.824 9.4868 3.1623.0087-.0259.0085-.026-9.504-3.1104Zm2.624-7.424 9.357 3.528.0071-.019.0071-.019-9.3712-3.49Zm6.208-14.72 8.9232 4.5141.1076-.2128.0974-.2176-9.1282-4.0837Zm1.856-4.224-9.0701-4.2111-.0627.135-.0587.1369 9.1915 3.9392Zm1.472-3.072 8.9443 4.4721.043-.086.0413-.0868-9.0286-4.2993Zm.64-1.408-9.6707-2.5449-.3293 1.2511v1.2938h10Zm4.928-4.096 3.6177 9.3227.1097-.0426.1087-.0451-3.8361-9.235Zm7.552-.896 2.464-9.6917-.0409-.0104-.0409-.01-2.3822 9.7121Zm3.328 4.992 9.7544 2.2026.1229-.544.0615-.5543-9.9388-1.1043Zm-2.688 7.936-9.1137-4.1159-.0277.0614-.0269.0618 9.1683 3.9927Zm-3.968 8.32 8.8914 4.5764-8.8914-4.5764Zm-4.864 9.216 8.801 4.7479-8.801-4.7479Zm-5.184 10.56-9.1211-4.0994-.3646.8112-.2157.8628 9.7014 2.4254Zm.256.448-5.145 8.5749 2.7336 1.6401 3.1784-.2445-.767-9.9705Zm2.304-.512-2.8-9.6-.0559.0163-.0557.017 2.9116 9.5667Zm3.136-.768 1.9612 9.8058.1441-.0288.1433-.0331-2.2486-9.7439Zm5.952.448 9.9846.5547.2935-5.2837-4.2036-3.2146-6.0745 7.9436Zm.576 1.856-7.3994 6.7267.1601.1761.1682.1683 7.0711-7.0711Zm1.28 1.28 7.2083-6.9311-.0679-.0706-.0693-.0694-7.0711 7.0711Zm.256 4.416-8.9857-4.3884-.0217.0444-.0212.0447 9.0286 4.2993Zm-7.3552-5.9672c-.1331.038-.0579-.0008.1872-.0008v20c1.8664 0 3.6483-.2948 5.3072-.7688l-5.4944-19.2304Zm-.3384.013c-.8015.0422-1.6247.0844-2.4698.1267l.9988 19.975c.8616-.0431 1.7023-.0862 2.5222-.1293l-1.0512-19.9724Zm-2.496.128c-.5507.029-1.478.0502-2.8664.0502v20c1.5129 0 2.8469-.0215 3.9176-.0778l-1.0512-19.9724Zm-2.8664.0502c-1.2982 0-3.3544-.039-6.234-.1237l-.588 19.9914c2.9231.0859 5.2188.1323 6.822.1323v-20Zm-7.1518-.1085c-.4754.0297-.95.0445-1.4242.0445v20c.8912 0 1.7818-.0279 2.6718-.0835l-1.2476-19.961Zm-1.4242.0445c.602 0 1.3094.1203 2.0192.4245l-7.8784 18.383c1.9045.8162 3.8919 1.1925 5.8592 1.1925v-20Zm1.9473.3941c1.2357.5182 2.1262 1.3473 2.661 2.1113.474.677.5525 1.1283.5206.9918l-19.4738 4.5576c.8619 3.6826 3.1351 8.5092 8.5576 10.7831l7.7346-18.4438Zm3.196 3.1657c-.2547-1.1209-.8018-3.3152-2.1348-5.3148L34.614 77.923c-.2702-.4054-.4438-.7448-.5439-.9579-.103-.2195-.1637-.3816-.1919-.461-.0516-.1455-.0403-.1447.009.0721l19.5026-4.4324Zm-2.5618-5.9072c.0013.0017.1556.1969.3468.5793l-17.8886 8.9442c.5325 1.065 1.1561 1.9856 1.7548 2.7553l15.787-12.2788Zm-.1175-.2486c1.1983 1.9173 1.2496 3.6631 1.2249 4.3171-.0255.675-.1559.9572-.0647.6759l-19.0244-6.17c-.4208 1.2974-.8285 2.9342-.8967 4.7399-.0673 1.7846.176 4.4372 1.8009 7.0371l16.96-10.6Zm1.2334 4.7577c.4274-1.4376 1.0095-3.2675 1.7574-5.5114l-18.9736-6.3246c-.7881 2.3641-1.4433 4.4169-1.9546 6.1366l19.1708 5.6994Zm1.7746-5.5633c.7168-2.1902 1.5413-4.5249 2.477-7.0064l-18.714-7.056c-1.027 2.7238-1.9518 5.3385-2.771 7.8416l19.008 6.2208Zm2.4912-7.0444c2.2433-6.0237 4.1644-10.5418 5.76-13.6959l-17.8464-9.0282c-2.0737 4.0992-4.2913 9.3945-6.656 15.7441l18.7424 6.98Zm5.965-14.1263c.7396-1.6533 1.3806-3.1117 1.9193-4.3685l-18.383-7.8784c-.4853 1.1325-1.0817 2.4902-1.7927 4.0795l18.2564 8.1674Zm1.7979-4.0966c.528-1.1373.9754-2.0695 1.3462-2.811l-17.8886-8.9442c-.4825.9651-1.0165 2.081-1.5978 3.333l18.1402 8.4222Zm1.4305-2.9838c.2202-.4623.4108-.8679.5551-1.1853.0669-.1471.1587-.3518.2471-.5638.0386-.0927.1246-.3011.2166-.5588.043-.1204.1333-.3787.2253-.7099.0082-.0298.3673-1.1957.3673-2.6895h-20c0-.9083.1268-1.6101.1793-1.8832.0665-.3457.1384-.6196.183-.7803.0887-.3192.1739-.5621.2103-.6639.0787-.2204.1447-.3781.1566-.4068.035-.084.0469-.1073.0071-.0198-.069.1519-.1984.429-.4049.8627l18.0572 8.5986Zm1.2821-3.1624c-.446 1.695-1.3862 2.6225-1.7267 2.9055-.285.2369-.2207.0954.6017-.2237l-7.2354-18.6454c-3.4825 1.3514-9.258 4.3261-10.981 10.8738l19.3414 5.0898Zm-.9066 2.5941c.6887-.2861 1.1152-.3695 1.3101-.3926.1742-.0207.1562.0062.0236-.0263l4.7644-19.4242c-4.8617-1.1925-9.5998-.3592-13.7703 1.3731l7.6722 18.47Zm1.2519-.4393c-.4034-.1026-1.9493-.6358-3.1365-2.4167-1.1472-1.7208-1.0291-3.2188-1.0103-3.3873l19.8776 2.2086c.3174-2.8565.0302-6.5305-2.2263-9.9153-2.2966-3.4449-5.6557-5.1301-8.5765-5.8727l-4.928 19.3834Zm-3.9624-6.9023c-.4388 1.9434-1.1108 3.9491-2.0473 6.0227l18.2274 8.2318c1.4529-3.2171 2.5729-6.502 3.3287-9.8493l-19.5088-4.4052Zm-2.1019 6.1459c-1.0558 2.4243-2.2838 5.0022-3.6911 7.7363l17.7828 9.1528c1.5794-3.0686 2.9967-6.0373 4.2449-8.9037l-18.3366-7.9854Zm-3.6911 7.7363c-1.4602 2.8371-3.0511 5.8516-4.7736 9.0445l17.602 9.4958c1.7762-3.2924 3.428-6.4219 4.9544-9.3875l-17.7828-9.1528Zm-4.7736 9.0445c-1.8774 3.48-3.711 7.2189-5.5041 11.2085l18.2422 8.1988c1.6203-3.6051 3.2426-6.9062 4.8639-9.9115l-17.602-9.4958Zm-6.0844 12.8825c-.6309 2.5234-.3031 5.2571 1.051 7.6268 1.1888 2.0804 2.7998 3.2445 3.7614 3.8215l10.29-17.1498c.7483.449 2.21 1.4745 3.3134 3.4055 1.2688 2.2204 1.5752 4.7941.987 7.1468l-19.4028-4.8508Zm10.7244 12.8439c1.6529-.1271 3.249-.5507 4.4486-.9158l-5.8232-19.1334c-.1527.0464-.2772.0819-.3757.1083-.0991.0266-.1626.0415-.194.0485-.0327.0073-.0169.0028.041-.0065.0552-.0089.1828-.0278.3693-.0421l1.534 19.941Zm4.337-.8825c.7421-.2164 1.5074-.4042 2.2972-.5622l-3.9224-19.6116c-1.3435.2687-2.6689.5929-3.9748.9738l5.6 19.2Zm2.5846-.6241c.4212-.0972.7545-.1279 1.0154-.1279v-20c-1.8724 0-3.7151.2253-5.5126.6401l4.4972 19.4878Zm1.0154-.1279c-.7452 0-2.0855-.2296-3.3865-1.2244l12.149-15.8872c-2.7516-2.1042-5.884-2.8884-8.7625-2.8884v20Zm-7.2966-9.7227c-.1575 2.835.5597 6.2757 3.1612 9.1374l14.7988-13.4534c.7916.8707 1.3594 1.8902 1.6872 2.9467.3164 1.0195.3547 1.891.322 2.4787l-19.9692-1.1094Zm3.4895 9.4818c.4267.4266.8534.8533 1.28 1.28l14.1422-14.1422c-.4267-.4266-.8534-.8533-1.28-1.28L61.2714 75.7991Zm1.1428 1.14c-1.0407-1.0823-1.8092-2.6608-1.9109-4.4164-.0877-1.5118.36-2.4267.3895-2.4871l17.9714 8.7768c.9255-1.8951 1.7785-4.4633 1.6055-7.4471-.1871-3.2276-1.5315-6.0967-3.6389-8.2884L62.4142 76.9391Zm-1.5643-6.8144c.2218-.4658.5825-.9312 1.0296-1.2852.4163-.3295.699-.3987.6194-.3757l5.5432 19.2164c4.4727-1.2902 8.5761-4.1502 10.865-8.9569l-18.0572-8.5986Z" fill="#000" mask="url(#b)"/><defs><linearGradient id="a" x1="57.4188" y1="24.8744" x2="67.7697" y2="78.8037" gradientUnits="userSpaceOnUse"><stop offset=".090625" stop-color="#F323F7"/><stop offset=".215625" stop-color="#FA7529"/><stop offset=".355625" stop-color="#F3F723"/><stop offset=".490625" stop-color="#7BF723"/><stop offset=".563025" stop-color="#4FF786"/><stop offset=".630625" stop-color="#23F7EA"/><stop offset=".765625" stop-color="#2347F7"/><stop offset=".900625" stop-color="#C31AFF"/></linearGradient></defs></svg>