<svg width="204" height="199" fill="none" xmlns="http://www.w3.org/2000/svg"><mask id="b" maskUnits="userSpaceOnUse" x="43" y="27" width="125" height="153" fill="#000"><path fill="#fff" d="M43 27h125v153H43z"/><path d="M87.109 65.264c5.376-6.144 11.3493-9.984 17.92-11.52 4.523-1.1093 8.789-.9387 12.8.512 3.157-3.328 7.253-4.5227 12.288-3.584 4.608.8533 8.533 3.456 11.776 7.808.171.5973.512 1.4933 1.024 2.688.597 1.1947 1.152 2.5173 1.664 3.968 3.755 8.704 4.053 20.1387.896 34.304-3.925 17.579-10.88 32.469-20.864 44.672-3.072 3.755-6.528 6.869-10.368 9.344-6.144 4.693-13.483 6.784-22.016 6.272-5.2907-.256-9.728-1.579-13.312-3.968-14.2507-7.083-18.9013-21.845-13.952-44.288 4.096-18.432 11.4773-33.8347 22.144-46.208Zm1.536 67.968-.128.768.256 1.408c.512 2.645 1.3653 4.693 2.56 6.144 1.1947 1.365 2.176 2.219 2.944 2.56.8533-.683 1.7067-1.323 2.56-1.92s1.6213-1.323 2.304-2.176c5.803-7.168 10.325-16.555 13.568-28.16 3.243-11.605 4.437-22.3573 3.584-32.256-3.328 4.2667-6.827 9.1733-10.496 14.72-3.669 5.5467-6.5707 10.283-8.704 14.208-4.864 9.131-7.68 17.365-8.448 24.704Z"/></mask><path d="M87.109 65.264c5.376-6.144 11.3493-9.984 17.92-11.52 4.523-1.1093 8.789-.9387 12.8.512 3.157-3.328 7.253-4.5227 12.288-3.584 4.608.8533 8.533 3.456 11.776 7.808.171.5973.512 1.4933 1.024 2.688.597 1.1947 1.152 2.5173 1.664 3.968 3.755 8.704 4.053 20.1387.896 34.304-3.925 17.579-10.88 32.469-20.864 44.672-3.072 3.755-6.528 6.869-10.368 9.344-6.144 4.693-13.483 6.784-22.016 6.272-5.2907-.256-9.728-1.579-13.312-3.968-14.2507-7.083-18.9013-21.845-13.952-44.288 4.096-18.432 11.4773-33.8347 22.144-46.208Zm1.536 67.968-.128.768.256 1.408c.512 2.645 1.3653 4.693 2.56 6.144 1.1947 1.365 2.176 2.219 2.944 2.56.8533-.683 1.7067-1.323 2.56-1.92s1.6213-1.323 2.304-2.176c5.803-7.168 10.325-16.555 13.568-28.16 3.243-11.605 4.437-22.3573 3.584-32.256-3.328 4.2667-6.827 9.1733-10.496 14.72-3.669 5.5467-6.5707 10.283-8.704 14.208-4.864 9.131-7.68 17.365-8.448 24.704Z" fill="url(#a)"/><path d="M87.109 65.264 72.0575 52.0939l-.0486.0555-.0481.0558L87.109 65.264Zm17.92-11.52 4.553 19.475.106-.0248.105-.026-4.764-19.4242Zm12.8.512-6.803 18.8075 12.306 4.451 9.006-9.4933-14.509-13.7652Zm12.288-3.584-3.666 19.6612.012.0022.012.0022 3.642-19.6656Zm11.776 7.808 19.231-5.4943-1.006-3.5199-2.187-2.9354L141.893 58.48Zm1.024 2.688-18.383 7.8784.232.5402.262.5256 17.889-8.9442Zm1.664 3.968-18.86 6.6564.226.6411.27.6243 18.364-7.9218Zm.896 34.304 19.519 4.359.002-.008-19.521-4.351Zm-20.864 44.672 15.479 12.665-15.479-12.665Zm-10.368 9.344-10.834-16.811-.672.432-.635.486 12.141 15.893Zm-22.016 6.272 1.1978-19.964-.1155-.007-.1157-.006-.9666 19.977Zm-13.312-3.968 11.094-16.641-1.0561-.704-1.1366-.565-8.9013 17.91Zm-13.952-44.288-19.5237-4.339-.0035.016-.0035.016 19.5307 4.307Zm23.68 21.76 19.728 3.288.1-.601.063-.605-19.891-2.082Zm-.128.768-19.7279-3.288-.5728 3.437.6233 3.429L88.517 134Zm.256 1.408-19.6774 3.578.0203.111.0215.111 19.6356-3.8Zm2.56 6.144-15.4386 12.714.1901.231.197.225 15.0515-13.17Zm2.944 2.56-8.1228 18.276 11.117 4.941 9.4998-7.6-12.494-15.617Zm2.56-1.92-11.4693-16.385 11.4693 16.385Zm2.304-2.176-15.5449-12.584-.0364.045-.0361.045 15.6174 12.494Zm13.568-28.16 19.262 5.382-19.262-5.382Zm3.584-32.256 19.926-1.7178-4.374-50.7393-31.322 40.1565L116.293 79.6Zm-10.496 14.72L89.1166 83.2853 105.797 94.32Zm-8.704 14.208-17.5725-9.5503-.0399.0734-.0392.0737 17.6516 9.4032Zm5.068-30.0939c3.211-3.6704 5.716-4.8167 7.421-5.2151l-9.106-38.95c-11.4362 2.6735-20.8781 9.2073-28.4185 17.8249l30.1035 26.3402Zm7.632-5.2659c.606-.1485.928-.1482 1.029-.1442.086.0035.13.0127.204.0395l13.606-37.615c-8.062-2.9159-16.38-3.0879-24.367-1.1287l9.528 38.8484Zm22.545-5.147c-.668.7044-1.864 1.5746-3.469 2.0428-1.507.4395-2.464.2605-2.418.2692l7.332-39.3224c-10.785-2.0106-22.032.5925-30.463 9.48l29.018 27.5304Zm-5.863 2.3164c-.147-.0272-.335-.078-.538-.1602-.202-.0822-.363-.1724-.472-.2446-.227-.1505-.06-.1076.39.4968l32.076-23.8992c-5.746-7.7107-13.828-13.6085-24.172-15.524l-7.284 39.3312Zm-3.812-6.3633c.537 1.8827 1.304 3.7482 1.871 5.0721L161.3 53.2896c-.089-.2078-.161-.38-.218-.5196-.057-.1406-.095-.2356-.115-.2899-.022-.0568-.017-.0475.005.0174.012.0344.031.0915.056.169.024.0768.057.1845.096.3192l-38.461 10.9886Zm2.365 6.1379c.176.3517.417.897.693 1.6802l37.72-13.3128c-.748-2.1182-1.617-4.2182-2.635-6.2558l-35.778 17.8884Zm1.189 2.9456c1.412 3.2745 2.437 9.9269-.261 22.0311l39.042 8.7021c3.617-16.2264 4.044-32.4433-2.053-46.5768l-36.728 15.8436Zm-.259 22.0235c-3.343 14.9687-9.081 26.9027-16.824 36.3657l30.958 25.33c12.225-14.942 20.396-32.79 24.904-52.978l-39.038-8.7177Zm-16.824 36.3657c-1.832 2.239-3.744 3.922-5.723 5.198l21.668 33.622c5.701-3.674 10.701-8.22 15.013-13.49l-30.958-25.33Zm-7.03 6.116c-1.918 1.465-4.3909 2.458-8.6772 2.201l-2.3956 39.928c12.7808.767 24.9858-2.422 35.3548-10.343l-24.282-31.786Zm-8.9084 2.188c-1.2621-.061-2.0771-.233-2.5495-.374-.452-.134-.6205-.248-.6351-.258l-22.188 33.282c7.2176 4.812 15.3609 6.913 23.4394 7.304l1.9332-39.954Zm-5.3773-1.901c-2.4118-1.199-3.3605-2.449-4.0015-4.483-.8835-2.805-1.3814-8.246.6789-17.588l-39.0614-8.614c-2.8891 13.1-3.5363 26.262.2309 38.22 4.0097 12.729 12.5116 22.401 24.3505 28.285l17.8026-35.82Zm-3.3296-22.039c3.4921-15.714 9.5723-27.9807 17.7683-37.4882L71.9608 52.2052C58.8236 67.4443 50.1412 85.9835 45.4413 107.133l39.0474 8.678Zm-15.5716 14.133-.128.768 39.4559 6.576.128-.768-39.4559-6.576Zm-.0775 7.634.256 1.408 39.3544-7.156-.256-1.408-39.3544 7.156Zm.2978 1.63c.8882 4.589 2.721 10.157 6.757 15.058l30.8776-25.428c.853 1.036 1.29 1.926 1.487 2.398.192.463.2.633.15.372l-39.2716 7.6Zm7.1441 15.514c1.3924 1.591 4.8098 5.416 9.8727 7.666L102.4 125.836c1.152.512 2.006 1.043 2.54 1.408.548.374.934.693 1.149.88.403.35.509.502.296.258l-30.1035 26.34Zm30.4895 5.007c.536-.429 1.048-.811 1.535-1.152l-22.9383-32.77c-1.2195.854-2.4142 1.751-3.5846 2.688l24.9879 31.234Zm1.535-1.152c2.49-1.743 4.638-3.799 6.452-6.067l-31.2344-24.988c.449-.561 1.0614-1.167 1.8441-1.715l22.9383 32.77Zm6.38-5.977c7.96-9.833 13.523-21.896 17.285-35.362l-38.5242-10.764c-2.7229 9.745-6.2054 16.455-9.8507 20.958L114.686 152.6Zm17.285-35.362c3.755-13.436 5.346-26.622 4.248-39.3558l-39.8521 3.4356c.6089 7.0636-.1891 15.3819-2.9201 25.1562l38.5242 10.764Zm-31.448-49.9386c-3.7102 4.7566-7.5122 10.0994-11.4064 15.9859l33.3604 22.0697c3.445-5.207 6.64-9.6777 9.586-13.4544l-31.54-24.6012ZM89.1166 83.2853c-3.8504 5.8203-7.0892 11.0797-9.5961 15.6924l35.1445 19.1003c1.76-3.238 4.324-7.45 7.812-12.723L89.1166 83.2853Zm-9.6752 15.8395c-5.6235 10.5562-9.5671 21.3172-10.6878 32.0252l39.7824 4.164c.416-3.969 2.104-9.678 6.209-17.383L79.4414 99.1248Z" fill="#000" mask="url(#b)"/><defs><linearGradient id="a" x1="100.978" y1="50" x2="124.503" y2="157.236" gradientUnits="userSpaceOnUse"><stop offset=".090625" stop-color="#F323F7"/><stop offset=".215625" stop-color="#FA7529"/><stop offset=".355625" stop-color="#F3F723"/><stop offset=".490625" stop-color="#7BF723"/><stop offset=".563025" stop-color="#4FF786"/><stop offset=".630625" stop-color="#23F7EA"/><stop offset=".765625" stop-color="#2347F7"/><stop offset=".900625" stop-color="#C31AFF"/></linearGradient></defs></svg>