<svg width="116" height="99" fill="none" xmlns="http://www.w3.org/2000/svg"><mask id="a" maskUnits="userSpaceOnUse" x="28" y="13" width="63" height="77" fill="#000"><path fill="#fff" d="M28 13h63v77H28z"/><path d="M50.5545 32.632c2.688-3.072 5.6747-4.992 8.96-5.76 2.2613-.5547 4.3947-.4693 6.4.256 1.5787-1.664 3.6267-2.2613 6.144-1.792 2.304.4267 4.2667 1.728 5.888 3.904.0853.2987.256.7467.512 1.344.2987.5973.576 1.2587.832 1.984 1.8773 4.352 2.0267 10.0693.448 17.152-1.9627 8.7893-5.44 16.2347-10.432 22.336-1.536 1.8773-3.264 3.4347-5.184 4.672-3.072 2.3467-6.7413 3.392-11.008 3.136-2.6453-.128-4.864-.7893-6.656-1.984-7.1253-3.5413-9.4507-10.9227-6.976-22.144 2.048-9.216 5.7387-16.9173 11.072-23.104Zm.768 33.984-.064.384.128.704c.256 1.3227.6827 2.3467 1.28 3.072.5973.6827 1.088 1.1093 1.472 1.28.4267-.3413.8533-.6613 1.28-.96.4267-.2987.8107-.6613 1.152-1.088 2.9013-3.584 5.1627-8.2773 6.784-14.08 1.6213-5.8027 2.2187-11.1787 1.792-16.128-1.664 2.1333-3.4133 4.5867-5.248 7.36-1.8347 2.7733-3.2853 5.1413-4.352 7.104-2.432 4.5653-3.84 8.6827-4.224 12.352Z"/></mask><path d="M50.5545 32.632c2.688-3.072 5.6747-4.992 8.96-5.76 2.2613-.5547 4.3947-.4693 6.4.256 1.5787-1.664 3.6267-2.2613 6.144-1.792 2.304.4267 4.2667 1.728 5.888 3.904.0853.2987.256.7467.512 1.344.2987.5973.576 1.2587.832 1.984 1.8773 4.352 2.0267 10.0693.448 17.152-1.9627 8.7893-5.44 16.2347-10.432 22.336-1.536 1.8773-3.264 3.4347-5.184 4.672-3.072 2.3467-6.7413 3.392-11.008 3.136-2.6453-.128-4.864-.7893-6.656-1.984-7.1253-3.5413-9.4507-10.9227-6.976-22.144 2.048-9.216 5.7387-16.9173 11.072-23.104Zm.768 33.984-.064.384.128.704c.256 1.3227.6827 2.3467 1.28 3.072.5973.6827 1.088 1.1093 1.472 1.28.4267-.3413.8533-.6613 1.28-.96.4267-.2987.8107-.6613 1.152-1.088 2.9013-3.584 5.1627-8.2773 6.784-14.08 1.6213-5.8027 2.2187-11.1787 1.792-16.128-1.664 2.1333-3.4133 4.5867-5.248 7.36-1.8347 2.7733-3.2853 5.1413-4.352 7.104-2.432 4.5653-3.84 8.6827-4.224 12.352Z" fill="#F3F3F3"/><path d="m50.5545 32.632-7.5258-6.5851-.0242.0278-.0241.0279 7.5741 6.5294Zm8.96-5.76 2.2763 9.7375.053-.0124.0529-.013-2.3822-9.7121Zm6.4.256-3.4014 9.4038 6.1528 2.2254 4.5032-4.7466-7.2546-6.8826Zm6.144-1.792-1.8328 9.8306.0119.0022 1.8209-9.8328Zm5.888 3.904 9.6153-2.7472-.5029-1.7599-1.0936-1.4677-8.0188 5.9748Zm.512 1.344-9.1914 3.9392.1157.2701.1314.2628 8.9443-4.4721Zm.832 1.984-9.4299 3.3282.1131.3206.1347.3121 9.1821-3.9609Zm.448 17.152 9.7596 2.1793.0009-.0038-9.7605-2.1755Zm-10.432 22.336 7.7396 6.3324-7.7396-6.3324Zm-5.184 4.672-5.417-8.4057-.3359.2164-.3175.2426 6.0704 7.9467Zm-11.008 3.136.5989-9.982-.0578-.0035-.0578-.0028-.4833 9.9883Zm-6.656-1.984 5.547-8.3205-.528-.352-.5683-.2825-4.4507 8.955Zm-6.976-22.144-9.7619-2.1693-.0017.0079-.0018.0078 9.7654 2.1536Zm11.84 10.88 9.8639 1.644.0501-.3004.0317-.3028-9.9457-1.0408Zm-.064.384-9.8639-1.644-.2865 1.7186.3117 1.7142L51.2585 67Zm.128.704-9.8387 1.7888.0101.0558.0108.0556 9.8178-1.9002Zm1.28 3.072-7.7193 6.3571.0951.1154.0984.1125 7.5258-6.585Zm1.472 1.28-4.0614 9.1381 5.5585 2.4705 4.7498-3.7999-6.2469-7.8087Zm1.28-.96-5.7346-8.1923 5.7346 8.1923Zm1.152-1.088-7.7724-6.292-.0182.0225-.0181.0225 7.8087 6.247Zm6.784-14.08 9.6311 2.691-9.6311-2.691Zm1.792-16.128 9.963-.8589-2.187-25.3697-15.661 20.0783 7.885 6.1503Zm-5.248 7.36-8.3402-5.5174 8.3402 5.5174Zm-4.352 7.104-8.7862-4.7751-.02.0366-.0196.0369 8.8258 4.7016Zm2.5338-15.047c1.6058-1.8351 2.8582-2.4083 3.7105-2.6075l-4.5526-19.475c-5.7183 1.3368-10.4393 4.6036-14.2095 8.9124L58.0803 39.217Zm3.8164-2.6329c.3028-.0743.4638-.0741.5141-.0721.0431.0017.0653.0064.1023.0198l6.8028-18.8076c-4.0308-1.4579-8.1899-1.5439-12.1836-.5643l4.7644 19.4242Zm11.2724-2.5735c-.3341.3522-.9319.7873-1.7346 1.0214-.7534.2198-1.2322.1302-1.2088.1346l3.6656-19.6612c-5.3921-1.0053-11.0156.2962-15.2314 4.74l14.5092 13.7652Zm-2.9315 1.1582c-.0737-.0136-.1674-.039-.2689-.0801-.1014-.0411-.1819-.0862-.2363-.1223-.1135-.0752-.0299-.0538.1953.2484l16.0376-11.9496c-2.8726-3.8554-6.914-6.8043-12.0859-7.762l-3.6418 19.6656Zm-1.9063-3.1816c.2689.9413.6521 1.8741.9358 2.536l18.3828-7.8784c-.0445-.1039-.0804-.19-.1089-.2598-.0287-.0703-.0473-.1178-.0576-.145-.0108-.0284-.0086-.0237.0026.0088.0059.0171.0155.0457.0278.0844.0121.0384.0287.0923.048.1596l-19.2305 5.4944Zm1.1829 3.0689c.0879.1759.2082.4485.3464.8401l18.8598-6.6564c-.3738-1.0591-.8082-2.1091-1.3176-3.1279l-17.8886 8.9442Zm.5942 1.4728c.7062 1.6372 1.2186 4.9634-.1304 11.0156l19.521 4.351c1.8084-8.1132 2.022-16.2216-1.0264-23.2884l-18.3642 7.9218Zm-.1295 11.0118c-1.6713 7.4842-4.5405 13.4511-8.412 18.1829l15.4792 12.6648c6.1125-7.4708 10.198-16.3947 12.452-26.4891l-19.5192-4.3586Zm-8.412 18.1829c-.9158 1.1194-1.872 1.9611-2.8614 2.5987l10.834 16.8114c2.8506-1.837 5.3504-4.1101 7.5066-6.7453L61.5669 65.7236Zm-3.5148 3.0577c-.9593.7328-2.1956 1.2292-4.3387 1.1007l-1.1978 19.964c6.3902.3835 12.4927-1.2108 17.6773-5.1713L58.0521 68.7813Zm-4.4543 1.0944c-.631-.0305-1.0386-.1166-1.2747-.187-.2261-.0674-.3103-.1243-.3176-.1292l-11.094 16.641c3.6088 2.4059 7.6804 3.4564 11.7197 3.6518l.9666-19.9766Zm-2.6886-.9507c-1.2059-.5993-1.6803-1.2244-2.0008-2.2417-.4417-1.4022-.6907-4.1226.3395-8.7937l-19.5308-4.3072c-1.4445 6.5502-1.7681 13.1312.1155 19.1103 2.0049 6.3641 6.2558 11.2003 12.1752 14.1423l8.9014-17.91Zm-1.6648-11.0197c1.746-7.857 4.7861-13.9901 8.8842-18.7439L42.9804 26.1026c-6.5686 7.6196-10.9098 16.8891-13.2598 27.4641l19.5238 4.3386Zm-7.7858 7.0667-.064.384 19.7278 3.288.064-.384-19.7278-3.288Zm-.0388 3.8168.128.704 19.6774-3.5776-.128-.704-19.6774 3.5776Zm.1489.8154c.4441 2.2945 1.3605 5.0784 3.3785 7.5289l15.4386-12.7142c.4265.5179.6453.9632.7435 1.1989.0964.2315.1003.3169.075.186l-19.6356 3.8004Zm3.572 7.7568c.6963.7957 2.405 2.708 4.9364 3.8331l8.1228-18.2762c.576.256 1.0032.5218 1.2702.7041.2741.1872.4668.3465.5742.4399.2015.1753.2547.251.148.1291l-15.0516 13.17Zm15.2447 2.5037c.2682-.2145.5242-.4059.7677-.5764L49.6839 62.9037c-.6098.4268-1.2071.8754-1.7923 1.3436l12.4938 15.6174Zm.7677-.5764c1.2447-.8713 2.3189-1.8994 3.2261-3.0333L48.7618 63.761c.2245-.2806.5307-.5834.9221-.8573l11.4692 16.3846ZM64.343 76.3c3.98-4.9165 6.7614-10.9482 8.6426-17.681l-19.2622-5.382c-1.3615 4.8725-3.1027 8.2275-4.9253 10.479L64.343 76.3Zm8.6426-17.681c1.8772-6.7182 2.6728-13.311 2.1239-19.6779l-19.926 1.7178c.3044 3.5318-.0946 7.691-1.4601 12.5781l19.2622 5.382ZM57.2615 33.6497c-1.8551 2.3783-3.7561 5.0497-5.7032 7.9929l16.6804 11.0348c1.7222-2.6035 3.3199-4.8387 4.7928-6.7271l-15.77-12.3006Zm-5.7032 7.9929c-1.9252 2.9102-3.5446 5.5399-4.798 7.8463l17.5724 9.5502c.8799-1.6189 2.1619-3.7253 3.906-6.3617L51.5583 41.6426Zm-4.8376 7.9198c-2.8118 5.2782-4.7836 10.6585-5.3439 16.0128l19.8914 2.0816c.2077-1.9844 1.0519-4.8387 3.1041-8.6912l-17.6516-9.4032Z" fill="#000" mask="url(#a)"/></svg>