<svg width="1884" height="473" viewBox="0 0 1884 473" fill="none" xmlns="http://www.w3.org/2000/svg">
<path d="M212.999 203.618C214.926 201.937 217.424 201.058 219.979 201.162L1241.94 242.759C1253.07 243.212 1255.24 258.764 1244.67 262.248L1175 285.211C1169.03 287.176 1166.34 294.089 1169.39 299.575L1194.45 344.549C1198.11 351.118 1193.48 359.225 1185.96 359.413L28.2131 388.308C18.8514 388.542 14.3331 376.932 21.3898 370.776L212.999 203.618Z" fill="url(#paint0_linear_1539_53)"/>
<path d="M1647.89 412C1647.89 418.773 1643.72 435.977 1635.63 442.212C1627.54 448.448 1615.69 454.088 1600.79 458.797C1585.89 463.506 1568.25 467.188 1548.91 469.623C1529.56 472.058 1508.92 473.197 1488.2 472.972C1467.49 472.747 1447.12 471.163 1428.32 468.313C1409.51 465.464 1392.65 461.408 1378.74 456.386C1364.83 451.364 1354.16 445.48 1347.35 439.082C1340.55 432.685 1333.62 418.758 1335 412L1493.34 422.5L1647.89 412Z" fill="#84A8FA"/>
<ellipse cx="1483.43" cy="318" rx="400.434" ry="111" fill="#CEDAFD"/>
<path opacity="0.8" d="M1849.19 280.511C1844.1 275.903 1838.08 272.261 1831.48 269.791C1817.59 264.587 1801.46 264.645 1786.98 271.206C1772.5 277.766 1762.56 289.517 1758.48 302.857C1756.54 309.197 1755.96 315.828 1756.77 322.374C1757.46 327.927 1759.15 333.466 1761.96 338.767C1764.76 344.068 1768.45 348.704 1772.77 352.613C1777.86 357.22 1783.88 360.862 1790.48 363.333C1804.37 368.537 1820.49 368.479 1834.98 361.917C1849.46 355.357 1859.4 343.606 1863.48 330.265C1865.42 323.924 1866 317.294 1865.19 310.747C1864.5 305.195 1862.81 299.657 1860 294.356C1857.2 289.055 1853.51 284.419 1849.19 280.511ZM1771.15 334.603C1768.3 329.212 1766.89 323.517 1766.71 317.875C1766.47 310.442 1768.4 303.088 1772.32 296.591C1775.78 290.831 1780.73 285.777 1787.02 282.045L1805.26 316.523L1791.59 353.432C1788.4 351.998 1785.41 350.217 1782.67 348.127C1777.83 344.431 1773.91 339.82 1771.15 334.603ZM1825.75 355.244C1817.88 357.821 1809.38 358.28 1801.24 356.567L1811.62 328.548L1825.75 355.244ZM1834.94 351.08L1820.82 324.384L1851.1 333.984C1847.57 340.982 1841.97 346.91 1834.94 351.08ZM1854.35 325.005L1814.46 312.36L1796.21 277.882C1803.25 275.574 1810.6 275.057 1817.64 276.058C1825.59 277.184 1833.06 280.277 1839.26 285.01C1844.1 288.698 1848.04 293.304 1850.81 298.517C1853.57 303.73 1855.1 309.43 1855.29 315.234C1855.39 318.514 1855.08 321.794 1854.35 325.005Z" fill="#84A8FA"/>
<path opacity="0.8" d="M1308.8 298.942C1309.39 295.653 1309.28 292.289 1308.47 289.04C1306.78 282.204 1302.08 276.032 1294.95 272.376C1287.81 268.719 1279.66 268.31 1272.5 270.612C1269.1 271.704 1265.96 273.402 1263.26 275.61C1260.97 277.483 1258.98 279.738 1257.41 282.35C1255.85 284.963 1254.84 287.721 1254.34 290.51C1253.75 293.799 1253.86 297.162 1254.67 300.412C1256.36 307.248 1261.06 313.42 1268.19 317.077C1275.33 320.733 1283.48 321.143 1290.64 318.841C1294.04 317.748 1297.18 316.05 1299.88 313.843C1302.17 311.97 1304.16 309.714 1305.73 307.102C1307.29 304.49 1308.3 301.732 1308.8 298.942ZM1261.94 284.671C1263.53 282.014 1265.68 279.824 1268.15 278.118C1271.42 275.873 1275.27 274.486 1279.32 274.104C1282.9 273.764 1286.6 274.199 1290.1 275.532L1279.93 292.522L1259.43 297.969C1259.14 296.33 1259.07 294.665 1259.22 293.01C1259.47 290.082 1260.4 287.239 1261.94 284.671ZM1268.51 311.602C1265.08 309.33 1262.41 306.202 1260.82 302.582L1276.38 298.446L1268.51 311.602ZM1273.04 313.923L1280.91 300.767L1285.38 315.168C1281.23 315.842 1276.95 315.41 1273.04 313.923ZM1290.35 313.813L1284.46 294.842L1294.63 277.852C1297.7 279.886 1300.06 282.555 1301.66 285.548C1303.45 288.922 1304.23 292.684 1303.9 296.434C1303.66 299.363 1302.73 302.209 1301.2 304.78C1299.66 307.351 1297.55 309.589 1295 311.342C1293.56 312.334 1292 313.163 1290.35 313.813Z" fill="#84A8FA"/>
<path opacity="0.8" d="M1723.82 379.942C1724.41 376.653 1724.3 373.289 1723.5 370.04C1721.81 363.204 1717.11 357.032 1709.97 353.376C1702.83 349.719 1694.69 349.31 1687.53 351.612C1684.12 352.704 1680.98 354.402 1678.28 356.61C1675.99 358.483 1674 360.738 1672.44 363.35C1670.87 365.963 1669.86 368.721 1669.36 371.51C1668.77 374.799 1668.89 378.162 1669.69 381.412C1671.38 388.248 1676.08 394.42 1683.22 398.077C1690.36 401.733 1698.5 402.143 1705.66 399.841C1709.07 398.748 1712.21 397.05 1714.91 394.843C1717.2 392.97 1719.19 390.714 1720.75 388.102C1722.31 385.49 1723.32 382.732 1723.82 379.942ZM1676.97 365.671C1678.56 363.014 1680.7 360.824 1683.18 359.118C1686.44 356.873 1690.3 355.486 1694.34 355.104C1697.93 354.764 1701.63 355.199 1705.12 356.532L1694.95 373.522L1674.45 378.969C1674.17 377.33 1674.1 375.665 1674.24 374.01C1674.5 371.082 1675.43 368.239 1676.97 365.671ZM1683.54 392.602C1680.1 390.33 1677.43 387.202 1675.84 383.582L1691.41 379.446L1683.54 392.602ZM1688.07 394.923L1695.94 381.767L1700.41 396.168C1696.25 396.842 1691.97 396.41 1688.07 394.923ZM1705.38 394.813L1699.48 375.842L1709.65 358.852C1712.73 360.886 1715.09 363.555 1716.68 366.548C1718.48 369.922 1719.25 373.684 1718.93 377.434C1718.68 380.363 1717.76 383.209 1716.22 385.78C1714.69 388.351 1712.57 390.589 1710.03 392.342C1708.59 393.334 1707.03 394.163 1705.38 394.813Z" fill="#84A8FA"/>
<g opacity="0.9">
<path opacity="0.2" d="M1401.24 301.502C1395.41 290.306 1389.28 276.358 1389.28 267.209C1389.28 261.811 1391.63 256.635 1395.81 252.818C1399.99 249.001 1405.65 246.857 1411.56 246.857C1417.47 246.857 1423.14 249.001 1427.31 252.818C1431.49 256.635 1433.84 261.811 1433.84 267.209C1433.84 276.358 1427.71 290.306 1421.88 301.502C1418.7 299.984 1415.15 299.191 1411.56 299.191C1407.97 299.191 1404.43 299.984 1401.24 301.502ZM1350.81 311.001C1359.48 315.576 1375.77 317.702 1389.3 318.689C1389.45 315.409 1390.47 312.21 1392.27 309.367C1394.06 306.523 1396.59 304.118 1399.62 302.356C1391.92 292.147 1381.76 280.325 1373.09 275.751C1367.97 273.052 1361.89 272.321 1356.18 273.718C1350.48 275.115 1345.61 278.526 1342.66 283.2C1339.7 287.875 1338.9 293.43 1340.43 298.643C1341.96 303.857 1345.69 308.302 1350.81 311.001ZM1392.27 329.719C1390.47 326.877 1389.45 323.678 1389.3 320.397C1375.77 321.384 1359.48 323.51 1350.81 328.084C1345.69 330.783 1341.96 335.229 1340.43 340.442C1338.9 345.656 1339.7 351.211 1342.66 355.886C1345.61 360.56 1350.48 363.971 1356.18 365.368C1361.89 366.765 1367.97 366.034 1373.09 363.335C1381.76 358.76 1391.92 346.938 1399.62 336.729C1396.58 334.971 1394.06 332.565 1392.27 329.719ZM1411.56 339.895C1407.97 339.9 1404.42 339.107 1401.24 337.583C1395.41 348.78 1389.28 362.727 1389.28 371.877C1389.28 377.274 1391.63 382.451 1395.81 386.268C1399.99 390.084 1405.65 392.229 1411.56 392.229C1417.47 392.229 1423.14 390.084 1427.31 386.268C1431.49 382.451 1433.84 377.274 1433.84 371.877C1433.84 362.727 1427.71 348.778 1421.88 337.582C1418.7 339.105 1415.16 339.9 1411.56 339.895ZM1472.31 328.084C1463.64 323.51 1447.35 321.384 1433.82 320.397C1433.67 323.677 1432.65 326.875 1430.85 329.719C1429.06 332.562 1426.53 334.967 1423.5 336.729C1431.2 346.938 1441.36 358.76 1450.03 363.335C1452.57 364.671 1455.36 365.539 1458.26 365.887C1461.16 366.236 1464.11 366.06 1466.94 365.368C1469.76 364.676 1472.41 363.483 1474.73 361.856C1477.05 360.229 1479 358.2 1480.46 355.886C1481.93 353.571 1482.88 351.016 1483.26 348.366C1483.64 345.716 1483.45 343.024 1482.69 340.442C1481.93 337.861 1480.63 335.441 1478.85 333.32C1477.06 331.2 1474.84 329.421 1472.31 328.084ZM1430.85 309.367C1432.66 312.208 1433.68 315.408 1433.82 318.689C1447.35 317.702 1463.64 315.576 1472.31 311.001C1474.84 309.665 1477.06 307.886 1478.85 305.765C1480.63 303.645 1481.93 301.225 1482.69 298.643C1483.45 296.062 1483.64 293.369 1483.26 290.719C1482.88 288.07 1481.93 285.515 1480.46 283.2C1479 280.885 1477.05 278.857 1474.73 277.23C1472.41 275.603 1469.76 274.409 1466.94 273.718C1464.11 273.026 1461.16 272.849 1458.26 273.198C1455.36 273.547 1452.57 274.414 1450.03 275.751C1441.36 280.325 1431.2 292.149 1423.5 302.358C1426.54 304.116 1429.06 306.52 1430.85 309.367Z" fill="#C31AFF"/>
<path d="M1475.12 323.095C1472.25 321.614 1469.22 320.423 1466.09 319.543C1469.22 318.662 1472.25 317.471 1475.12 315.99C1478.36 314.251 1481.2 311.934 1483.48 309.171C1485.76 306.409 1487.43 303.255 1488.4 299.89C1489.37 296.526 1489.62 293.016 1489.13 289.562C1488.65 286.108 1487.43 282.777 1485.56 279.76C1483.69 276.743 1481.2 274.098 1478.23 271.978C1475.26 269.858 1471.87 268.303 1468.26 267.403C1464.64 266.503 1460.87 266.275 1457.16 266.732C1453.45 267.189 1449.87 268.322 1446.63 270.067C1443.82 271.636 1441.2 273.481 1438.82 275.57C1439.56 272.601 1439.97 269.565 1440.03 266.514C1440.03 259.482 1437.02 252.738 1431.68 247.766C1426.34 242.793 1419.1 240 1411.54 240C1403.99 240 1396.75 242.793 1391.41 247.766C1386.06 252.738 1383.06 259.482 1383.06 266.514C1383.12 269.564 1383.52 272.6 1384.27 275.57C1381.89 273.481 1379.26 271.635 1376.45 270.066C1369.91 266.554 1362.14 265.604 1354.85 267.425C1347.55 269.246 1341.34 273.689 1337.56 279.777C1333.78 285.865 1332.76 293.1 1334.71 299.891C1336.67 306.682 1341.44 312.473 1347.97 315.99C1350.84 317.471 1353.87 318.662 1357 319.543C1353.87 320.423 1350.84 321.614 1347.97 323.095C1341.44 326.615 1336.67 332.405 1334.72 339.195C1332.77 345.984 1333.8 353.216 1337.57 359.303C1341.34 365.389 1347.56 369.831 1354.85 371.653C1362.14 373.475 1369.91 372.528 1376.45 369.019C1379.26 367.45 1381.89 365.605 1384.27 363.515C1383.52 366.485 1383.12 369.521 1383.06 372.571C1383.06 379.603 1386.06 386.347 1391.41 391.32C1396.75 396.292 1403.99 399.086 1411.54 399.086C1419.1 399.086 1426.34 396.292 1431.68 391.32C1437.02 386.347 1440.03 379.603 1440.03 372.571C1439.97 369.521 1439.56 366.485 1438.82 363.516C1441.2 365.605 1443.82 367.45 1446.63 369.02C1453.18 372.532 1460.95 373.482 1468.24 371.661C1475.54 369.84 1481.75 365.397 1485.53 359.308C1489.31 353.22 1490.33 345.985 1488.38 339.195C1486.42 332.404 1481.65 326.613 1475.12 323.095ZM1395.72 319.543C1395.72 316.63 1396.65 313.782 1398.39 311.359C1400.13 308.937 1402.6 307.049 1405.49 305.934C1408.38 304.819 1411.56 304.527 1414.63 305.096C1417.7 305.664 1420.52 307.067 1422.73 309.127C1424.95 311.187 1426.45 313.812 1427.06 316.669C1427.67 319.527 1427.36 322.488 1426.16 325.18C1424.97 327.871 1422.94 330.172 1420.34 331.791C1417.73 333.409 1414.67 334.273 1411.54 334.273C1407.35 334.269 1403.33 332.715 1400.36 329.954C1397.39 327.192 1395.73 323.448 1395.72 319.543ZM1452.96 280.272C1454.76 279.305 1456.75 278.677 1458.81 278.425C1460.87 278.172 1462.96 278.3 1464.97 278.801C1466.98 279.301 1468.86 280.165 1470.51 281.343C1472.16 282.52 1473.54 283.989 1474.58 285.664C1475.62 287.339 1476.29 289.188 1476.56 291.106C1476.83 293.024 1476.7 294.973 1476.16 296.842C1475.62 298.71 1474.69 300.462 1473.43 301.996C1472.16 303.531 1470.59 304.819 1468.79 305.786C1463.42 308.672 1452.93 310.951 1438.94 312.31C1437.65 308.088 1435.25 304.231 1431.96 301.084C1440.22 290.478 1447.59 283.159 1452.96 280.272ZM1411.54 251.784C1415.74 251.788 1419.76 253.342 1422.73 256.103C1425.69 258.865 1427.36 262.609 1427.37 266.514C1427.37 272.287 1424.25 281.879 1418.52 293.835C1413.94 292.76 1409.15 292.76 1404.57 293.835C1398.84 281.879 1395.72 272.287 1395.72 266.514C1395.73 262.609 1397.39 258.865 1400.36 256.103C1403.33 253.342 1407.35 251.788 1411.54 251.784ZM1348.51 285.663C1350.61 282.283 1354.07 279.817 1358.12 278.806C1362.17 277.795 1366.49 278.322 1370.13 280.271C1375.5 283.159 1382.86 290.478 1391.13 301.084C1387.84 304.231 1385.44 308.088 1384.15 312.31C1370.16 310.951 1359.67 308.672 1354.3 305.786C1350.67 303.829 1348.02 300.612 1346.94 296.84C1345.85 293.067 1346.42 289.048 1348.51 285.663ZM1370.13 358.814C1366.49 360.767 1362.17 361.296 1358.12 360.285C1354.06 359.274 1350.61 356.805 1348.51 353.422C1346.41 350.039 1345.84 346.018 1346.93 342.244C1348.02 338.471 1350.67 335.253 1354.3 333.3C1359.67 330.414 1370.16 328.135 1384.15 326.776C1385.44 330.998 1387.84 334.855 1391.13 338.002C1382.86 348.607 1375.5 355.927 1370.13 358.814ZM1411.54 387.302C1407.35 387.297 1403.33 385.744 1400.36 382.982C1397.39 380.221 1395.73 376.477 1395.72 372.571C1395.72 366.799 1398.84 357.207 1404.57 345.251C1409.15 346.326 1413.94 346.326 1418.52 345.251C1424.25 357.207 1427.37 366.799 1427.37 372.571C1427.36 376.477 1425.69 380.221 1422.73 382.982C1419.76 385.744 1415.74 387.297 1411.54 387.302ZM1474.58 353.422C1472.48 356.802 1469.02 359.267 1464.97 360.278C1460.92 361.289 1456.6 360.763 1452.96 358.814C1447.59 355.927 1440.22 348.607 1431.96 338.002C1435.25 334.855 1437.65 330.998 1438.94 326.776C1452.93 328.135 1463.42 330.414 1468.79 333.3C1472.42 335.256 1475.07 338.474 1476.15 342.246C1477.24 346.019 1476.67 350.038 1474.58 353.422Z" fill="#DB74FF"/>
</g>
<path opacity="0.8" fill-rule="evenodd" clip-rule="evenodd" d="M1217.45 246.256C1209.13 247.612 1203.24 252.94 1199.27 259.261C1193.3 254.366 1185.85 251.411 1177.53 252.767C1165.82 254.677 1159.34 265.302 1161.27 275.422C1162.31 280.85 1165.46 284.365 1168.8 287.608L1206.35 316.818C1210.4 319.26 1211.06 319.152 1213.97 315.575L1238.52 276.234C1240.93 272.053 1242.13 267.828 1241.1 262.399C1239.17 252.279 1229.16 244.345 1217.45 246.256Z" fill="#A906AC"/>
<path opacity="0.8" fill-rule="evenodd" clip-rule="evenodd" d="M1616.11 268.013C1602.67 267.039 1591.27 273.099 1582.4 281.402C1575.29 271.634 1565.04 264.312 1551.6 263.338C1532.67 261.966 1518.08 275.997 1516.69 292.353C1515.95 301.126 1519.31 307.725 1523.08 313.972L1568.52 372.992C1573.73 378.263 1574.79 378.341 1580.83 373.884L1635.76 322.139C1641.29 316.565 1644.97 310.477 1645.71 301.704C1647.09 285.347 1635.03 269.385 1616.11 268.013Z" fill="#06A1AC"/>
<path opacity="0.8" fill-rule="evenodd" clip-rule="evenodd" d="M1663.22 341.088C1659.99 339.826 1656.64 340.456 1653.71 341.833C1652.82 338.88 1650.94 336.292 1647.7 335.029C1643.15 333.252 1638.3 335.608 1636.5 339.543C1635.54 341.654 1635.79 343.54 1636.16 345.37L1642.15 363.403C1642.96 365.102 1643.22 365.202 1645.11 364.56L1663.27 355.953C1665.13 354.996 1666.58 353.772 1667.54 351.661C1669.34 347.726 1667.78 342.866 1663.22 341.088Z" fill="#A906AC"/>
<g opacity="0.8">
<ellipse cx="38.1011" cy="37.6074" rx="38.1011" ry="37.6074" transform="matrix(0.788214 0.615401 -0.673852 0.738866 1270.94 325)" fill="#F3F723"/>
<ellipse cx="5.11424" cy="12.1151" rx="5.11424" ry="12.1151" transform="matrix(0.788214 0.615401 -0.673852 0.738866 1280.71 349.863)" fill="black"/>
<ellipse cx="5.11424" cy="12.1151" rx="5.11424" ry="12.1151" transform="matrix(0.788214 0.615401 -0.673852 0.738866 1296.83 362.452)" fill="black"/>
<path d="M1256.45 371.157C1248.89 387.89 1266.45 403.972 1284.27 392.874" stroke="black" stroke-width="4" stroke-linecap="round"/>
<path d="M1284.3 393.218C1284.04 395.143 1284.15 398.978 1286.69 398.917M1256.28 371.344C1254.74 372.158 1251.36 373.115 1250.21 370.434" stroke="black" stroke-width="5" stroke-linecap="round"/>
</g>
<g opacity="0.8">
<ellipse cx="38.6396" cy="37.0539" rx="38.6396" ry="37.0539" transform="matrix(0.892419 -0.451208 0.508531 0.861044 1659.06 288.869)" fill="#F3F723"/>
<ellipse cx="5.18652" cy="11.9368" rx="5.18652" ry="11.9368" transform="matrix(0.892419 -0.451208 0.508531 0.861044 1687.65 289.433)" fill="black"/>
<ellipse cx="5.18652" cy="11.9368" rx="5.18652" ry="11.9368" transform="matrix(0.892419 -0.451208 0.508531 0.861044 1706.16 280.072)" fill="black"/>
<path d="M1700.34 318.051C1714.47 330.628 1737.02 321.284 1732.28 301.904" stroke="black" stroke-width="4" stroke-linecap="round"/>
<path d="M1732.63 302.001C1734.48 302.921 1738.39 304.209 1739.24 301.996M1700.47 318.265C1700.73 319.894 1700.47 323.157 1697.36 323.175" stroke="black" stroke-width="5" stroke-linecap="round"/>
</g>
<path d="M1491.1 237.075L1490.37 236.96L1489.63 237.062L1275.73 266.839C1277.11 201.493 1301.63 122.709 1340.69 77.5868C1381.02 31.0016 1435.55 4.99998 1492.23 4.99999C1548.9 4.99999 1603.43 31.0016 1643.76 77.5869C1663.81 100.743 1681.21 134.158 1693.6 170.286C1705.26 204.271 1712.36 240.312 1713.15 271.938L1491.1 237.075Z" fill="#CEFDFD" stroke="#656565" stroke-width="10"/>
<path d="M1222.42 299C1344.31 213.151 1626.18 233.963 1745.53 283.391" stroke="#656565" stroke-width="18" stroke-linecap="round"/>
<path d="M1385.81 174.651C1398.77 193.15 1380.75 223.751 1380.75 233L1413.89 229.403C1420.37 195.488 1417.78 189.861 1437.66 164.373C1457.53 138.886 1467.9 49.5051 1413.89 54.1765C1366.37 58.2874 1346.96 119.2 1385.81 174.651Z" fill="#2E6C04" stroke="#2E6C04" stroke-width="10" stroke-linecap="round"/>
<ellipse cx="13.2815" cy="23.7011" rx="13.2815" ry="23.7011" transform="matrix(0.906362 -0.422502 0.486443 0.873713 1368.33 103.792)" fill="#2C2C2C"/>
<path d="M1423.45 153.389C1419.49 158.169 1409.18 164.861 1399.67 153.389" stroke="#373737" stroke-width="5" stroke-linecap="round"/>
<ellipse cx="12.564" cy="26.0725" rx="12.564" ry="26.0725" transform="matrix(0.90818 0.418579 -0.482241 0.876038 1430.57 88.782)" fill="#2C2C2C"/>
<path d="M1425.47 205.727L1424.99 206.2L1424.82 206.848L1423.2 212.848L1423.14 213.058L1423.12 213.276L1422.58 219.276L1421.95 226.295L1426.86 221.243L1446.3 201.264L1463.96 183.93L1487.8 167.262C1488.54 167.024 1489.32 166.775 1490.14 166.515C1492.59 165.738 1495.35 164.861 1498.04 163.88C1501.77 162.517 1505.61 160.869 1508.62 158.815C1511.57 156.801 1514.23 154.05 1514.6 150.342C1514.97 146.59 1512.91 142.87 1508.91 139.165C1504.88 135.434 1500.78 133.957 1496.83 134.714C1493.01 135.447 1490.01 138.156 1487.79 141.29C1485.55 144.46 1483.89 148.37 1482.84 152.131C1481.94 155.315 1481.44 158.536 1481.43 161.269L1465.97 172.723L1468.41 159.488C1470.36 157.983 1471.92 155.601 1473.04 153.096C1474.39 150.082 1475.28 146.484 1475.38 142.97C1475.48 139.483 1474.8 135.821 1472.71 132.938C1470.54 129.943 1467.1 128.118 1462.42 128.001C1457.83 127.886 1454.24 129.354 1451.8 132.033C1449.42 134.651 1448.41 138.133 1448.32 141.597C1448.15 147.886 1451 155.09 1455.94 159.158L1454.02 177.36L1425.47 205.727Z" fill="#49AC06" stroke="#2E6C04" stroke-width="5" stroke-linecap="round"/>
<path d="M1595.82 178.606C1581.28 196.485 1601.5 226.061 1601.5 235L1564.31 231.524C1557.04 198.746 1559.95 193.307 1537.65 168.674C1515.36 144.041 1503.72 57.6557 1564.31 62.1706C1617.63 66.1437 1639.41 125.014 1595.82 178.606Z" fill="#2E6C04" stroke="#2E6C04" stroke-width="10" stroke-linecap="round"/>
<ellipse cx="14.6494" cy="24.6125" rx="14.6494" ry="24.6125" transform="matrix(-0.921941 -0.387331 -0.525555 0.85076 1615.44 104.348)" fill="#2C2C2C"/>
<path d="M1568.2 155.5C1572.65 160.333 1583.54 159.6 1594.21 148" stroke="#373737" stroke-width="5" stroke-linecap="round"/>
<ellipse cx="13.8624" cy="22.0591" rx="13.8624" ry="22.0591" transform="matrix(-0.923495 0.383611 0.521248 0.853405 1550.82 97.7113)" fill="#2C2C2C"/>
<path d="M1627.23 242.982C1630.29 238.551 1630.89 233.752 1630.09 228.605C1629.28 223.458 1626.52 218.315 1622.04 213.61C1617.55 208.905 1611.47 204.775 1604.31 201.57C1597.15 198.365 1589.12 196.178 1580.9 195.194C1572.68 194.21 1564.5 194.458 1557.07 195.917C1549.63 197.375 1543.15 200.002 1538.18 203.575C1533.2 207.148 1529.88 211.562 1528.48 216.446C1527.08 221.33 1525.69 227.935 1528.19 233.03L1538.18 233.445L1545.22 233.86C1544.19 230.517 1542.29 222.916 1543.28 219.462C1544.27 216.008 1546.62 212.886 1550.14 210.359C1553.66 207.832 1558.24 205.975 1563.5 204.943C1568.76 203.911 1574.54 203.736 1580.35 204.432C1586.17 205.128 1591.85 206.674 1596.91 208.941C1601.97 211.208 1606.27 214.128 1609.45 217.456C1612.62 220.784 1614.57 224.421 1615.14 228.061C1615.71 231.701 1613.86 237.597 1611.7 240.73L1620.5 242.152L1627.23 242.982Z" fill="#6C2A04"/>
<path d="M1600.78 202C1600.78 204.564 1599.99 206.847 1598.77 208.468C1597.54 210.088 1595.92 211 1594.21 211C1592.51 211 1590.89 210.088 1589.66 208.468C1588.44 206.847 1587.65 204.564 1587.65 202C1587.65 199.436 1588.44 197.153 1589.66 195.532C1590.89 193.912 1592.51 193 1594.21 193C1595.92 193 1597.54 193.912 1598.77 195.532C1599.99 197.153 1600.78 199.436 1600.78 202Z" fill="#2E6C04" stroke="#49AC06" stroke-width="2"/>
<path d="M1591.05 199.5C1591.05 203.829 1588.19 207 1585.03 207C1581.87 207 1579 203.829 1579 199.5C1579 195.171 1581.87 192 1585.03 192C1588.19 192 1591.05 195.171 1591.05 199.5Z" fill="#2E6C04" stroke="#49AC06" stroke-width="2"/>
<path d="M1566.22 199.763C1568.54 199.018 1570.82 199.017 1572.62 199.57C1574.43 200.123 1575.66 201.194 1576.13 202.55C1576.59 203.907 1576.26 205.48 1575.15 206.97C1574.04 208.456 1572.21 209.778 1569.89 210.523C1567.57 211.268 1565.28 211.269 1563.48 210.717C1561.67 210.163 1560.44 209.093 1559.98 207.736C1559.52 206.38 1559.85 204.806 1560.96 203.317C1562.06 201.83 1563.9 200.508 1566.22 199.763Z" fill="#2E6C04" stroke="#49AC06" stroke-width="2"/>
<path opacity="0.8" d="M1563.12 378.563C1561.86 377.911 1560.54 377.387 1559.17 377C1560.54 376.613 1561.86 376.088 1563.12 375.437C1564.54 374.672 1565.78 373.652 1566.78 372.436C1567.77 371.221 1568.51 369.833 1568.93 368.353C1569.35 366.872 1569.46 365.328 1569.25 363.808C1569.04 362.288 1568.51 360.822 1567.69 359.495C1566.87 358.167 1565.78 357.004 1564.48 356.071C1563.18 355.138 1561.7 354.454 1560.12 354.058C1558.53 353.662 1556.88 353.561 1555.26 353.762C1553.64 353.963 1552.07 354.462 1550.66 355.23C1549.43 355.92 1548.28 356.732 1547.24 357.651C1547.56 356.345 1547.74 355.009 1547.76 353.667C1547.76 350.572 1546.45 347.605 1544.12 345.417C1541.78 343.229 1538.61 342 1535.3 342C1532 342 1528.83 343.229 1526.49 345.417C1524.16 347.605 1522.84 350.572 1522.84 353.667C1522.87 355.009 1523.05 356.345 1523.37 357.651C1522.33 356.732 1521.18 355.92 1519.95 355.229C1517.09 353.684 1513.69 353.266 1510.5 354.067C1507.31 354.869 1504.59 356.824 1502.94 359.503C1501.28 362.181 1500.84 365.365 1501.69 368.353C1502.54 371.341 1504.63 373.889 1507.49 375.437C1508.75 376.089 1510.07 376.613 1511.44 377C1510.07 377.387 1508.75 377.912 1507.49 378.563C1504.63 380.112 1502.55 382.66 1501.69 385.647C1500.84 388.634 1501.29 391.817 1502.94 394.495C1504.59 397.173 1507.31 399.128 1510.5 399.929C1513.69 400.731 1517.09 400.314 1519.95 398.77C1521.18 398.08 1522.33 397.268 1523.37 396.349C1523.05 397.655 1522.87 398.991 1522.84 400.333C1522.84 403.428 1524.16 406.395 1526.49 408.583C1528.83 410.771 1532 412 1535.3 412C1538.61 412 1541.78 410.771 1544.12 408.583C1546.45 406.395 1547.76 403.428 1547.76 400.333C1547.74 398.991 1547.56 397.655 1547.24 396.349C1548.28 397.268 1549.43 398.08 1550.66 398.771C1553.52 400.316 1556.92 400.734 1560.11 399.933C1563.3 399.131 1566.02 397.176 1567.67 394.497C1569.32 391.819 1569.77 388.635 1568.92 385.647C1568.06 382.659 1565.98 380.111 1563.12 378.563ZM1535.3 384.778C1533.66 384.778 1532.06 384.322 1530.69 383.467C1529.32 382.612 1528.26 381.398 1527.63 379.976C1527 378.555 1526.84 376.991 1527.16 375.483C1527.48 373.974 1528.27 372.588 1529.43 371.5C1530.59 370.413 1532.07 369.672 1533.68 369.372C1535.3 369.072 1536.97 369.226 1538.48 369.814C1540 370.403 1541.3 371.4 1542.21 372.679C1543.12 373.958 1543.61 375.462 1543.61 377C1543.61 379.062 1542.73 381.039 1541.18 382.497C1539.62 383.955 1537.51 384.775 1535.3 384.778Z" fill="#FA7529"/>
<path opacity="0.8" d="M1768.39 254.759C1767.78 254.443 1767.13 254.188 1766.45 254C1767.13 253.812 1767.78 253.557 1768.39 253.241C1769.09 252.869 1769.7 252.374 1770.2 251.783C1770.69 251.193 1771.05 250.519 1771.26 249.8C1771.46 249.081 1771.52 248.331 1771.41 247.592C1771.31 246.854 1771.05 246.142 1770.64 245.497C1770.24 244.853 1769.7 244.288 1769.06 243.834C1768.43 243.381 1767.7 243.049 1766.92 242.857C1766.14 242.664 1765.33 242.615 1764.53 242.713C1763.73 242.811 1762.96 243.053 1762.26 243.426C1761.66 243.761 1761.09 244.156 1760.58 244.602C1760.74 243.967 1760.83 243.319 1760.84 242.667C1760.84 241.164 1760.19 239.722 1759.04 238.66C1757.89 237.597 1756.34 237 1754.71 237C1753.08 237 1751.52 237.597 1750.37 238.66C1749.22 239.722 1748.58 241.164 1748.58 242.667C1748.59 243.319 1748.68 243.967 1748.84 244.602C1748.32 244.156 1747.76 243.761 1747.15 243.426C1745.75 242.675 1744.07 242.472 1742.5 242.861C1740.93 243.251 1739.59 244.2 1738.78 245.501C1737.97 246.802 1737.75 248.349 1738.17 249.8C1738.59 251.251 1739.62 252.489 1741.02 253.241C1741.64 253.557 1742.29 253.812 1742.97 254C1742.29 254.188 1741.64 254.443 1741.02 254.759C1739.62 255.511 1738.59 256.749 1738.17 258.2C1737.75 259.651 1737.97 261.197 1738.78 262.498C1739.6 263.798 1740.93 264.748 1742.5 265.137C1744.07 265.527 1745.75 265.324 1747.15 264.574C1747.76 264.239 1748.32 263.844 1748.84 263.398C1748.68 264.033 1748.59 264.681 1748.58 265.333C1748.58 266.836 1749.22 268.278 1750.37 269.34C1751.52 270.403 1753.08 271 1754.71 271C1756.34 271 1757.89 270.403 1759.04 269.34C1760.19 268.278 1760.84 266.836 1760.84 265.333C1760.83 264.681 1760.74 264.033 1760.58 263.398C1761.09 263.844 1761.66 264.239 1762.26 264.574C1763.67 265.325 1765.34 265.528 1766.91 265.139C1768.48 264.749 1769.82 263.8 1770.64 262.499C1771.45 261.198 1771.67 259.651 1771.25 258.2C1770.83 256.749 1769.8 255.511 1768.39 254.759ZM1754.71 257.778C1753.9 257.778 1753.11 257.556 1752.44 257.141C1751.77 256.726 1751.24 256.136 1750.93 255.446C1750.62 254.755 1750.54 253.996 1750.7 253.263C1750.86 252.53 1751.25 251.857 1751.82 251.329C1752.39 250.8 1753.12 250.441 1753.91 250.295C1754.7 250.149 1755.53 250.224 1756.27 250.51C1757.02 250.796 1757.66 251.28 1758.11 251.901C1758.56 252.522 1758.8 253.253 1758.8 254C1758.8 255.002 1758.36 255.962 1757.6 256.67C1756.83 257.378 1755.79 257.777 1754.71 257.778Z" fill="#C31AFF"/>
<path opacity="0.8" d="M1204.23 343.563C1203.07 342.911 1201.84 342.387 1200.57 342C1201.84 341.613 1203.07 341.088 1204.23 340.437C1205.54 339.672 1206.69 338.652 1207.61 337.436C1208.54 336.221 1209.21 334.833 1209.61 333.353C1210 331.872 1210.1 330.328 1209.9 328.808C1209.7 327.288 1209.21 325.822 1208.46 324.495C1207.7 323.167 1206.69 322.004 1205.49 321.071C1204.29 320.138 1202.91 319.454 1201.45 319.058C1199.99 318.662 1198.46 318.561 1196.96 318.762C1195.46 318.963 1194.01 319.462 1192.7 320.23C1191.56 320.92 1190.5 321.732 1189.53 322.651C1189.84 321.345 1190 320.009 1190.02 318.667C1190.02 315.572 1188.81 312.605 1186.65 310.417C1184.48 308.229 1181.55 307 1178.49 307C1175.44 307 1172.5 308.229 1170.34 310.417C1168.18 312.605 1166.96 315.572 1166.96 318.667C1166.99 320.009 1167.15 321.345 1167.45 322.651C1166.49 321.732 1165.43 320.92 1164.29 320.229C1161.64 318.684 1158.49 318.266 1155.54 319.067C1152.59 319.869 1150.07 321.824 1148.54 324.503C1147.02 327.181 1146.6 330.365 1147.39 333.353C1148.18 336.341 1150.11 338.889 1152.76 340.437C1153.92 341.089 1155.15 341.613 1156.42 342C1155.15 342.387 1153.92 342.912 1152.76 343.563C1150.11 345.112 1148.19 347.66 1147.4 350.647C1146.61 353.634 1147.02 356.817 1148.55 359.495C1150.08 362.173 1152.59 364.128 1155.54 364.929C1158.5 365.731 1161.64 365.314 1164.29 363.77C1165.43 363.08 1166.49 362.268 1167.45 361.349C1167.15 362.655 1166.99 363.991 1166.96 365.333C1166.96 368.428 1168.18 371.395 1170.34 373.583C1172.5 375.771 1175.44 377 1178.49 377C1181.55 377 1184.48 375.771 1186.65 373.583C1188.81 371.395 1190.02 368.428 1190.02 365.333C1190 363.991 1189.84 362.655 1189.53 361.349C1190.5 362.268 1191.56 363.08 1192.7 363.771C1195.35 365.316 1198.49 365.734 1201.44 364.933C1204.4 364.131 1206.91 362.176 1208.44 359.497C1209.97 356.819 1210.39 353.635 1209.59 350.647C1208.8 347.659 1206.87 345.111 1204.23 343.563ZM1178.49 349.778C1176.97 349.778 1175.49 349.322 1174.22 348.467C1172.96 347.612 1171.97 346.398 1171.39 344.976C1170.81 343.555 1170.66 341.991 1170.96 340.483C1171.25 338.974 1171.98 337.588 1173.06 336.5C1174.13 335.413 1175.5 334.672 1176.99 334.372C1178.48 334.072 1180.03 334.226 1181.43 334.814C1182.84 335.403 1184.04 336.4 1184.88 337.679C1185.73 338.958 1186.18 340.462 1186.18 342C1186.18 344.062 1185.37 346.039 1183.93 347.497C1182.48 348.955 1180.53 349.775 1178.49 349.778Z" fill="#06A1AC"/>
<defs>
<linearGradient id="paint0_linear_1539_53" x1="648.75" y1="201" x2="648.75" y2="389" gradientUnits="userSpaceOnUse">
<stop offset="0.090625" stop-color="#F323F7"/>
<stop offset="0.215625" stop-color="#FA7529"/>
<stop offset="0.355625" stop-color="#F3F723"/>
<stop offset="0.490625" stop-color="#7BF723"/>
<stop offset="0.630625" stop-color="#23F7EA"/>
<stop offset="0.765625" stop-color="#2347F7"/>
<stop offset="0.900625" stop-color="#C31AFF"/>
</linearGradient>
</defs>
</svg>
