<svg width="801" height="473" fill="none" xmlns="http://www.w3.org/2000/svg"><path d="M564.89 412c0 6.773-4.169 23.977-12.26 30.212-8.091 6.236-19.939 11.876-34.837 16.585-14.899 4.709-32.544 8.391-51.886 10.826-19.343 2.435-39.986 3.574-60.703 3.349-20.717-.225-41.084-1.809-59.888-4.659-18.805-2.849-35.663-6.905-49.572-11.927-13.909-5.022-24.584-10.906-31.391-17.304-6.806-6.397-13.728-20.324-12.352-27.082l158.336 10.5L564.89 412Z" fill="#84A8FA"/><ellipse cx="400.434" cy="318" rx="400.434" ry="111" fill="#CEDAFD"/><path opacity=".8" d="M766.189 280.511c-5.091-4.608-11.108-8.25-17.711-10.72-13.887-5.204-30.015-5.146-44.497 1.415-14.484 6.56-24.424 18.311-28.498 31.651-1.941 6.34-2.523 12.971-1.711 19.517.688 5.553 2.383 11.092 5.188 16.393 2.804 5.301 6.492 9.937 10.81 13.846 5.091 4.607 11.107 8.249 17.709 10.72 13.889 5.204 30.015 5.146 44.501-1.416 14.484-6.56 24.423-18.311 28.5-31.652 1.939-6.341 2.52-12.971 1.712-19.518-.69-5.552-2.387-11.09-5.191-16.391-2.805-5.301-6.492-9.937-10.812-13.845Zm-78.038 54.092c-2.853-5.391-4.262-11.086-4.446-16.728-.239-7.433 1.7-14.787 5.61-21.284 3.465-5.76 8.415-10.814 14.705-14.546l18.244 34.478-13.673 36.909c-3.191-1.434-6.185-3.215-8.919-5.305-4.839-3.696-8.767-8.307-11.521-13.524Zm54.601 20.641c-7.869 2.577-16.367 3.036-24.507 1.323l10.379-28.019 14.128 26.696Zm9.191-4.164-14.126-26.696 30.282 9.6c-3.529 6.998-9.131 12.926-16.156 17.096Zm19.404-26.075-39.892-12.645-18.244-34.478c7.044-2.308 14.391-2.825 21.433-1.824 7.945 1.126 15.413 4.219 21.613 8.952 4.847 3.688 8.786 8.294 11.55 13.507 2.765 5.213 4.292 10.913 4.479 16.717.108 3.28-.207 6.56-.939 9.771ZM225.799 298.942c.59-3.289.479-6.653-.327-9.902-1.691-6.836-6.39-13.008-13.527-16.664-7.137-3.657-15.283-4.066-22.443-1.764-3.405 1.092-6.545 2.79-9.244 4.998-2.29 1.873-4.281 4.128-5.844 6.74-1.564 2.613-2.573 5.371-3.074 8.16-.59 3.289-.479 6.652.326 9.902 1.692 6.836 6.39 13.008 13.528 16.665 7.138 3.656 15.284 4.066 22.446 1.764 3.403-1.093 6.543-2.791 9.243-4.998 2.289-1.873 4.28-4.129 5.843-6.741 1.563-2.612 2.573-5.37 3.073-8.16Zm-46.856-14.271c1.59-2.657 3.734-4.847 6.21-6.553 3.262-2.245 7.12-3.632 11.165-4.014 3.586-.34 7.285.095 10.78 1.428l-10.167 16.99-20.505 5.447c-.282-1.639-.351-3.304-.206-4.959.254-2.928 1.183-5.771 2.723-8.339Zm6.569 26.931c-3.435-2.272-6.103-5.4-7.694-9.02l15.566-4.136-7.872 13.156Zm4.529 2.321 7.873-13.156 4.471 14.401c-4.159.674-8.439.242-12.344-1.245Zm17.31-.11-5.891-18.971 10.168-16.99c3.075 2.034 5.435 4.703 7.027 7.696 1.797 3.374 2.575 7.136 2.25 10.886-.249 2.929-1.172 5.775-2.707 8.346-1.536 2.571-3.648 4.809-6.196 6.562-1.438.992-3 1.821-4.651 2.471ZM640.823 379.942c.591-3.289.48-6.653-.327-9.902-1.691-6.836-6.39-13.008-13.526-16.664-7.138-3.657-15.284-4.066-22.444-1.764-3.404 1.092-6.545 2.79-9.244 4.998-2.289 1.873-4.281 4.128-5.844 6.74-1.563 2.613-2.573 5.371-3.074 8.16-.59 3.289-.479 6.652.326 9.902 1.692 6.836 6.39 13.008 13.529 16.665 7.137 3.656 15.283 4.066 22.445 1.764 3.403-1.093 6.544-2.791 9.244-4.998 2.289-1.873 4.279-4.129 5.842-6.741 1.564-2.612 2.573-5.37 3.073-8.16Zm-46.856-14.271c1.59-2.657 3.734-4.847 6.21-6.553 3.262-2.245 7.12-3.632 11.165-4.014 3.586-.34 7.285.095 10.781 1.428l-10.168 16.99-20.505 5.447c-.282-1.639-.351-3.304-.206-4.959.255-2.928 1.183-5.771 2.723-8.339Zm6.569 26.931c-3.435-2.272-6.103-5.4-7.694-9.02l15.566-4.136-7.872 13.156Zm4.53 2.321 7.872-13.156 4.471 14.401c-4.159.674-8.439.242-12.343-1.245Zm17.309-.11-5.891-18.971 10.168-16.99c3.075 2.034 5.436 4.703 7.027 7.696 1.798 3.374 2.575 7.136 2.25 10.886-.249 2.929-1.172 5.775-2.707 8.346-1.536 2.571-3.648 4.809-6.195 6.562-1.439.992-3.001 1.821-4.652 2.471Z" fill="#84A8FA"/><g opacity=".9"><path opacity=".2" d="M318.239 301.502c-5.828-11.196-11.956-25.144-11.956-34.293 0-5.398 2.347-10.574 6.525-14.391 4.178-3.817 9.845-5.961 15.753-5.961 5.908 0 11.575 2.144 15.753 5.961 4.177 3.817 6.524 8.993 6.524 14.391 0 9.149-6.128 23.097-11.956 34.293-3.186-1.518-6.727-2.311-10.321-2.311-3.594 0-7.135.793-10.322 2.311Zm-50.428 9.499c8.674 4.575 24.962 6.701 38.489 7.688.154-3.28 1.171-6.479 2.968-9.322 1.797-2.844 4.319-5.249 7.352-7.011-7.7-10.209-17.858-22.031-26.531-26.605-5.117-2.699-11.197-3.43-16.905-2.033-5.707 1.397-10.572 4.808-13.527 9.482-2.954 4.675-3.754 10.23-2.225 15.443 1.529 5.214 5.263 9.659 10.379 12.358Zm41.457 18.718c-1.802-2.842-2.821-6.041-2.97-9.322-13.527.987-29.813 3.113-38.486 7.687-5.117 2.699-8.851 7.145-10.38 12.358-1.529 5.214-.729 10.769 2.225 15.444 2.955 4.674 7.821 8.085 13.528 9.482 5.707 1.397 11.787.666 16.904-2.033 8.674-4.575 18.831-16.397 26.531-26.606-3.036-1.758-5.559-4.164-7.352-7.01Zm19.293 10.176c-3.595.005-7.137-.788-10.322-2.312-5.828 11.197-11.956 25.144-11.956 34.294 0 5.397 2.347 10.574 6.525 14.391 4.178 3.816 9.845 5.961 15.753 5.961 5.908 0 11.575-2.145 15.753-5.961 4.177-3.817 6.524-8.994 6.524-14.391 0-9.15-6.128-23.099-11.956-34.295-3.185 1.523-6.726 2.318-10.321 2.313Zm60.749-11.811c-8.673-4.574-24.959-6.7-38.487-7.687-.153 3.28-1.172 6.478-2.969 9.322-1.797 2.843-4.319 5.248-7.352 7.01 7.699 10.209 17.857 22.031 26.531 26.606 2.533 1.336 5.33 2.204 8.231 2.552 2.9.349 5.847.173 8.673-.519 2.826-.692 5.475-1.885 7.796-3.512 2.321-1.627 4.269-3.656 5.731-5.97 1.463-2.315 2.413-4.87 2.794-7.52.382-2.65.189-5.342-.568-7.924-.757-2.581-2.064-5.001-3.845-7.122-1.78-2.12-4.001-3.899-6.535-5.236Zm-41.456-18.717c1.802 2.841 2.821 6.041 2.969 9.322 13.528-.987 29.814-3.113 38.487-7.688 2.534-1.336 4.754-3.115 6.535-5.236 1.781-2.12 3.088-4.54 3.845-7.122.757-2.581.95-5.274.568-7.924-.382-2.649-1.331-5.204-2.794-7.519-1.463-2.315-3.41-4.343-5.731-5.97-2.321-1.627-4.97-2.821-7.796-3.512-2.826-.692-5.773-.869-8.673-.52-2.901.349-5.698 1.216-8.231 2.553-8.674 4.574-18.833 16.398-26.532 26.607 3.036 1.758 5.56 4.162 7.353 7.009Z" fill="#C31AFF"/><path d="M392.115 323.095c-2.865-1.481-5.892-2.672-9.029-3.552 3.137-.881 6.165-2.072 9.03-3.553 3.242-1.739 6.085-4.056 8.365-6.819 2.28-2.762 3.953-5.916 4.923-9.281.97-3.364 1.219-6.874.731-10.328-.488-3.454-1.702-6.785-3.573-9.802-1.871-3.017-4.363-5.662-7.332-7.782-2.97-2.12-6.359-3.675-9.974-4.575-3.615-.9-7.386-1.128-11.096-.671-3.71.457-7.286 1.59-10.526 3.335-2.81 1.569-5.431 3.414-7.819 5.503.75-2.969 1.156-6.005 1.211-9.056 0-7.032-3.001-13.776-8.342-18.748-5.342-4.973-12.586-7.766-20.14-7.766-7.553 0-14.798 2.793-20.139 7.766-5.341 4.972-8.342 11.716-8.342 18.748.055 3.05.461 6.086 1.211 9.056-2.388-2.089-5.01-3.935-7.82-5.504-6.541-3.512-14.313-4.462-21.607-2.641-7.294 1.821-13.512 6.264-17.288 12.352-3.775 6.088-4.799 13.323-2.846 20.114 1.953 6.791 6.722 12.582 13.26 16.099 2.865 1.481 5.893 2.672 9.03 3.553-3.137.88-6.165 2.071-9.03 3.552-6.535 3.52-11.301 9.31-13.252 16.1-1.95 6.789-.926 14.021 2.849 20.108 3.775 6.086 9.991 10.528 17.282 12.35 7.291 1.822 15.061.875 21.602-2.634 2.81-1.569 5.432-3.414 7.82-5.504-.75 2.97-1.156 6.006-1.211 9.056 0 7.032 3.001 13.776 8.342 18.749 5.341 4.972 12.586 7.766 20.139 7.766 7.554 0 14.798-2.794 20.14-7.766 5.341-4.973 8.342-11.717 8.342-18.749-.055-3.05-.461-6.086-1.211-9.055 2.388 2.089 5.01 3.934 7.82 5.504 6.541 3.512 14.313 4.462 21.607 2.641 7.294-1.821 13.512-6.264 17.287-12.353 3.776-6.088 4.8-13.323 2.847-20.113-1.953-6.791-6.722-12.582-13.261-16.1Zm-79.393-3.552c0-2.913.928-5.761 2.666-8.184 1.739-2.422 4.21-4.31 7.101-5.425 2.892-1.115 6.073-1.407 9.142-.838 3.07.568 5.889 1.971 8.102 4.031 2.213 2.06 3.72 4.685 4.33 7.542.611 2.858.297 5.819-.9 8.511-1.198 2.691-3.226 4.992-5.828 6.611-2.602 1.618-5.661 2.482-8.791 2.482-4.195-.004-8.216-1.558-11.183-4.319-2.966-2.762-4.635-6.506-4.639-10.411Zm57.242-39.271c1.799-.967 3.786-1.595 5.846-1.847 2.06-.253 4.153-.125 6.16.376 2.007.5 3.889 1.364 5.537 2.542 1.649 1.177 3.032 2.646 4.071 4.321 1.039 1.675 1.713 3.524 1.985 5.442.271 1.918.134 3.867-.404 5.736-.538 1.868-1.466 3.62-2.731 5.154-1.265 1.535-2.842 2.823-4.642 3.79-5.37 2.886-15.857 5.165-29.846 6.524-1.292-4.222-3.69-8.079-6.978-11.226 8.262-10.606 15.629-17.925 21.002-20.812Zm-41.42-28.488c4.195.004 8.217 1.558 11.184 4.319 2.966 2.762 4.635 6.506 4.639 10.411 0 5.773-3.122 15.365-8.851 27.321-4.576-1.075-9.367-1.075-13.943 0-5.729-11.956-8.851-21.548-8.851-27.321.004-3.905 1.673-7.649 4.639-10.411 2.967-2.761 6.988-4.315 11.183-4.319Zm-63.033 33.879c2.101-3.38 5.557-5.846 9.609-6.857 4.052-1.011 8.37-.484 12.005 1.465 5.373 2.888 12.74 10.207 21.002 20.813-3.288 3.147-5.686 7.004-6.978 11.226-13.99-1.359-24.476-3.638-29.846-6.524-3.631-1.957-6.28-5.174-7.366-8.946-1.086-3.773-.52-7.792 1.574-11.177Zm21.614 73.151c-3.634 1.953-7.953 2.482-12.006 1.471-4.054-1.011-7.51-3.48-9.608-6.863-2.099-3.383-2.667-7.404-1.581-11.178 1.086-3.773 3.738-6.991 7.373-8.944 5.37-2.886 15.856-5.165 29.846-6.524 1.292 4.222 3.69 8.079 6.978 11.226-8.262 10.605-15.629 17.925-21.002 20.812Zm41.419 28.488c-4.195-.005-8.216-1.558-11.183-4.32-2.966-2.761-4.635-6.505-4.639-10.411 0-5.772 3.122-15.364 8.851-27.32 4.576 1.075 9.367 1.075 13.943 0 5.729 11.956 8.851 21.548 8.851 27.32-.004 3.906-1.673 7.65-4.639 10.411-2.967 2.762-6.989 4.315-11.184 4.32Zm63.034-33.88c-2.102 3.38-5.558 5.845-9.61 6.856-4.052 1.011-8.369.485-12.004-1.464-5.373-2.887-12.74-10.207-21.002-20.812 3.288-3.147 5.686-7.004 6.978-11.226 13.99 1.359 24.476 3.638 29.846 6.524 3.631 1.956 6.28 5.174 7.366 8.946 1.085 3.773.52 7.792-1.574 11.176Z" fill="#DB74FF"/></g><path opacity=".8" fill-rule="evenodd" clip-rule="evenodd" d="M134.446 246.256c-8.315 1.356-14.206 6.684-18.179 13.005-5.964-4.895-13.421-7.85-21.7353-6.494-11.7098 1.91-18.1888 12.535-16.2603 22.655 1.0344 5.428 4.1915 8.943 7.5334 12.186l37.5462 29.21c4.054 2.442 4.712 2.334 7.619-1.243l24.555-39.341c2.408-4.181 3.609-8.406 2.575-13.835-1.929-10.12-11.945-18.054-23.654-16.143Z" fill="#A906AC"/><path opacity=".8" fill-rule="evenodd" clip-rule="evenodd" d="M533.108 268.013c-13.438-.974-24.842 5.086-33.711 13.389-7.108-9.768-17.359-17.09-30.797-18.064-18.926-1.372-33.524 12.659-34.909 29.015-.743 8.773 2.621 15.372 6.388 21.619l45.439 59.02c5.212 5.271 6.277 5.349 12.313.892l54.929-51.745c5.526-5.574 9.206-11.662 9.948-20.435 1.385-16.357-10.674-32.319-29.6-33.691Z" fill="#06A1AC"/><path opacity=".8" fill-rule="evenodd" clip-rule="evenodd" d="M580.224 341.088c-3.234-1.262-6.589-.632-9.517.745-.889-2.953-2.771-5.541-6.004-6.804-4.553-1.777-9.405.579-11.2 4.514-.962 2.111-.717 3.997-.342 5.827l5.984 18.033c.82 1.699 1.076 1.799 2.962 1.157l18.165-8.607c1.86-.957 3.309-2.181 4.272-4.292 1.794-3.935.233-8.795-4.32-10.573Z" fill="#A906AC"/><g opacity=".8"><ellipse cx="38.1011" cy="37.6074" rx="38.1011" ry="37.6074" transform="matrix(.78821 .6154 -.67385 .73887 187.944 325)" fill="#F3F723"/><ellipse cx="5.11424" cy="12.1151" rx="5.11424" ry="12.1151" transform="matrix(.78821 .6154 -.67385 .73887 197.706 349.863)" fill="#000"/><ellipse cx="5.11424" cy="12.1151" rx="5.11424" ry="12.1151" transform="matrix(.78821 .6154 -.67385 .73887 213.831 362.452)" fill="#000"/><path d="M173.454 371.157c-7.568 16.733 10 32.815 27.815 21.717" stroke="#000" stroke-width="4" stroke-linecap="round"/><path d="M201.301 393.218c-.261 1.925-.147 5.76 2.393 5.699m-30.41-27.573c-1.547.814-4.928 1.771-6.072-.91" stroke="#000" stroke-width="5" stroke-linecap="round"/></g><g opacity=".8"><ellipse cx="38.6396" cy="37.0539" rx="38.6396" ry="37.0539" transform="matrix(.89242 -.4512 .50853 .86104 576.062 288.869)" fill="#F3F723"/><ellipse cx="5.18652" cy="11.9368" rx="5.18652" ry="11.9368" transform="matrix(.89242 -.4512 .50853 .86104 604.646 289.433)" fill="#000"/><ellipse cx="5.18652" cy="11.9368" rx="5.18652" ry="11.9368" transform="matrix(.89242 -.4512 .50853 .86104 623.16 280.072)" fill="#000"/><path d="M617.34 318.051c14.127 12.577 36.683 3.233 31.937-16.147" stroke="#000" stroke-width="4" stroke-linecap="round"/><path d="M649.635 302.001c1.846.92 5.752 2.208 6.609-.005m-38.778 16.269c.261 1.629.004 4.892-3.111 4.91" stroke="#000" stroke-width="5" stroke-linecap="round"/></g><path d="m408.098 237.075-.732-.115-.733.102-213.902 29.777c1.374-65.346 25.896-144.13 64.958-189.2522 40.33-46.5852 94.86-72.58682 151.538-72.58681 56.677 0 111.208 26.00161 151.537 72.58691 20.047 23.1561 37.449 56.5711 49.84 92.6991 11.655 33.985 18.757 70.026 19.549 101.652l-222.055-34.863Z" fill="#CEFDFD" stroke="#656565" stroke-width="10"/><path d="M139.422 299c121.888-85.849 403.755-65.037 523.104-15.609" stroke="#656565" stroke-width="18" stroke-linecap="round"/><path d="M302.811 174.651c12.961 18.499-5.063 49.1-5.063 58.349l33.145-3.597c6.481-33.915 3.889-39.542 23.762-65.03 19.874-25.487 30.243-114.8679-23.762-110.1965-47.524 4.1109-66.933 65.0235-28.082 120.4745Z" fill="#2E6C04" stroke="#2E6C04" stroke-width="10" stroke-linecap="round"/><ellipse cx="13.2815" cy="23.7011" rx="13.2815" ry="23.7011" transform="matrix(.90636 -.4225 .48644 .87371 285.329 103.792)" fill="#2C2C2C"/><path d="M340.45 153.389c-3.963 4.78-14.267 11.472-23.778 0" stroke="#373737" stroke-width="5" stroke-linecap="round"/><ellipse cx="12.564" cy="26.0725" rx="12.564" ry="26.0725" transform="matrix(.90818 .41858 -.48224 .87604 347.567 88.782)" fill="#2C2C2C"/><path d="m342.47 205.727-.476.473-.175.648-1.621 6-.057.21-.02.218-.54 6-.632 7.019 4.914-5.052 19.434-19.979 17.664-17.334 23.842-16.668c.734-.238 1.518-.487 2.337-.747 2.447-.777 5.208-1.654 7.897-2.635 3.735-1.363 7.574-3.011 10.583-5.065 2.951-2.014 5.606-4.765 5.976-8.473.375-3.752-1.682-7.472-5.687-11.177-4.032-3.731-8.131-5.208-12.077-4.451-3.82.733-6.825 3.442-9.04 6.576-2.242 3.17-3.901 7.08-4.957 10.841-.894 3.184-1.395 6.405-1.4 9.138l-15.467 11.454 2.442-13.235c1.948-1.505 3.514-3.887 4.635-6.392 1.349-3.014 2.239-6.612 2.336-10.126.097-3.487-.583-7.149-2.67-10.032-2.168-2.995-5.614-4.82-10.29-4.937-4.595-.115-8.186 1.353-10.62 4.032-2.38 2.618-3.388 6.1-3.48 9.564-.166 6.289 2.675 13.493 7.619 17.561l-1.919 18.202-28.551 28.367Z" fill="#49AC06" stroke="#2E6C04" stroke-width="5" stroke-linecap="round"/><path d="M512.821 178.606c-14.541 17.879 5.681 47.455 5.681 56.394l-37.188-3.476c-7.271-32.778-4.362-38.217-26.659-62.85-22.298-24.633-33.931-111.0183 26.659-106.5034 53.32 3.9731 75.096 62.8434 31.507 116.4354Z" fill="#2E6C04" stroke="#2E6C04" stroke-width="10" stroke-linecap="round"/><ellipse cx="14.6494" cy="24.6125" rx="14.6494" ry="24.6125" transform="matrix(-.92194 -.38733 -.52555 .85076 532.435 104.348)" fill="#2C2C2C"/><path d="M485.2 155.5c4.446 4.833 15.344 4.1 26.015-7.5" stroke="#373737" stroke-width="5" stroke-linecap="round"/><ellipse cx="13.8624" cy="22.0591" rx="13.8624" ry="22.0591" transform="matrix(-.9235 .38361 .52125 .8534 467.823 97.7113)" fill="#2C2C2C"/><path d="M544.227 242.982c3.06-4.431 3.664-9.23 2.861-14.377-.804-5.147-3.565-10.29-8.051-14.995-4.486-4.705-10.565-8.835-17.725-12.04-7.159-3.205-15.189-5.392-23.412-6.376-8.222-.984-16.396-.736-23.831.723-7.436 1.458-13.915 4.085-18.891 7.658-4.976 3.573-8.303 7.987-9.7 12.871-1.397 4.884-2.787 11.489-.291 16.584l9.991.415 7.039.415c-1.024-3.343-2.926-10.944-1.938-14.398.988-3.454 3.341-6.576 6.86-9.103s8.101-4.384 13.36-5.416c5.259-1.032 11.04-1.207 16.855-.511 5.815.696 11.494 2.242 16.557 4.509 5.064 2.267 9.363 5.187 12.536 8.515 3.173 3.328 5.126 6.965 5.694 10.605.568 3.64-1.278 9.536-3.442 12.669l8.806 1.422 6.722.83Z" fill="#6C2A04"/><path d="M517.78 202c0 2.564-.787 4.847-2.013 6.468-1.226 1.62-2.845 2.532-4.552 2.532-1.708 0-3.327-.912-4.552-2.532-1.226-1.621-2.014-3.904-2.014-6.468s.788-4.847 2.014-6.468c1.225-1.62 2.844-2.532 4.552-2.532 1.707 0 3.326.912 4.552 2.532 1.226 1.621 2.013 3.904 2.013 6.468Z" fill="#2E6C04" stroke="#49AC06" stroke-width="2"/><path d="M508.053 199.5c0 4.329-2.867 7.5-6.025 7.5-3.158 0-6.025-3.171-6.025-7.5 0-4.329 2.867-7.5 6.025-7.5 3.158 0 6.025 3.171 6.025 7.5ZM483.218 199.763c2.32-.745 4.604-.746 6.407-.193 1.805.553 3.039 1.624 3.502 2.98.463 1.357.13 2.93-.979 4.42-1.107 1.486-2.941 2.808-5.261 3.553-2.32.745-4.605.746-6.407.194-1.806-.554-3.04-1.624-3.502-2.981-.463-1.356-.131-2.93.978-4.419 1.107-1.487 2.942-2.809 5.262-3.554Z" fill="#2E6C04" stroke="#49AC06" stroke-width="2"/><path opacity=".8" d="M480.117 378.563c-1.254-.652-2.578-1.176-3.951-1.563 1.373-.387 2.697-.912 3.951-1.563 1.419-.765 2.662-1.785 3.66-3.001.997-1.215 1.729-2.603 2.154-4.083.424-1.481.533-3.025.319-4.545-.213-1.52-.744-2.986-1.563-4.313-.819-1.328-1.909-2.491-3.208-3.424-1.299-.933-2.782-1.617-4.363-2.013-1.582-.396-3.232-.497-4.855-.296-1.623.201-3.188.7-4.605 1.468-1.229.69-2.376 1.502-3.421 2.421.328-1.306.506-2.642.53-3.984 0-3.095-1.313-6.062-3.65-8.25-2.337-2.188-5.506-3.417-8.811-3.417-3.304 0-6.474 1.229-8.81 3.417-2.337 2.188-3.65 5.155-3.65 8.25.024 1.342.201 2.678.529 3.984-1.044-.919-2.191-1.731-3.421-2.422-2.862-1.545-6.262-1.963-9.453-1.162-3.191.802-5.911 2.757-7.563 5.436-1.652 2.678-2.1 5.862-1.245 8.85.854 2.988 2.941 5.536 5.801 7.084 1.254.652 2.578 1.176 3.951 1.563-1.373.387-2.698.912-3.951 1.563-2.859 1.549-4.944 4.097-5.798 7.084-.853 2.987-.405 6.17 1.247 8.848 1.651 2.678 4.371 4.633 7.56 5.434 3.19.802 6.59.385 9.452-1.159 1.229-.69 2.376-1.502 3.42-2.421-.328 1.306-.505 2.642-.529 3.984 0 3.095 1.313 6.062 3.65 8.25 2.336 2.188 5.506 3.417 8.81 3.417 3.305 0 6.474-1.229 8.811-3.417 2.337-2.188 3.65-5.155 3.65-8.25-.024-1.342-.202-2.678-.53-3.984 1.045.919 2.192 1.731 3.421 2.422 2.862 1.545 6.263 1.963 9.454 1.162 3.191-.802 5.911-2.757 7.563-5.436 1.652-2.678 2.1-5.862 1.245-8.85-.854-2.988-2.941-5.536-5.801-7.084Zm-27.813 6.215c-1.643 0-3.249-.456-4.615-1.311s-2.431-2.069-3.059-3.491c-.629-1.421-.794-2.985-.473-4.493.321-1.509 1.112-2.895 2.273-3.983 1.162-1.087 2.642-1.828 4.254-2.128 1.611-.3 3.281-.146 4.799.442 1.518.589 2.816 1.586 3.728 2.865.913 1.279 1.4 2.783 1.4 4.321-.002 2.062-.878 4.039-2.435 5.497-1.558 1.458-3.669 2.278-5.872 2.281Z" fill="#FA7529"/><path opacity=".8" d="M685.394 254.759c-.616-.316-1.268-.571-1.944-.759.676-.188 1.328-.443 1.944-.759.699-.372 1.31-.867 1.801-1.458.491-.59.851-1.264 1.06-1.983.209-.719.262-1.469.157-2.208-.105-.738-.366-1.45-.769-2.095-.403-.644-.939-1.209-1.578-1.663-.639-.453-1.369-.785-2.147-.977-.779-.193-1.59-.242-2.389-.144-.799.098-1.569.34-2.266.713-.605.335-1.169.73-1.683 1.176.161-.635.248-1.283.26-1.935 0-1.503-.646-2.945-1.796-4.007-1.149-1.063-2.709-1.66-4.335-1.66s-3.186.597-4.336 1.66c-1.149 1.062-1.795 2.504-1.795 4.007.011.652.099 1.3.26 1.935-.514-.446-1.078-.841-1.683-1.176-1.408-.751-3.082-.954-4.652-.565-1.57.39-2.909 1.339-3.721 2.64-.813 1.301-1.034 2.848-.613 4.299.42 1.451 1.447 2.689 2.855 3.441.616.316 1.268.571 1.943.759-.675.188-1.327.443-1.944.759-1.406.752-2.432 1.99-2.852 3.441-.42 1.451-.2 2.997.613 4.298.813 1.3 2.151 2.25 3.72 2.639 1.57.39 3.243.187 4.651-.563.605-.335 1.169-.73 1.683-1.176-.161.635-.249 1.283-.26 1.935 0 1.503.646 2.945 1.795 4.007 1.15 1.063 2.71 1.66 4.336 1.66 1.626 0 3.186-.597 4.335-1.66 1.15-1.062 1.796-2.504 1.796-4.007-.012-.652-.099-1.3-.26-1.935.514.446 1.078.841 1.683 1.176 1.408.751 3.082.954 4.652.565 1.57-.39 2.908-1.339 3.721-2.64.813-1.301 1.034-2.848.613-4.299-.42-1.451-1.447-2.689-2.855-3.441Zm-13.685 3.019c-.808 0-1.599-.222-2.271-.637-.672-.415-1.196-1.005-1.505-1.695-.31-.691-.391-1.45-.233-2.183.158-.733.547-1.406 1.119-1.934.571-.529 1.3-.888 2.093-1.034.792-.146 1.614-.071 2.361.215.747.286 1.386.77 1.835 1.391.449.621.689 1.352.689 2.099-.002 1.002-.433 1.962-1.199 2.67s-1.805 1.107-2.889 1.108Z" fill="#C31AFF"/><path opacity=".8" d="M121.227 343.563c-1.16-.652-2.385-1.176-3.656-1.563 1.271-.387 2.496-.912 3.656-1.563 1.312-.765 2.463-1.785 3.386-3.001.923-1.215 1.6-2.603 1.993-4.083.393-1.481.493-3.025.296-4.545-.198-1.52-.689-2.986-1.447-4.313-.757-1.328-1.766-2.491-2.968-3.424-1.202-.933-2.574-1.617-4.037-2.013-1.463-.396-2.99-.497-4.491-.296-1.502.201-2.95.7-4.261 1.468-1.138.69-2.199 1.502-3.166 2.421.304-1.306.468-2.642.49-3.984 0-3.095-1.214-6.062-3.376-8.25-2.162-2.188-5.0949-3.417-8.1526-3.417-3.0577 0-5.9902 1.229-8.1523 3.417-2.1621 2.188-3.3768 5.155-3.3768 8.25.0223 1.342.1865 2.678.49 3.984-.9667-.919-2.0278-1.731-3.1653-2.422-2.648-1.545-5.7941-1.963-8.7465-1.162-2.9524.802-5.4696 2.757-6.9979 5.436-1.5284 2.678-1.9429 5.862-1.1524 8.85.7905 2.988 2.7213 5.536 5.3679 7.084 1.1597.652 2.3851 1.176 3.6552 1.563-1.2701.387-2.4956.912-3.6554 1.563-2.6451 1.549-4.5745 4.097-5.3641 7.084-.7897 2.987-.3749 6.17 1.1531 8.848 1.528 2.678 4.0442 4.633 6.9956 5.434 2.9515.802 6.0968.385 8.7446-1.159 1.1375-.69 2.1986-1.502 3.1652-2.421-.3034 1.306-.4677 2.642-.49 3.984 0 3.095 1.2147 6.062 3.3768 8.25 2.1621 2.188 5.0946 3.417 8.1523 3.417 3.0577 0 5.9906-1.229 8.1526-3.417 2.162-2.188 3.376-5.155 3.376-8.25-.022-1.342-.186-2.678-.49-3.984.967.919 2.028 1.731 3.166 2.422 2.648 1.545 5.794 1.963 8.746 1.162 2.953-.802 5.47-2.757 6.998-5.436 1.529-2.678 1.943-5.862 1.153-8.85-.791-2.988-2.722-5.536-5.368-7.084Zm-25.7336 6.215c-1.5202 0-3.0062-.456-4.2702-1.311-1.2639-.855-2.2491-2.069-2.8308-3.491-.5817-1.421-.7339-2.985-.4374-4.493.2966-1.509 1.0286-2.895 2.1035-3.983 1.0749-1.087 2.4445-1.828 3.9354-2.128 1.4909-.3 3.0363-.146 4.4408.442 1.4044.589 2.6053 1.586 3.4493 2.865.845 1.279 1.295 2.783 1.295 4.321-.002 2.062-.812 4.039-2.253 5.497-1.4412 1.458-3.3949 2.278-5.4326 2.281Z" fill="#06A1AC"/></svg>